<svg width="150" height="150" viewBox="0 0 150 150" fill="none" xmlns="http://www.w3.org/2000/svg">
<path d="M74.72 137.14C106.598 137.14 132.44 112.73 132.44 82.6196C132.44 52.509 106.598 28.0996 74.72 28.0996C42.8421 28.0996 17 52.509 17 82.6196C17 112.73 42.8421 137.14 74.72 137.14Z" stroke="black" stroke-width="3" stroke-miterlimit="10"/>
<path d="M74.72 17.2109V27.6809" stroke="black" stroke-width="10" stroke-miterlimit="10"/>
<path d="M89.9101 21.42H59.5301C57.2001 21.42 55.3201 19.53 55.3201 17.21C55.3201 14.88 57.2101 13 59.5301 13H89.9101C92.2401 13 94.1201 14.89 94.1201 17.21C94.1301 19.53 92.2401 21.42 89.9101 21.42Z" fill="black" stroke="black" stroke-miterlimit="10"/>
<path d="M114.17 42.8192L119.9 37.6992" stroke="black" stroke-width="7" stroke-miterlimit="10"/>
<path d="M123.7 44.1892L113.87 33.1992C112.52 31.6892 112.65 29.3692 114.16 28.0192C115.67 26.6692 117.99 26.7992 119.34 28.3092L129.17 39.2992C130.52 40.8092 130.39 43.1292 128.88 44.4792C127.37 45.8292 125.05 45.6992 123.7 44.1892Z" fill="black" stroke="black" stroke-miterlimit="10"/>
<path d="M74.7201 87.6004C78.2271 87.6004 81.0701 84.7574 81.0701 81.2504C81.0701 77.7434 78.2271 74.9004 74.7201 74.9004C71.2131 74.9004 68.3701 77.7434 68.3701 81.2504C68.3701 84.7574 71.2131 87.6004 74.7201 87.6004Z" fill="black" stroke="black" stroke-miterlimit="10"/>
<path d="M75.56 33.7699H74.47C73.64 33.7699 72.97 33.0999 72.97 32.2699V29.1699C72.97 28.3399 73.64 27.6699 74.47 27.6699H75.56C76.39 27.6699 77.06 28.3399 77.06 29.1699V32.2699C77.06 33.0999 76.39 33.7699 75.56 33.7699Z" fill="black" stroke="black" stroke-miterlimit="10"/>
<path d="M76.63 137.311H75.54C74.71 137.311 74.04 136.641 74.04 135.811V132.711C74.04 131.881 74.71 131.211 75.54 131.211H76.63C77.46 131.211 78.13 131.881 78.13 132.711V135.811C78.13 136.641 77.46 137.311 76.63 137.311Z" fill="black" stroke="black" stroke-miterlimit="10"/>
<path d="M126.35 81.7892V80.6992C126.35 79.8692 127.02 79.1992 127.85 79.1992H130.95C131.78 79.1992 132.45 79.8692 132.45 80.6992V81.7892C132.45 82.6192 131.78 83.2892 130.95 83.2892H127.85C127.02 83.2892 126.35 82.6192 126.35 81.7892Z" fill="black" stroke="black" stroke-miterlimit="10"/>
<path d="M17 83.1603V82.0703C17 81.2403 17.67 80.5703 18.5 80.5703H21.6C22.43 80.5703 23.1 81.2403 23.1 82.0703V83.1603C23.1 83.9903 22.43 84.6603 21.6 84.6603H18.5C17.67 84.6603 17 83.9903 17 83.1603Z" fill="black" stroke="black" stroke-miterlimit="10"/>
<path d="M113.51 50.8409L112.74 50.0709C112.15 49.4809 112.15 48.5309 112.74 47.9509L114.93 45.7609C115.52 45.1709 116.47 45.1709 117.05 45.7609L117.82 46.5309C118.41 47.1209 118.41 48.0709 117.82 48.6509L115.63 50.8409C115.04 51.4309 114.09 51.4309 113.51 50.8409Z" fill="black" stroke="black" stroke-miterlimit="10"/>
<path d="M32.95 120.29L32.18 119.52C31.59 118.93 31.59 117.98 32.18 117.4L34.37 115.21C34.96 114.62 35.9101 114.62 36.4901 115.21L37.26 115.98C37.85 116.57 37.85 117.52 37.26 118.1L35.07 120.29C34.49 120.87 33.54 120.87 32.95 120.29Z" fill="black" stroke="black" stroke-miterlimit="10"/>
<path d="M111.46 116.451L112.23 115.681C112.82 115.091 113.77 115.091 114.35 115.681L116.54 117.871C117.13 118.461 117.13 119.411 116.54 119.991L115.77 120.761C115.18 121.351 114.23 121.351 113.65 120.761L111.46 118.571C110.88 117.981 110.88 117.031 111.46 116.451Z" fill="black" stroke="black" stroke-miterlimit="10"/>
<path d="M33.7602 44.5504L34.5302 43.7804C35.1202 43.1904 36.0702 43.1904 36.6502 43.7804L38.8402 45.9704C39.4302 46.5604 39.4302 47.5104 38.8402 48.0904L38.0702 48.8604C37.4802 49.4504 36.5302 49.4504 35.9502 48.8604L33.7602 46.6704C33.1802 46.0904 33.1802 45.1404 33.7602 44.5504Z" fill="black" stroke="black" stroke-miterlimit="10"/>
<path d="M75.02 39.4805L74.72 70.8005" stroke="black" stroke-width="3" stroke-miterlimit="10"/>
<path d="M109.47 54.5801L83.3101 77.2901" stroke="black" stroke-width="3" stroke-miterlimit="10"/>
<path d="M74.5302 71.9305C76.4602 71.4705 78.7402 72.6905 80.4702 73.4805C82.2002 74.2705 83.6402 75.3405 84.8902 76.7805C85.7402 77.7505 87.1502 76.3305 86.3002 75.3705C84.6902 73.5205 82.8302 72.3205 80.5802 71.3805C78.4302 70.4805 76.3602 69.4405 73.9902 70.0105C72.7402 70.3005 73.2702 72.2305 74.5302 71.9305Z" fill="black"/>
<path d="M74.2402 71.9102C75.5302 71.9102 75.5302 69.9102 74.2402 69.9102C72.9502 69.9102 72.9502 71.9102 74.2402 71.9102Z" fill="black"/>
<path d="M74.2402 71.8496C75.5302 71.8496 75.5302 69.8496 74.2402 69.8496C72.9502 69.8496 72.9502 71.8496 74.2402 71.8496Z" fill="black"/>
<path d="M74.9501 70.1793C74.9401 70.1693 74.9401 70.1693 74.9301 70.1593C74.0201 69.2493 72.6001 70.6593 73.5201 71.5693C73.5301 71.5793 73.5301 71.5793 73.5401 71.5893C74.4401 72.5093 75.8601 71.0893 74.9501 70.1793Z" fill="black"/>
<path d="M74.5102 40.7404C80.5902 40.0604 87.6102 42.7304 93.2102 44.9504C99.3102 47.3604 104.78 50.6504 109.21 55.5304C110.08 56.4904 111.49 55.0704 110.62 54.1204C106.36 49.4304 101.16 46.1104 95.3402 43.6704C89.1002 41.0604 81.3702 37.9804 74.5102 38.7404C73.2402 38.8804 73.2302 40.8804 74.5102 40.7404Z" fill="black"/>
<path d="M76.8002 46.1604C79.3302 47.7004 81.8802 48.7104 84.8102 49.2304C88.5002 49.8904 91.2002 44.8704 87.5102 42.8304C86.4502 42.2404 85.5602 41.8704 84.4102 41.4804C83.7902 43.7304 83.1702 45.9804 82.5502 48.2304C86.4202 49.3904 89.9202 51.1104 93.6802 52.5404C95.8002 53.3504 99.9202 54.1304 101.27 56.2404C101.27 55.0604 101.27 53.8804 101.27 52.7104C99.3102 55.3804 95.8402 57.8704 93.5002 60.3404C91.2302 62.7304 88.1702 67.0704 85.0802 68.2204C85.9802 68.3404 86.8802 68.4604 87.7802 68.5704C86.7002 67.7504 86.0002 66.9304 84.6802 66.3804C83.9502 66.0704 81.7102 66.0304 81.2102 65.3804C81.5502 66.2004 81.8902 67.0304 82.2402 67.8504C81.8702 64.4804 82.0702 61.0404 81.8002 57.6604C81.6102 55.3504 80.1202 51.0504 80.6402 48.8304C79.5202 49.6904 78.3902 50.5404 77.2702 51.4004C78.2702 51.4804 80.3402 67.1104 80.6202 68.6004C81.3202 72.4304 87.9602 71.6004 87.4902 67.6704C86.7802 61.6904 86.7302 55.7104 86.7502 49.7004C84.5802 50.2904 82.4002 50.8804 80.2302 51.4704C82.1402 55.3904 85.6502 60.4504 85.1502 64.8704C87.3202 64.2804 89.5002 63.6904 91.6702 63.1004C90.3602 60.0304 92.1202 54.2804 92.5602 51.0904C90.4302 51.3704 88.3002 51.6504 86.1602 51.9304C88.2902 54.7504 90.4302 58.2904 90.0202 61.9904C90.3602 61.1704 90.7002 60.3404 91.0502 59.5204C90.8202 59.7104 90.6002 59.8904 90.3702 60.0804C91.1902 59.7404 92.0202 59.4004 92.8402 59.0504C93.2402 59.7004 93.6302 60.3404 94.0302 60.9904C94.4202 60.2104 94.9002 59.5004 95.4802 58.8604C95.8502 58.4004 96.8602 56.9204 97.4202 56.6904C96.5202 56.5704 95.6202 56.4504 94.7202 56.3404C94.3002 56.0204 93.8802 55.7004 93.4502 55.3704C94.5902 55.0704 95.7202 54.7704 96.8602 54.4704C96.6702 54.4204 96.4802 54.3704 96.2902 54.3304C91.9202 53.2204 90.0602 59.9704 94.4302 61.0804C94.6202 61.1304 94.8102 61.1804 95.0002 61.2204C96.1602 61.5104 97.5802 61.2504 98.4102 60.3204C100.81 57.6104 102.41 51.1504 97.4202 49.9404C93.0402 48.8804 87.8302 56.0904 87.1402 59.7004C86.2702 64.2904 91.4602 68.0404 95.3102 65.0304C100.15 61.2504 94.9002 51.9704 92.2002 48.4104C90.6602 46.3804 86.2702 45.8904 85.8002 49.2504C85.0102 54.9704 83.2702 61.1604 85.6202 66.6604C87.1502 70.2404 91.8102 67.8704 92.1402 64.8904C92.8102 58.8504 88.8102 53.1904 86.2602 47.9604C84.6902 44.7404 79.7502 46.4204 79.7402 49.7304C79.7202 55.7404 79.7702 61.7304 80.4802 67.7004C82.7702 67.3904 85.0602 67.0804 87.3502 66.7704C86.1902 60.4604 86.2402 45.1504 77.2502 44.4304C75.7802 44.3104 74.2102 45.6004 73.8802 47.0004C73.2102 49.8204 74.3302 53.0004 74.6202 55.8504C74.9902 59.5204 74.6702 63.3204 75.1302 66.9504C75.7302 71.7804 79.9402 72.8704 84.0402 74.4904C88.3702 76.2104 92.1702 71.6504 95.0802 68.8104C99.0702 64.9204 104.06 60.7304 107.33 56.2704C108.03 55.3204 107.95 53.7004 107.33 52.7404C105.54 49.9404 101.78 47.9804 98.7402 46.8404C93.9702 45.0504 89.3302 42.9704 84.4302 41.5004C80.0802 40.2004 78.3402 46.8004 82.5702 48.2504C83.0502 48.4704 83.5202 48.6804 84.0002 48.9004C84.9002 46.7704 85.8002 44.6404 86.7002 42.5004C84.3602 42.0804 82.4102 41.3804 80.3702 40.1304C76.4802 37.7704 72.9502 43.8204 76.8002 46.1604Z" fill="black"/>
<path d="M74.29 72.0194C76.09 72.6494 77.87 73.3294 79.52 74.2894C81.22 75.2694 82.13 76.3794 83.23 77.9494C83.96 78.9994 85.7 77.9994 84.96 76.9394C83.78 75.2394 82.86 73.9894 81.07 72.8794C79.13 71.6694 76.97 70.8494 74.83 70.0894C73.6 69.6594 73.08 71.5894 74.29 72.0194Z" fill="black"/>
<path d="M75.1401 40.841C83.2401 40.121 93.5701 43.991 100.1 48.601C101.15 49.341 102.15 47.611 101.11 46.871C94.1901 41.991 83.6701 38.081 75.1401 38.841C73.8701 38.951 73.8601 40.951 75.1401 40.841Z" fill="black"/>
<path d="M94.3701 45.2106C96.3501 46.1506 98.2801 47.1806 100.16 48.3206C101.26 48.9906 102.27 47.2606 101.17 46.5906C99.2901 45.4506 97.3701 44.4206 95.3801 43.4806C94.2201 42.9406 93.2001 44.6606 94.3701 45.2106Z" fill="black"/>
<path d="M83.6 78.8803C83.9 78.8703 84.2 78.9203 84.49 78.8203C84.77 78.7303 85.04 78.5503 85.3 78.4203C85.59 78.2703 85.33 77.8403 85.05 77.9903C84.83 78.1003 84.61 78.2503 84.38 78.3303C84.13 78.4203 83.86 78.3803 83.59 78.3903C83.28 78.3903 83.27 78.8903 83.6 78.8803Z" fill="white"/>
<path d="M84.33 78.8898C84.64 78.7198 84.94 78.5398 85.21 78.3098C85.49 78.0698 85.78 77.9598 86.08 77.7698C86.35 77.5998 86.1 77.1698 85.83 77.3398C85.59 77.4898 85.33 77.5598 85.11 77.7298C84.77 77.9998 84.46 78.2398 84.08 78.4498C83.8 78.6198 84.05 79.0498 84.33 78.8898Z" fill="white"/>
<path d="M84.5802 78.4301C84.4302 78.3301 84.3302 78.4001 84.1702 78.3601C84.1702 78.5201 84.1702 78.6801 84.1702 78.8401C84.4102 78.7901 84.6102 78.7101 84.8202 78.5901C85.1002 78.4301 84.8502 78.0001 84.5702 78.1601C84.4002 78.2601 84.2302 78.3201 84.0402 78.3601C83.7902 78.4101 83.8102 78.7801 84.0402 78.8401C84.1002 78.8601 84.2902 78.8401 84.3302 78.8601C84.6002 79.0401 84.8502 78.6001 84.5802 78.4301Z" fill="white"/>
<path d="M86.36 77.3691C86.43 77.3091 86.49 77.2491 86.56 77.1891C86.75 77.0191 86.55 76.7091 86.32 76.7691C86.14 76.8191 86.04 76.8991 85.93 77.0491C85.76 77.2891 86.13 77.5491 86.32 77.3491C86.44 77.2291 86.56 77.1391 86.7 77.0491C86.97 76.8791 86.72 76.4491 86.45 76.6191C86.27 76.7291 86.12 76.8491 85.97 76.9991C86.1 77.0991 86.23 77.1991 86.36 77.2991C86.39 77.2791 86.42 77.2691 86.45 77.2491C86.37 77.1091 86.29 76.9691 86.21 76.8291C86.14 76.8891 86.08 76.9491 86.01 77.0091C85.76 77.2291 86.12 77.5791 86.36 77.3691Z" fill="white"/>
<path d="M84.86 78.0794C84.43 78.1194 83.9401 78.2094 83.5501 77.9794C83.1801 77.7594 82.8701 77.4494 82.6001 77.1294C82.3901 76.8894 82.0401 77.2394 82.2501 77.4794C82.5801 77.8594 82.9701 78.2394 83.4201 78.4794C83.8601 78.7094 84.3901 78.6294 84.8701 78.5794C85.1801 78.5494 85.18 78.0494 84.86 78.0794Z" fill="white"/>
<path d="M81.6102 76.651C82.2702 77.161 82.7802 77.891 83.5902 78.161C84.3302 78.401 85.0902 78.281 85.7502 77.901C86.0302 77.741 85.7802 77.311 85.5002 77.471C84.8402 77.851 84.0402 77.9109 83.3702 77.5209C82.8402 77.2109 82.4502 76.6809 81.9602 76.3109C81.7102 76.1009 81.3602 76.451 81.6102 76.651Z" fill="white"/>
</svg>
