<svg width="150" height="150" viewBox="0 0 150 150" fill="none" xmlns="http://www.w3.org/2000/svg">
<path d="M48.7103 67.72C46.9903 67.22 52.9203 56.3 53.5603 55.25C56.0003 51.29 58.9703 47.74 62.4003 44.6C69.3503 38.23 78.4503 33.59 87.9603 32.97C98.3903 32.28 107.19 37.14 114.58 44.12C122.36 51.47 127.55 58.83 127.7 69.84C127.95 89.07 115.64 106.74 96.8603 111.81C89.5303 113.79 72.5203 115.24 75.5203 102.72C77.5703 94.15 88.1203 90.92 91.7703 83.07C95.6303 74.77 90.2403 66.52 81.9403 64.12C76.9003 62.66 71.3203 62.91 66.1803 63.61C63.1503 64.02 60.1803 64.64 57.2703 65.58C55.9903 66 49.4903 67.72 49.1603 69.09C50.5203 63.46 41.8503 61.06 40.4803 66.7C39.4203 71.08 41.6103 75.31 45.9503 76.85C52.1003 79.04 58.9503 74.05 64.9603 72.87C69.5003 71.98 80.5403 70.19 83.5203 75.42C86.5103 80.67 76.9603 86.13 73.8103 89.13C65.9503 96.63 62.7303 110.01 71.9903 117.89C80.3803 125.03 95.0103 122.47 104.35 118.8C126.79 109.98 139.89 85.93 136.01 62.23C134.05 50.25 125.3 40.81 116.03 33.54C106.29 25.9 94.9103 22.5 82.6003 24.62C69.4303 26.89 57.5603 35.02 49.4603 45.47C44.0203 52.47 31.8203 72.19 46.3103 76.4C51.8903 78.02 54.2703 69.34 48.7103 67.72Z" fill="black"/>
<path d="M53.2002 67.9395C60.5702 62.9395 66.7502 56.9495 72.0602 49.8195C75.1502 45.6695 68.4902 40.7895 64.9902 44.3695C60.3302 49.1295 55.3702 53.5195 50.0002 57.4595C52.0502 59.5095 54.1002 61.5595 56.1602 63.6195C63.0102 52.5895 73.3502 40.6695 86.3002 37.2095C94.6402 34.9795 99.3902 38.6195 105.53 43.6895C110.43 47.7295 116.64 51.6995 118.73 57.9995C120.64 63.7695 120.44 70.9895 119.92 76.9795C119.36 83.4295 117.12 89.1295 112.48 93.7095C108.43 97.7095 103.4 100.57 98.3502 103.12C95.4602 104.58 91.9702 106.48 88.6002 106.16C86.4502 105.95 82.1302 103.22 85.7002 101.49C83.6502 99.4395 81.6002 97.3895 79.5402 95.3295C77.6202 98.8195 75.6702 102.3 73.6902 105.76C76.2802 105.76 78.8702 105.76 81.4602 105.76C77.3502 99.1395 87.5302 97.4995 91.7002 95.7695C89.8502 93.9195 88.0102 92.0795 86.1602 90.2295C84.1502 95.4995 82.1402 100.78 80.1302 106.05C78.5502 110.18 84.8402 113.82 87.6502 110.43C91.1302 106.24 94.7402 102.18 98.5102 98.2395C95.9502 97.1795 93.3902 96.1195 90.8302 95.0595C90.7902 97.8995 90.2402 100.22 88.9202 102.74C86.2402 107.85 93.7802 112.32 96.6902 107.28C100.84 100.1 106.74 94.9695 114.3 91.6095C112.25 89.5595 110.2 87.5095 108.14 85.4495C104.76 90.9895 101 96.1895 96.7502 101.1C92.9402 105.5 98.7002 111.24 103.11 107.46C110.79 100.89 119.33 95.6295 128.56 91.5195C126.74 89.1595 124.92 86.8095 123.11 84.4495C120.79 86.4695 116.16 90.4295 112.88 90.6695C114.18 91.4095 115.47 92.1595 116.77 92.8995C117.17 93.4995 117.94 89.9695 118.28 89.1295C119.1 87.1195 120.21 85.3095 121.58 83.6295C119.02 82.5695 116.46 81.5095 113.9 80.4495C113.69 82.2895 112.29 83.0795 110.78 83.7295C113.04 85.0295 115.29 86.3195 117.55 87.6195C117.94 83.2595 119.97 79.7595 123.18 76.8595C127.52 72.9395 121.19 66.8095 116.82 70.4995C109.31 76.8195 101.31 82.4395 92.8702 87.4395C95.1302 88.7395 97.3802 90.0295 99.6402 91.3295C99.4002 87.2595 108.01 83.2595 111.08 82.0095C109.62 79.4995 108.16 76.9995 106.7 74.4895C104.01 77.5295 99.0802 82.6095 94.6802 83.0095C95.7402 83.4495 96.8002 83.8895 97.8602 84.3295C97.7002 84.1295 97.5402 83.9295 97.3802 83.7395C97.8202 84.7995 98.2602 85.8595 98.7002 86.9195C98.5702 84.7495 100.12 83.3995 101.84 82.4495C99.7902 80.3995 97.7402 78.3495 95.6802 76.2895C93.4202 79.9895 90.6802 83.0295 87.3302 85.7695C89.6902 87.5895 92.0402 89.4095 94.4002 91.2195C97.0602 85.9695 102.14 79.4395 100.88 73.2395C99.8002 67.9495 95.6702 63.4695 91.2002 60.7395C80.4002 54.1395 64.9602 55.3295 53.4502 59.2195C54.6102 61.9595 55.7602 64.6995 56.9202 67.4395C65.9602 60.4595 74.7602 53.4295 81.3302 43.9595C78.7402 42.4495 76.1502 40.9295 73.5602 39.4195C70.9602 44.3595 68.9602 49.4895 67.6202 54.9195C66.5002 59.4495 71.8002 62.1995 75.1402 59.2995C81.7302 53.5695 85.5302 45.4695 92.0802 39.7095C89.7202 37.8895 87.3702 36.0695 85.0102 34.2595C80.6002 40.9895 77.0602 48.0895 74.2002 55.5995C72.6402 59.6995 78.9502 63.4395 81.7202 59.9795C86.1302 54.4695 91.1202 49.6395 96.9002 45.5895C95.0802 43.2295 93.2602 40.8795 91.4502 38.5195C88.4602 42.2195 85.3202 45.7695 82.0302 49.2095C84.3902 51.0295 86.7402 52.8495 89.1002 54.6595C90.1502 52.3395 91.2802 50.0695 92.6402 47.9095C93.1202 47.1395 95.2702 45.0495 95.3002 44.1795C94.8402 43.8695 94.3802 43.5495 93.9202 43.2395C93.4902 43.9395 93.0302 44.5995 92.5302 45.2495C89.5002 49.2795 85.6402 52.3495 81.2402 54.7595C83.4402 55.6595 85.6502 56.5495 87.8502 57.4495C87.7902 57.2695 97.6802 53.1195 99.1502 52.6195C103.66 51.0695 108.28 50.0395 112.99 49.3395C111.14 47.4895 109.3 45.6495 107.45 43.7995C104.32 51.2695 97.8902 56.7395 91.9502 61.9495C94.4602 62.6095 96.9602 63.2695 99.4702 63.9395C97.8702 58.5795 104.27 52.3595 109.84 53.2695C108.79 52.2195 107.74 51.1695 106.7 50.1295C107.71 47.8995 107.71 47.3695 106.7 48.5295C106.11 49.0995 105.51 49.6595 104.9 50.1995C103.56 51.3995 102.17 52.5495 100.72 53.6295C98.0902 55.5895 95.3002 57.3095 92.4402 58.9095C94.2602 61.2695 96.0802 63.6195 97.8902 65.9795C101.77 62.9695 106.15 61.2095 110.94 60.2295C109.04 58.7795 107.14 57.3395 105.24 55.8895C104.75 61.4895 101.32 65.7195 96.3802 68.1295C98.6402 69.4295 100.89 70.7195 103.15 72.0195C103.62 68.2995 105.33 63.2395 103.52 59.6995C101.62 55.9895 96.1002 54.7995 92.3402 54.1795C89.1102 53.6495 85.4602 53.4895 83.5302 56.6495C81.4102 60.1095 83.7402 63.4095 86.7302 65.2695C91.1202 67.9995 95.0902 68.7795 97.6902 73.7095C99.2602 76.6795 100.38 80.7995 104.48 80.7295C111.67 80.6095 116.95 68.5295 118.61 62.9195C115.66 62.5195 112.72 62.1195 109.77 61.7195C109.56 65.7595 109.35 69.7895 109.14 73.8295C108.85 79.3295 116.2 79.3495 117.98 75.0295C121.22 67.1695 121.74 58.9595 119.95 50.6695C118.89 45.7495 110.8 46.7795 111.11 51.8695C111.36 55.9695 112.02 59.8495 113.29 63.7695C115.06 69.2595 123.75 66.9095 121.97 61.3795C120.96 58.2295 120.31 55.1795 120.12 51.8795C117.17 52.2795 114.23 52.6795 111.28 53.0795C112.74 59.8495 111.93 66.2895 109.31 72.6495C112.26 73.0495 115.2 73.4495 118.15 73.8495C118.36 69.8095 118.57 65.7795 118.78 61.7395C119.05 56.5695 111.35 55.7795 109.94 60.5395C109.24 62.9295 108.33 65.1095 106.98 67.2195C106.35 68.1995 105.66 69.1195 104.88 69.9995C104.38 70.5595 102.24 71.9395 104.19 71.7695C105.25 72.2095 106.31 72.6495 107.37 73.0895C104.85 70.2495 104.19 66.1295 101.26 63.3395C99.8302 61.9695 98.0802 60.9495 96.3402 60.0295C95.8802 59.7895 91.5102 57.9895 91.5302 58.0495C91.3802 59.2095 91.2302 60.3595 91.0802 61.5195C91.2302 61.3195 91.3902 61.1095 91.5402 60.9095C90.6402 61.5995 89.7502 62.2895 88.8502 62.9795C91.0302 62.2395 95.3602 64.0995 97.1502 65.3395C96.4602 64.4395 95.7702 63.5495 95.0802 62.6495C95.8902 65.1395 94.4902 69.4995 94.1602 72.0395C93.6902 75.7295 98.2402 77.2395 100.93 75.9295C108.85 72.0695 113.48 64.5795 114.24 55.9195C114.51 52.8095 111.16 51.0395 108.54 51.5795C102.14 52.8895 96.6602 55.6595 91.5202 59.6495C87.3802 62.8495 92.6602 69.1295 96.9702 66.7195C102.68 63.5295 108.47 59.6695 113.06 54.9395C116.38 51.5095 117.04 45.2995 111.03 44.4495C99.2602 42.7895 87.3202 54.7695 90.7902 66.3895C91.8002 69.7795 95.7702 70.6095 98.3102 68.3795C105.64 61.9495 112.3 55.3795 116.12 46.2595C117.61 42.6995 113.49 40.2895 110.58 40.7195C102.8 41.8695 95.3602 44.1195 88.2502 47.4695C83.2002 49.8495 76.9902 53.2795 79.1602 59.9095C80.0802 62.7095 83.1302 64.0395 85.7702 62.5995C92.4902 58.9295 107.76 47.6495 102.67 38.3495C100.46 34.2995 95.4002 33.5595 91.5602 35.7895C86.6102 38.6595 83.5802 45.2095 81.3202 50.1895C79.3402 54.5595 84.6002 59.5895 88.3902 55.6395C91.6802 52.2095 94.8202 48.6495 97.8102 44.9495C100.75 41.3195 96.9002 34.6995 92.3602 37.8795C85.9402 42.3795 80.2602 47.5495 75.3602 53.6795C77.8702 55.1395 80.3702 56.5995 82.8802 58.0595C85.4602 51.2795 88.8102 44.9295 92.7902 38.8695C95.7202 34.3995 89.3902 30.1895 85.7202 33.4195C79.1702 39.1795 75.3602 47.2895 68.7802 53.0095C71.2902 54.4695 73.7902 55.9295 76.3002 57.3895C77.4602 52.6995 79.0802 48.3195 81.3302 44.0395C84.0602 38.8595 76.8402 34.7695 73.5602 39.4995C67.9302 47.6095 60.1202 53.7795 52.3802 59.7495C48.7202 62.5695 50.5402 69.7695 55.8502 67.9695C64.0202 65.2095 73.5602 64.0995 81.9602 66.5595C85.4202 67.5695 89.5802 69.6195 91.2002 73.0995C93.1202 77.2195 88.4902 83.0895 86.6402 86.7595C84.2502 91.4695 89.7802 95.4295 93.7102 92.2095C97.6302 88.9995 100.83 85.2295 103.46 80.9095C105.86 76.9695 101.15 72.6195 97.3002 74.7495C92.6902 77.3095 85.2602 87.3695 92.4102 91.4695C95.4402 93.2095 99.5402 90.9195 102.25 89.5195C106.38 87.3895 110 84.3895 113.07 80.9195C115.74 77.9095 113.21 71.5595 108.69 73.3995C101.61 76.2695 90.1102 82.3695 90.6402 91.3995C90.8402 94.7295 94.3402 97.1095 97.4102 95.2895C106.51 89.8895 115.08 83.7495 123.18 76.9395C121.06 74.8195 118.94 72.6995 116.82 70.5795C111.77 75.1395 109.15 80.9795 108.55 87.6995C108.21 91.4895 112.53 92.7795 115.32 91.5895C120.05 89.5695 122.32 85.4695 122.89 80.5395C123.33 76.7695 117.59 74.4495 115.21 77.3595C111.57 81.8095 105.03 91.7095 108.99 97.5395C109.85 98.7995 111.25 99.8895 112.88 99.7695C119.06 99.3195 124.94 94.8495 129.47 90.9095C133.63 87.2995 128.33 81.9195 124.02 83.8395C114.07 88.2695 105.02 94.1095 96.7502 101.19C98.8702 103.31 100.99 105.43 103.11 107.55C107.85 102.07 112.13 96.2595 115.91 90.0795C118.46 85.8995 113.57 82.2295 109.75 83.9195C100.89 87.8495 93.7402 94.4395 88.9102 102.82C91.5002 104.33 94.0902 105.85 96.6802 107.36C98.7302 103.45 99.7602 99.5595 99.8202 95.1395C99.8702 91.2795 94.8302 89.1395 92.1402 91.9595C88.3702 95.8895 84.7502 99.9495 81.2802 104.15C83.7902 105.61 86.2902 107.07 88.8002 108.53C90.8102 103.26 92.8202 97.9795 94.8302 92.7095C95.9802 89.6895 92.3702 85.8995 89.2902 87.1695C84.1502 89.2895 78.2302 90.2395 74.4502 94.6895C70.6402 99.1695 70.6602 105.52 73.6702 110.38C75.4202 113.21 79.7302 113.38 81.4402 110.38C83.4202 106.92 85.3702 103.44 87.2902 99.9495C89.5602 95.8295 85.1102 91.8695 81.1302 93.7895C76.0502 96.2495 74.0402 102.66 76.3402 107.74C78.8202 113.23 85.0502 115.63 90.7802 115.12C97.6202 114.5 104.47 110.49 110.17 106.87C115.83 103.28 121.19 98.7295 124.52 92.8095C128.09 86.4495 129.05 79.1295 129.07 71.9395C129.09 64.6095 128.87 56.5095 124.88 50.0995C121.06 43.9595 114.56 39.5695 109.05 35.0695C102.87 30.0295 96.8102 26.5995 88.5802 27.6595C71.0102 29.9095 57.2402 44.8095 48.3502 59.1395C46.0902 62.7795 50.7902 68.0195 54.5102 65.2995C60.5002 60.8995 66.1202 56.1195 71.3202 50.7995C68.9602 48.9795 66.6102 47.1595 64.2502 45.3495C59.9102 51.1795 54.6302 56.1595 48.6202 60.2395C43.8902 63.3995 48.3902 71.1995 53.2002 67.9395Z" fill="black"/>
<path d="M64.5805 63.4099C68.7889 63.4099 72.2005 59.9983 72.2005 55.7899C72.2005 51.5815 68.7889 48.1699 64.5805 48.1699C60.372 48.1699 56.9604 51.5815 56.9604 55.7899C56.9604 59.9983 60.372 63.4099 64.5805 63.4099Z" fill="white"/>
<path d="M112.63 68.2793C115.85 68.2793 115.85 63.2793 112.63 63.2793C109.41 63.2793 109.4 68.2793 112.63 68.2793Z" fill="white"/>
<path d="M111.7 62.3809C111.49 64.1909 110.99 65.9609 110.34 67.6509C109.86 68.9109 110.87 70.3909 112.09 70.7309C113.5 71.1209 114.68 70.2509 115.17 68.9809C115.98 66.8309 116.44 64.6509 116.71 62.3809C116.87 61.0409 115.45 59.8809 114.21 59.8809C112.72 59.8809 111.86 61.0409 111.7 62.3809Z" fill="black"/>
<path d="M108.93 64.5202C108.81 64.7902 108.68 65.0602 108.56 65.3202C107.45 67.7202 110.44 70.6102 112.49 68.3502C113.31 67.4402 114.39 66.2002 115.6 65.8202C114.96 65.7402 114.32 65.6502 113.67 65.5702C113.37 65.2502 113.35 65.3002 113.6 65.7302C113.76 66.1002 113.93 66.4602 114.1 66.8202C114.39 67.4202 114.69 68.0202 115 68.6102C115.59 69.7302 116.18 71.1402 117.12 72.0202C119.24 74.0002 121.33 72.1902 123.07 70.7902C125.58 68.7702 122.02 65.2602 119.53 67.2502C119.06 67.6302 118.64 67.9902 118.11 68.2802C118.75 68.2002 119.39 68.1102 120.04 68.0302C120.58 68.2302 119.6 66.6402 119.5 66.4402C119.12 65.7302 118.76 65.0202 118.41 64.2902C117.79 62.9802 117.37 61.6702 115.88 61.1202C113.36 60.1802 110.46 63.1302 108.94 64.8102C110.25 65.8202 111.56 66.8302 112.87 67.8402C112.99 67.5702 113.12 67.3002 113.24 67.0402C114.6 64.1402 110.29 61.6002 108.93 64.5202Z" fill="black"/>
<path d="M100.78 109.15C104.989 109.15 108.4 105.739 108.4 101.53C108.4 97.3217 104.989 93.9102 100.78 93.9102C96.572 93.9102 93.1604 97.3217 93.1604 101.53C93.1604 105.739 96.572 109.15 100.78 109.15Z" fill="white"/>
<path d="M114.2 86.3396C118.409 86.3396 121.82 82.928 121.82 78.7196C121.82 74.5112 118.409 71.0996 114.2 71.0996C109.992 71.0996 106.58 74.5112 106.58 78.7196C106.58 82.928 109.992 86.3396 114.2 86.3396Z" fill="white"/>
<path d="M84.1603 49.9295C88.3687 49.9295 91.7803 46.5179 91.7803 42.3095C91.7803 38.101 88.3687 34.6895 84.1603 34.6895C79.9519 34.6895 76.5403 38.101 76.5403 42.3095C76.5403 46.5179 79.9519 49.9295 84.1603 49.9295Z" fill="white"/>
<path d="M110.04 59.5994C114.249 59.5994 117.66 56.1878 117.66 51.9794C117.66 47.771 114.249 44.3594 110.04 44.3594C105.832 44.3594 102.42 47.771 102.42 51.9794C102.42 56.1878 105.832 59.5994 110.04 59.5994Z" fill="white"/>
<path d="M14.2704 53.1199C17.8104 62.7799 21.5204 73.1799 27.2104 81.8099C29.4804 85.2499 32.1104 89.7199 35.1304 92.4599C37.7704 94.8499 40.3404 92.4899 42.9804 91.0299C45.4904 89.6499 47.9704 88.5199 47.1704 85.2699C46.3204 81.8199 42.1904 78.2299 40.0604 75.5199C33.2004 66.8199 26.3104 58.1799 17.8004 51.0199C15.8404 49.3699 13.0004 52.1899 14.9704 53.8499C21.4104 59.2699 26.9604 65.5199 32.2304 72.0599C34.8004 75.2399 37.3104 78.4599 39.8404 81.6699C40.6104 82.6399 43.3704 85.2799 43.2604 86.3199C43.1804 86.9899 37.4504 89.5299 36.7604 89.7299C37.4104 89.8999 38.0604 90.0699 38.7104 90.2399C34.0304 86.4699 30.0104 79.2099 27.3704 73.8999C23.8504 66.8199 20.8504 59.4699 18.1404 52.0499C17.2504 49.6499 13.3904 50.6899 14.2704 53.1199Z" fill="black"/>
<path d="M42.9103 99.0799C46.2703 97.9299 49.1403 96.0499 51.4103 93.2999C50.3003 93.0099 49.1803 92.7099 48.0703 92.4199C48.6503 94.1499 49.2203 95.8799 49.8003 97.6099C50.4403 99.5299 51.2203 101.25 48.9603 102.41C49.4703 102.34 49.9903 102.28 50.5003 102.21C48.1303 101.42 45.6703 98.9199 44.2003 96.9899C42.6603 94.9699 39.1803 96.9599 40.7503 99.0099C42.2203 100.93 43.8803 102.56 45.8403 103.99C47.6003 105.27 49.5303 106.9 51.6403 105.48C53.3903 104.3 55.0903 102.32 54.7703 100.1C54.3503 97.1899 52.8703 94.1499 51.9403 91.3599C51.5103 90.0599 49.6203 89.2399 48.6003 90.4799C46.7703 92.6899 44.5903 94.2999 41.8603 95.2299C39.4203 96.0499 40.4603 99.9199 42.9103 99.0799Z" fill="black"/>
<path d="M53.8502 112.19C55.4202 111.2 57.2502 109.56 58.9802 108.93C58.4702 108.86 57.9502 108.8 57.4402 108.73C58.7702 109.75 59.9102 112.59 60.7102 114.07C61.8802 116.23 62.8602 118.45 63.7002 120.76C64.9202 120.25 66.1402 119.73 67.3602 119.22C65.9502 116.86 63.6002 116.52 61.2602 115.5C58.3802 114.24 56.1102 112.04 54.5202 109.36C53.2102 107.15 49.7502 109.16 51.0702 111.38C52.4702 113.74 54.2602 115.78 56.5102 117.37C57.6002 118.14 58.7502 118.76 59.9802 119.27C61.2102 119.78 63.1902 120.03 63.9202 121.25C65.0402 123.13 68.3702 121.9 67.5802 119.71C65.9902 115.34 63.9402 111.17 61.2802 107.35C60.4402 106.14 59.6102 104.77 57.9402 105.09C55.9202 105.47 53.5802 107.66 51.8502 108.75C49.6602 110.1 51.6602 113.56 53.8502 112.19Z" fill="black"/>
<path d="M20.4004 61.3903C22.9504 67.1203 26.5404 72.5002 29.3904 78.1202C31.4504 82.1902 34.0504 88.3403 38.1104 90.8703C38.9104 91.3703 39.8604 91.1203 40.5304 90.5603C41.7204 89.5603 42.8504 88.4602 44.0304 87.4202C44.5104 87.0002 44.7904 86.0902 44.5404 85.4702C43.2504 82.2302 39.3704 82.1602 37.8204 79.0302C36.6804 76.7202 33.2304 78.7502 34.3704 81.0502C35.2804 82.8902 36.3004 84.5502 37.5404 86.1802C38.7004 87.7102 41.1904 87.3002 41.2704 85.1702C41.5304 78.1902 37.1904 75.5103 32.9904 70.5503C31.6504 68.9703 29.1504 70.6702 29.6504 72.5002C30.4204 75.3302 31.4704 77.9202 32.8804 80.5002C34.0304 79.8302 35.1804 79.1502 36.3304 78.4802C34.1604 74.9702 30.9304 72.1102 29.4404 68.2202C28.3304 68.8702 27.2104 69.5202 26.1004 70.1702C27.5204 71.4002 28.8904 72.6603 30.2404 73.9803C32.0804 75.7803 34.9104 72.9602 33.0704 71.1502C31.7204 69.8302 30.3604 68.5802 28.9304 67.3402C27.5704 66.1602 24.8104 67.2602 25.5904 69.2902C27.2404 73.6102 30.4904 76.6302 32.8804 80.5102C34.2304 82.7002 37.5704 80.7602 36.3304 78.4902C35.0904 76.2202 34.1804 73.9403 33.5104 71.4503C32.4004 72.1003 31.2804 72.7502 30.1704 73.4002C33.3504 77.1502 37.4804 79.8602 37.2804 85.1902C38.5204 84.8502 39.7604 84.5202 41.0104 84.1802C39.7704 82.5402 38.7504 80.8902 37.8404 79.0502C36.6904 79.7202 35.5404 80.4002 34.3904 81.0702C34.9404 82.1902 35.4604 83.1803 36.4204 84.0203C37.3104 84.8103 40.2604 85.4302 40.7104 86.5502C40.8804 85.9002 41.0504 85.2502 41.2204 84.6002C40.0704 85.6102 38.8904 86.7502 37.7204 87.7402C38.5304 87.6402 39.3404 87.5302 40.1404 87.4302C36.0604 84.8802 33.4904 77.4002 31.4404 73.2802C29.0804 68.5602 26.0004 64.1802 23.8604 59.3702C22.8104 57.0202 19.3604 59.0603 20.4004 61.3903Z" fill="black"/>
<path d="M16.1605 52.4295C15.9905 51.6595 15.8205 50.8795 15.6605 50.1095C15.1005 50.4295 14.5505 50.7595 13.9905 51.0795C14.7405 51.6795 15.5005 52.2495 16.2905 52.7795C16.8205 53.1395 17.6105 52.7795 17.7605 52.1795C18.1205 50.7195 15.9805 48.4795 14.4805 48.9195C12.3205 49.5595 14.3005 52.5195 14.8405 53.6495C15.3905 54.8095 17.1205 53.7995 16.5705 52.6395C16.3605 52.1995 16.1505 51.7595 15.9505 51.3295C15.8505 51.1095 15.7405 50.8895 15.6405 50.6695C15.6105 50.5995 15.5705 50.5195 15.5405 50.4495C15.4605 50.1395 15.3605 50.2595 15.2305 50.8195C15.0505 50.8195 14.8805 50.8195 14.7005 50.8195C15.1605 50.9395 15.7905 51.5595 15.8805 52.0295C15.8805 51.8495 15.8805 51.6795 15.8805 51.4995C15.8705 51.5495 15.8605 51.5995 15.8405 51.6495C16.3305 51.4495 16.8205 51.2495 17.3105 51.0495C16.6605 50.6095 16.0205 50.1595 15.4105 49.6695C14.6405 49.0595 13.5105 49.6095 13.7405 50.6395C13.9105 51.4095 14.0805 52.1895 14.2405 52.9595C14.5005 54.2195 16.4305 53.6895 16.1605 52.4295Z" fill="black"/>
<path d="M13.3903 50.2195C13.2803 54.9795 15.7403 59.6795 17.5503 63.9995C19.2703 68.1095 21.2903 71.9295 24.0303 75.4495C24.8203 76.4595 26.2303 75.0395 25.4403 74.0395C22.8503 70.7195 21.0103 67.0895 19.3903 63.2295C17.7203 59.2695 15.2903 54.5795 15.3903 50.2195C15.4203 48.9295 13.4203 48.9295 13.3903 50.2195Z" fill="black"/>
<path d="M15.1003 50.7796C18.3703 53.4096 21.3103 56.3796 23.9203 59.6596C24.7203 60.6696 26.1303 59.2396 25.3303 58.2496C22.7203 54.9696 19.7803 51.9996 16.5103 49.3696C15.5203 48.5696 14.1003 49.9696 15.1003 50.7796Z" fill="black"/>
<path d="M42.1404 97.3494C41.4504 96.8594 40.9204 96.2194 40.5404 95.4494C40.3904 95.8294 40.2304 96.1994 40.0804 96.5794C41.0004 95.8694 42.4504 95.4694 43.4604 94.8594C44.8804 93.9994 46.2804 93.0494 47.5904 92.0394C48.8604 91.0594 49.3804 90.4794 50.4204 92.1594C51.3804 93.7094 51.9204 95.7494 52.6004 97.4294C52.9704 98.3394 54.6704 101.099 54.4604 101.999C54.2104 103.019 50.8704 104.999 49.7804 104.769C47.2704 104.259 44.3804 99.7494 42.8404 97.8394C42.0404 96.8394 40.6304 98.2594 41.4304 99.2494C43.2104 101.479 47.1804 107.439 50.6304 107.059C52.1104 106.889 54.1304 105.049 55.2104 104.019C56.6804 102.639 56.6104 102.129 55.9204 100.319C54.8104 97.3794 53.7004 94.3094 52.3204 91.4794C51.8404 90.4994 51.1004 88.6594 49.9404 88.3194C48.4404 87.8694 47.1704 89.8594 46.1504 90.6294C43.9604 92.2894 41.1704 93.2294 39.0704 94.8394C38.7004 95.1194 38.5004 95.4894 38.6104 95.9694C38.8804 97.0894 39.9004 98.0494 40.7204 98.7594C41.6904 99.5994 43.1104 98.1894 42.1404 97.3494Z" fill="black"/>
<path d="M47.5903 96.3091C48.8603 97.8991 49.8603 99.6591 50.5803 101.559C51.1403 101.239 51.6903 100.909 52.2503 100.589C51.0903 99.6591 50.4503 98.4491 49.8103 97.1391C49.4003 96.3091 48.2503 96.6391 47.9803 97.3791C47.3803 99.0591 47.5203 100.649 48.2503 102.259C48.7103 103.279 50.4903 102.549 50.0803 101.489C49.3103 99.4991 48.5403 97.5091 47.7603 95.5191C47.1503 95.7791 46.5403 96.0291 45.9303 96.2891C46.7703 98.1691 47.7503 99.9591 48.8903 101.679C49.0903 101.189 49.2903 100.699 49.4903 100.209C48.6203 100.409 47.4103 99.5291 46.6603 99.1291C46.2703 98.9191 44.4003 98.1191 44.2903 97.7691C44.2003 98.0891 44.1203 98.4191 44.0303 98.7391C44.0803 98.6891 45.4403 99.3191 45.4003 99.2991C45.9203 99.5991 46.3103 100.009 46.6403 100.499C47.0203 100.009 47.3903 99.5191 47.7703 99.0291C47.5903 98.9891 45.7403 98.4491 45.7403 98.3891C45.5003 98.7091 45.2503 99.0291 45.0103 99.3491C45.1903 99.3591 45.3703 99.3691 45.5503 99.3791C46.8103 99.6091 47.3503 97.6891 46.0803 97.4491C45.5503 97.3491 45.0003 97.2291 44.4803 97.4191C44.0603 97.5791 43.7503 97.9191 43.7503 98.3791C43.7303 99.8991 46.0703 100.709 47.2503 100.949C48.0403 101.099 48.9003 100.259 48.3803 99.4791C47.5503 98.2391 46.4003 97.3191 44.9303 96.9491C43.9903 96.7191 42.4003 96.6791 42.3303 98.0091C42.2703 99.3091 44.5303 100.219 45.4103 100.699C46.7703 101.449 48.4303 102.479 50.0303 102.119C50.6403 101.979 50.9803 101.179 50.6303 100.649C49.4903 98.9291 48.5103 97.1391 47.6703 95.2591C47.2103 94.2391 45.4303 94.9691 45.8403 96.0291C46.6103 98.0191 47.3803 100.009 48.1603 101.999C48.7703 101.739 49.3803 101.489 49.9903 101.229C49.4803 100.099 49.5103 99.0291 49.9203 97.8891C49.3103 97.9691 48.7003 98.0491 48.0903 98.1291C48.8003 99.5791 49.5603 100.959 50.8403 101.979C51.5203 102.529 52.9103 102.049 52.5103 101.009C51.6603 98.7591 50.5103 96.7591 49.0103 94.8791C48.2003 93.8891 46.7903 95.3191 47.5903 96.3091Z" fill="black"/>
<path d="M52.5103 110.61C54.4103 109.44 56.2203 108.13 57.9003 106.66C58.8503 105.82 58.8103 105.38 59.5203 106.57C60.2803 107.84 60.8403 109.18 61.2903 110.58C61.6803 111.8 63.6103 111.28 63.2203 110.05C62.6903 108.37 62.0103 106.75 61.0703 105.25C60.6503 104.58 60.1103 103.42 59.1703 103.34C58.1003 103.25 57.1803 104.63 56.4903 105.24C54.9303 106.6 53.2603 107.79 51.5003 108.87C50.4103 109.55 51.4103 111.28 52.5103 110.61Z" fill="black"/>
<path d="M50.4804 110.2C50.4404 112.34 51.2404 114.39 52.7904 115.88C54.7804 117.78 57.4204 117.95 60.0104 118.38C61.2704 118.59 61.8104 116.66 60.5404 116.45C58.6004 116.12 56.2804 116.06 54.6604 114.84C53.1904 113.73 52.4404 112.02 52.4804 110.2C52.5104 108.91 50.5104 108.91 50.4804 110.2Z" fill="black"/>
<path d="M50.7803 110.891C50.7903 113.741 51.9403 116.371 54.3203 118.021C55.4303 118.791 56.6603 119.251 57.9903 119.441C60.2603 119.761 62.0203 119.961 64.1103 121.131C65.2303 121.761 66.2403 120.031 65.1203 119.401C63.0903 118.271 61.4103 117.741 59.1103 117.531C55.4003 117.201 52.7903 114.711 52.7803 110.881C52.7703 109.611 50.7703 109.601 50.7803 110.891Z" fill="black"/>
<path d="M63.2204 120.649C64.1404 121.459 64.8304 122.439 65.2404 123.599C65.3804 123.989 65.9304 124.109 66.1504 123.719C66.8004 122.609 67.5404 121.579 67.6204 120.259C67.6604 119.619 66.6604 119.619 66.6204 120.259C66.5604 121.359 65.8304 122.289 65.2904 123.209C65.5904 123.249 65.9004 123.289 66.2004 123.329C65.7304 122.009 64.9804 120.859 63.9204 119.939C63.4404 119.519 62.7304 120.229 63.2204 120.649Z" fill="black"/>
<path d="M66.0204 121.33C65.8704 121.64 65.6904 121.92 65.4804 122.19C65.7904 122.27 66.1004 122.36 66.4104 122.44C66.3804 122.22 66.3704 122 66.4104 121.78C66.5204 121.15 65.5604 120.88 65.4504 121.51C65.4004 121.82 65.3704 122.12 65.4104 122.44C65.4704 122.95 66.0304 123.1 66.3404 122.69C66.5504 122.42 66.7304 122.13 66.8804 121.83C67.1704 121.26 66.3104 120.75 66.0204 121.33Z" fill="black"/>
<path d="M65.2603 123.261C65.2703 123.731 65.3403 124.151 65.4703 124.601C65.6103 125.091 66.2803 125.061 66.4303 124.601C66.9703 122.991 68.3503 120.621 67.0703 119.071C66.6603 118.571 65.9603 119.281 66.3603 119.781C66.9103 120.451 66.4603 121.381 66.2203 122.081C65.9703 122.831 65.7203 123.581 65.4703 124.331C65.7903 124.331 66.1103 124.331 66.4303 124.331C66.3303 123.971 66.2703 123.631 66.2603 123.251C66.2503 122.621 65.2503 122.621 65.2603 123.261Z" fill="black"/>
<path d="M62.0603 110.21C62.2203 110.35 62.3603 110.49 62.4503 110.69C62.6903 111.28 63.6603 111.02 63.4103 110.42C63.2603 110.06 63.0703 109.76 62.7703 109.5C62.2803 109.09 61.5603 109.8 62.0603 110.21Z" fill="black"/>
<path d="M59.9104 105.099C61.6704 107.929 62.8204 111.019 63.9304 114.139C64.1404 114.739 65.1104 114.479 64.8904 113.869C63.7504 110.669 62.5804 107.479 60.7704 104.589C60.4304 104.049 59.5704 104.549 59.9104 105.099Z" fill="black"/>
<path d="M61.4604 114.899C61.2804 115.119 61.1004 115.329 60.9204 115.549C61.2004 115.619 61.4804 115.699 61.7604 115.769C61.6804 115.369 61.6504 114.959 61.6704 114.549C61.6704 113.959 60.8804 113.909 60.6904 114.419C60.6004 114.659 60.5104 114.909 60.4204 115.149C60.7504 115.189 61.0704 115.239 61.4004 115.279C61.4704 114.429 61.6704 113.609 61.8904 112.789C62.0504 112.209 61.3004 111.969 60.9804 112.399C60.3904 113.199 59.8004 113.999 59.2104 114.799C59.5104 114.929 59.8204 115.059 60.1204 115.189C60.3104 114.489 60.5004 113.789 60.7104 113.099C60.3804 113.059 60.0604 113.009 59.7304 112.969C59.6904 113.729 59.6104 114.479 59.4804 115.239C59.8104 115.279 60.1304 115.329 60.4604 115.369C60.5704 114.379 60.7604 113.419 61.0204 112.459C61.1904 111.839 60.2304 111.579 60.0604 112.189C59.8404 112.939 59.6304 113.699 59.4104 114.449C59.7404 114.489 60.0604 114.539 60.3904 114.579C60.3604 113.539 60.3304 112.499 60.3004 111.459C60.2904 110.999 59.5804 110.729 59.3704 111.209C58.8804 112.299 58.5504 113.429 58.2604 114.589C58.5804 114.679 58.9004 114.769 59.2204 114.859C59.4004 113.719 59.6404 112.609 59.9404 111.489C59.6204 111.489 59.3004 111.489 58.9804 111.489C59.1804 112.359 59.2404 113.179 59.1904 114.059C59.5204 114.019 59.8404 113.969 60.1704 113.929C59.8204 112.619 59.6004 111.309 59.5104 109.959C59.4804 109.509 58.8104 109.219 58.5804 109.709C57.9204 111.089 57.5804 112.529 57.2904 114.019C57.6104 114.109 57.9304 114.199 58.2504 114.289C58.5104 112.849 58.7904 111.419 59.0904 109.999C58.7604 109.959 58.4404 109.909 58.1104 109.869C58.1104 111.399 58.1104 112.939 58.1104 114.469C58.1104 115.109 59.1104 115.109 59.1104 114.469C59.1204 113.349 59.1104 112.239 59.1004 111.119C59.0904 110.599 59.2304 109.869 58.7704 109.509C58.4904 109.299 58.0304 109.329 57.9304 109.729C57.6904 110.739 57.4604 111.749 57.2204 112.759C57.5504 112.799 57.8704 112.849 58.2004 112.889C58.1104 111.689 58.1404 110.519 58.3104 109.329C58.4004 108.709 57.4804 108.419 57.3504 109.059C57.0904 110.349 56.7604 111.609 56.3804 112.869C56.7004 112.959 57.0204 113.049 57.3404 113.139C57.6504 111.919 58.0104 110.719 58.4204 109.529C58.5404 109.189 58.1604 108.779 57.8004 108.909C56.8904 109.259 56.3804 110.369 55.9004 111.159C56.2104 111.239 56.5204 111.329 56.8304 111.409C56.9004 110.769 57.0204 110.189 57.1804 109.569C56.8604 109.479 56.5404 109.389 56.2204 109.299C56.0204 110.449 55.8604 111.599 55.7204 112.749C55.6604 113.309 56.5804 113.429 56.7004 112.879C56.9004 111.939 57.0204 111.009 57.0604 110.039C57.0804 109.509 56.3904 109.409 56.1304 109.789C55.7704 110.309 55.5104 110.829 55.3004 111.429C55.6204 111.429 55.9404 111.429 56.2604 111.429C56.1904 111.079 56.1204 110.739 56.0504 110.389C55.7304 110.479 55.4104 110.569 55.0904 110.659C55.3204 111.409 55.6304 112.059 56.0904 112.709C56.4604 113.229 57.3304 112.729 56.9504 112.209C56.5504 111.639 56.2604 111.069 56.0504 110.399C55.8604 109.779 54.9604 110.039 55.0904 110.669C55.1604 111.019 55.2304 111.359 55.3004 111.709C55.4004 112.229 56.1104 112.129 56.2604 111.709C56.4604 111.169 56.6704 110.779 56.9904 110.309C56.6804 110.229 56.3704 110.139 56.0604 110.059C56.0304 110.929 55.9204 111.779 55.7304 112.629C56.0604 112.669 56.3804 112.719 56.7104 112.759C56.8304 111.689 56.9904 110.629 57.1704 109.569C57.2804 108.949 56.3704 108.669 56.2104 109.299C56.0304 109.999 55.9104 110.689 55.8304 111.409C55.7704 111.929 56.5204 112.049 56.7604 111.659C57.0204 111.239 57.5704 110.059 58.0704 109.869C57.8604 109.659 57.6604 109.459 57.4504 109.249C57.0404 110.439 56.6804 111.639 56.3704 112.859C56.2104 113.489 57.1504 113.739 57.3304 113.129C57.7204 111.879 58.0404 110.609 58.3004 109.319C57.9804 109.229 57.6604 109.139 57.3404 109.049C57.1604 110.329 57.1004 111.589 57.2004 112.879C57.2404 113.409 58.0504 113.589 58.1804 113.009C58.4204 111.999 58.6504 110.989 58.8904 109.979C58.6104 110.049 58.3304 110.129 58.0504 110.199C58.2704 110.369 58.1004 112.069 58.1004 112.299C58.1004 113.019 58.1004 113.729 58.1004 114.449C58.4304 114.449 58.7704 114.449 59.1004 114.449C59.1004 112.919 59.1004 111.379 59.1004 109.849C59.1004 109.299 58.2404 109.149 58.1204 109.719C57.8104 111.149 57.5304 112.579 57.2804 114.009C57.1704 114.639 58.1204 114.909 58.2404 114.279C58.5204 112.879 58.8104 111.499 59.4304 110.209C59.1204 110.129 58.8104 110.039 58.5004 109.959C58.6004 111.399 58.8204 112.799 59.2004 114.199C59.3504 114.759 60.1504 114.619 60.1804 114.069C60.2404 113.089 60.1604 112.179 59.9404 111.229C59.8304 110.739 59.1004 110.759 58.9804 111.229C58.6804 112.339 58.4404 113.459 58.2604 114.599C58.1604 115.219 59.0604 115.499 59.2204 114.869C59.4904 113.799 59.7704 112.739 60.2304 111.729C59.9204 111.649 59.6104 111.559 59.3004 111.479C59.3304 112.519 59.3604 113.559 59.3904 114.599C59.4104 115.159 60.2104 115.279 60.3704 114.729C60.5904 113.979 60.8004 113.219 61.0204 112.469C60.7004 112.379 60.3804 112.289 60.0604 112.199C59.7804 113.249 59.5904 114.289 59.4704 115.369C59.4104 115.929 60.3604 116.059 60.4504 115.499C60.5904 114.659 60.6904 113.819 60.7304 112.969C60.7604 112.399 59.9004 112.309 59.7504 112.839C59.5504 113.529 59.3504 114.229 59.1604 114.929C59.0004 115.509 59.7504 115.749 60.0704 115.319C60.6604 114.519 61.2504 113.719 61.8404 112.919C61.5404 112.789 61.2304 112.659 60.9304 112.529C60.6804 113.449 60.4804 114.339 60.4004 115.289C60.3504 115.889 61.2004 115.919 61.3804 115.419C61.4704 115.179 61.5604 114.929 61.6504 114.689C61.3204 114.649 61.0004 114.599 60.6704 114.559C60.6704 115.069 60.7104 115.549 60.7904 116.049C60.8504 116.409 61.4004 116.549 61.6304 116.269C61.8104 116.049 61.9904 115.839 62.1704 115.619C62.5704 115.119 61.8704 114.409 61.4604 114.899Z" fill="black"/>
<path d="M57.4803 104.25C61.0703 106.38 62.6603 109.44 64.5103 113.03C66.4603 116.8 67.9603 120.82 66.6203 125.05C66.4303 125.66 67.3903 125.93 67.5803 125.32C68.9003 121.14 67.6403 117.06 65.7503 113.27C63.7303 109.23 61.9703 105.75 57.9803 103.38C57.4303 103.05 56.9203 103.92 57.4803 104.25Z" fill="white"/>
<path d="M63.0303 106.531C62.3303 105.581 61.5703 104.691 60.7503 103.851C60.3403 103.441 59.7103 103.961 59.9603 104.461C60.2403 105.001 60.6103 105.471 60.8703 106.031C61.0903 106.521 61.3203 106.961 61.7103 107.331C61.9503 107.091 62.1803 106.861 62.4203 106.621C61.2803 105.551 60.1903 104.431 59.1303 103.271C58.9703 103.551 58.8103 103.831 58.6403 104.111C59.1703 104.251 59.6803 104.421 60.1803 104.641C60.7603 104.891 61.2503 104.121 60.6803 103.781C60.3103 103.561 59.9503 103.331 59.5803 103.111C59.0303 102.771 58.5303 103.641 59.0803 103.971C59.4503 104.191 59.8103 104.421 60.1803 104.641C60.3503 104.351 60.5203 104.061 60.6803 103.781C60.1003 103.531 59.5103 103.311 58.9003 103.151C58.4003 103.021 58.0803 103.621 58.4103 103.991C59.4603 105.151 60.5603 106.261 61.7003 107.341C62.1703 107.781 62.8803 107.081 62.4103 106.631C62.0203 106.261 61.8503 105.801 61.6303 105.331C61.4003 104.851 61.0603 104.441 60.8103 103.971C60.5503 104.171 60.2903 104.371 60.0203 104.581C60.7903 105.361 61.5003 106.181 62.1503 107.061C62.5503 107.541 63.4203 107.041 63.0303 106.531Z" fill="white"/>
<path d="M50.0804 108.85C49.8304 111.88 50.2604 114.8 51.4104 117.62C51.6504 118.21 52.6204 117.95 52.3704 117.35C51.2604 114.61 50.8304 111.79 51.0804 108.84C51.1404 108.21 50.1404 108.21 50.0804 108.85Z" fill="white"/>
<path d="M58.1404 103.409C57.5604 103.299 57.0004 103.379 56.5104 103.729C55.9904 104.099 56.4904 104.969 57.0104 104.589C57.2704 104.399 57.5404 104.309 57.8704 104.369C58.5004 104.489 58.7704 103.529 58.1404 103.409Z" fill="white"/>
<path d="M50.8504 107.99C53.2704 106.68 55.4104 104.99 57.2404 102.93C57.6704 102.45 56.9604 101.74 56.5304 102.22C54.7504 104.21 52.6904 105.85 50.3404 107.12C49.7804 107.43 50.2804 108.29 50.8504 107.99Z" fill="white"/>
<path d="M37.7203 95.97C40.8703 100.4 44.7803 106.11 49.9803 108.24C50.5803 108.48 50.8303 107.52 50.2503 107.28C45.4203 105.3 41.5003 99.57 38.5903 95.47C38.2103 94.94 37.3503 95.44 37.7203 95.97Z" fill="white"/>
<path d="M38.6705 95.8991C38.7605 95.4091 38.9805 94.9791 39.3905 94.6791C39.9005 94.2991 39.4005 93.4291 38.8905 93.8191C38.2705 94.2791 37.8505 94.8791 37.7105 95.6391C37.5905 96.2691 38.5605 96.5391 38.6705 95.8991Z" fill="white"/>
<path d="M39.0604 94.9809C40.7104 93.8009 42.6704 93.1209 44.3904 92.0409C46.3004 90.8309 47.9604 89.2209 50.0604 88.3309C50.6404 88.0909 50.3904 87.1209 49.7904 87.3709C47.8004 88.2009 46.2504 89.6009 44.4704 90.7909C42.5804 92.0609 40.3904 92.8109 38.5504 94.1209C38.0304 94.4809 38.5304 95.3509 39.0604 94.9809Z" fill="white"/>
<path d="M49.8602 88.2302C51.5502 90.0602 52.2402 92.4902 53.2802 94.7102C54.5702 97.4602 55.7702 100.38 56.4602 103.34C56.6102 103.97 57.5702 103.7 57.4202 103.07C56.7102 100.02 55.4702 97.0302 54.1402 94.2002C53.0302 91.8402 52.3702 89.4602 50.5702 87.5102C50.1302 87.0502 49.4202 87.7602 49.8602 88.2302Z" fill="white"/>
<path d="M57.1503 102.91C57.2103 102.48 57.1903 102.08 57.1303 101.64C57.0403 101.01 56.0803 101.28 56.1703 101.91C56.2203 102.24 56.2003 102.58 56.1603 102.91C56.0603 103.54 57.0703 103.54 57.1503 102.91Z" fill="white"/>
<path d="M47.1203 87.7507C43.7703 90.2307 40.1403 92.1107 36.1603 93.3707C35.5503 93.5607 35.8103 94.5307 36.4303 94.3307C40.4803 93.0507 44.2103 91.1407 47.6303 88.6107C48.1403 88.2307 47.6403 87.3607 47.1203 87.7507Z" fill="white"/>
<path d="M45.5904 83.9297C46.0004 84.3797 46.3304 84.8697 46.5604 85.4397C46.8604 86.1597 47.0904 86.7097 46.2404 87.0997C45.6504 87.3697 46.1604 88.2297 46.7404 87.9597C47.6004 87.5697 48.0804 87.0097 47.8104 86.0597C47.5104 84.9897 47.0404 84.0497 46.2804 83.2297C45.8704 82.7397 45.1604 83.4497 45.5904 83.9297Z" fill="black"/>
<path d="M46.5904 83.5503C46.4704 83.4103 46.3604 83.2703 46.2404 83.1303C45.8604 82.6803 45.2004 83.2503 45.4504 83.7403C45.4804 83.8103 45.5204 83.8803 45.5704 83.9403C45.9404 84.4603 46.8104 83.9603 46.4304 83.4403C46.3804 83.3803 46.3404 83.3103 46.3104 83.2403C46.0504 83.4403 45.7904 83.6403 45.5204 83.8503C45.6404 83.9903 45.7504 84.1303 45.8704 84.2703C46.3004 84.7503 47.0004 84.0403 46.5904 83.5503Z" fill="black"/>
<path d="M46.6604 83.7996C46.5504 83.4796 46.4104 83.2296 46.2004 82.9696C45.8004 82.4596 45.1004 83.1796 45.4904 83.6796C45.5804 83.7996 45.6404 83.9296 45.6904 84.0696C45.9004 84.6696 46.8604 84.4096 46.6604 83.7996Z" fill="black"/>
<path d="M36.2002 93.2102C37.3002 94.1002 38.4702 93.4702 39.5702 92.8202C41.1502 91.8902 42.5402 90.6102 43.9502 89.4602C44.4502 89.0502 43.7402 88.3502 43.2402 88.7502C42.3002 89.5202 38.2202 93.5702 36.9002 92.5102C36.4102 92.1002 35.6902 92.8102 36.2002 93.2102Z" fill="black"/>
<path d="M14.7303 49.0602C10.9803 48.7602 14.3903 55.7402 15.0803 57.2402C15.3503 57.8302 16.2103 57.3202 15.9403 56.7402C15.6303 56.0502 12.9403 49.9202 14.7303 50.0702C15.3703 50.1102 15.3703 49.1102 14.7303 49.0602Z" fill="black"/>
</svg>
