<svg width="150" height="150" viewBox="0 0 150 150" fill="none" xmlns="http://www.w3.org/2000/svg">
<path d="M117.82 101.54H15.0598C13.4098 101.54 12.0798 100.21 12.0798 98.5601V43.3101C12.0798 41.6601 13.4098 40.3301 15.0598 40.3301H117.82C119.47 40.3301 120.8 41.6601 120.8 43.3101V98.5701C120.8 100.21 119.46 101.54 117.82 101.54Z" fill="black"/>
<path d="M116.8 125.7H89.6997C87.4897 125.7 85.6997 123.91 85.6997 121.7V100.15C85.6997 97.9404 87.4897 96.1504 89.6997 96.1504H116.8C119.01 96.1504 120.8 97.9404 120.8 100.15V121.7C120.8 123.91 119.01 125.7 116.8 125.7Z" fill="black"/>
<path d="M88.6998 122.17C85.2598 113.72 83.4498 104.57 76.9798 97.7598C75.6498 96.3598 73.5298 98.4797 74.8598 99.8797C80.9298 106.28 82.5798 115.04 85.8098 122.96C86.5298 124.73 89.4298 123.96 88.6998 122.17Z" fill="black"/>
<path d="M79.0598 100.93C81.3798 105.63 84.9098 109.79 85.7098 115.1C86.5498 114.61 87.3798 114.13 88.2198 113.64C85.3998 111.16 85.2498 104.79 84.7398 101.32C83.8298 101.71 82.9098 102.09 81.9998 102.48C82.7598 104.2 83.5798 105.88 84.4898 107.52C85.1998 108.8 87.3398 108.25 87.2898 106.76C87.2098 104.6 86.8398 102.62 86.0998 100.58C85.4498 98.7898 82.6198 99.5098 83.2098 101.38C83.6798 102.88 84.2498 104.3 84.9198 105.72C85.7398 107.46 88.3298 105.94 87.5098 104.21C86.9398 103 86.4998 101.85 86.0998 100.59C85.1398 100.86 84.1698 101.12 83.2098 101.39C83.8598 103.16 84.2198 104.88 84.2998 106.77C85.2298 106.52 86.1598 106.27 87.0998 106.01C86.1898 104.36 85.3598 102.69 84.6098 100.97C83.8698 99.2698 81.6498 100.61 81.8698 102.13C82.4798 106.31 82.6998 112.77 86.1198 115.78C87.3098 116.83 88.8498 115.79 88.6298 114.32C87.7898 108.74 84.1098 104.36 81.6798 99.4298C80.7998 97.6898 78.2098 99.1998 79.0598 100.93Z" fill="black"/>
<path d="M75.8198 101.03C78.7398 105.85 80.3798 111.18 82.5598 116.34C83.7398 119.11 85.2398 124.25 88.6298 124.92C90.5198 125.29 91.3198 122.4 89.4298 122.03C86.3398 121.42 84.0798 112.08 83.1298 109.61C81.7798 106.12 80.3498 102.72 78.4098 99.5202C77.4098 97.8702 74.8198 99.3802 75.8198 101.03Z" fill="black"/>
<path d="M76.1498 101.591C78.5998 106.961 80.1298 112.561 82.3898 117.981C83.7698 121.281 85.2098 124.971 89.0098 125.721C90.8998 126.091 91.6998 123.201 89.8098 122.831C85.4698 121.971 84.0198 113.641 82.9098 110.221C81.7698 106.721 80.2698 103.421 78.7398 100.081C77.9398 98.321 75.3598 99.841 76.1498 101.591Z" fill="black"/>
<path d="M6.20996 41.5605V100.401" stroke="black" stroke-width="3" stroke-miterlimit="10"/>
<path d="M6.2098 43.1406C8.1398 43.1406 8.1398 40.1406 6.2098 40.1406C4.2798 40.1406 4.2698 43.1406 6.2098 43.1406Z" fill="black"/>
<path d="M6.2098 43.0996C8.1398 43.0996 8.1398 40.0996 6.2098 40.0996C4.2798 40.0996 4.2698 43.0996 6.2098 43.0996Z" fill="black"/>
<path d="M7.65989 41.2099C7.64989 41.1899 7.64989 41.1599 7.63989 41.1399C7.40989 40.3599 6.58989 39.8699 5.78989 40.0899C5.01989 40.2999 4.50989 41.1599 4.73989 41.9399C4.74989 41.9599 4.74989 41.9899 4.75989 42.0099C4.98989 42.7899 5.80989 43.2799 6.60989 43.0599C7.38989 42.8399 7.89989 41.9899 7.65989 41.2099Z" fill="black"/>
<path d="M7.64997 100.631C7.64997 100.611 7.65997 100.601 7.65997 100.581C7.79997 99.8105 7.44997 98.9305 6.60997 98.7305C5.86997 98.5605 4.91997 98.9505 4.75997 99.7805C4.75997 99.8005 4.74997 99.8105 4.74997 99.8305C4.60997 100.601 4.95997 101.481 5.79997 101.681C6.53997 101.841 7.49997 101.451 7.64997 100.631Z" fill="black"/>
<path d="M6.21981 101.73C8.14981 101.73 8.14981 98.7305 6.21981 98.7305C4.28981 98.7305 4.27981 101.73 6.21981 101.73Z" fill="black"/>
<path d="M6.2098 101.74C8.1398 101.74 8.1398 98.7402 6.2098 98.7402C4.2798 98.7402 4.2698 101.74 6.2098 101.74Z" fill="black"/>
<path d="M6.2098 101.711C8.1398 101.711 8.1398 98.7109 6.2098 98.7109C4.2798 98.7109 4.2698 101.711 6.2098 101.711Z" fill="black"/>
<path d="M6.2098 101.721C8.1398 101.721 8.1398 98.7207 6.2098 98.7207C4.2798 98.7207 4.2698 101.721 6.2098 101.721Z" fill="black"/>
<path d="M6.2098 101.73C8.1398 101.73 8.1398 98.7305 6.2098 98.7305C4.2798 98.7305 4.2698 101.73 6.2098 101.73Z" fill="black"/>
<path d="M6.19979 101.74C8.12979 101.74 8.12979 98.7402 6.19979 98.7402C4.26979 98.7402 4.25979 101.74 6.19979 101.74Z" fill="black"/>
<path d="M6.19979 101.74C8.12979 101.74 8.12979 98.7402 6.19979 98.7402C4.26979 98.7402 4.25979 101.74 6.19979 101.74Z" fill="black"/>
<path d="M6.18001 101.74C8.11001 101.74 8.11001 98.7402 6.18001 98.7402C4.25001 98.7402 4.24001 101.74 6.18001 101.74Z" fill="black"/>
<path d="M14.53 70.9795L6.20996 70.9395" stroke="black" stroke-width="3" stroke-miterlimit="10"/>
<path d="M91.4598 46.0402H41.4198C39.8198 46.0402 38.5298 44.7402 38.5298 43.1502V31.5502C38.5298 29.9502 39.8298 28.6602 41.4198 28.6602H91.4598C93.0598 28.6602 94.3498 29.9602 94.3498 31.5502V43.1502C94.3498 44.7502 93.0598 46.0402 91.4598 46.0402Z" fill="black" stroke="black" stroke-width="3" stroke-miterlimit="10"/>
<path d="M126.37 92.9695H121.75C119.87 92.9695 118.35 91.4495 118.35 89.5695V74.3394C118.35 72.4594 119.87 70.9395 121.75 70.9395H126.37C128.25 70.9395 129.77 72.4594 129.77 74.3394V89.5695C129.77 91.4495 128.25 92.9695 126.37 92.9695Z" fill="black" stroke="black" stroke-width="3" stroke-miterlimit="10"/>
<path d="M135.64 105.871H133.53C131.09 105.871 129.12 103.891 129.12 101.461V62.4608C129.12 60.0208 131.1 58.0508 133.53 58.0508H135.64C138.08 58.0508 140.05 60.0308 140.05 62.4608V101.461C140.06 103.891 138.08 105.871 135.64 105.871Z" fill="black" stroke="black" stroke-width="3" stroke-miterlimit="10"/>
<path d="M137.78 60.6094C142.2 65.4294 142 74.6194 142.12 80.7494C142.26 87.8794 141.2 94.8594 138.3 101.409C137.52 103.159 140.11 104.689 140.89 102.919C144.28 95.2694 145.44 87.1694 145.06 78.8394C144.76 72.2194 144.64 63.6494 139.91 58.4894C138.6 57.0594 136.48 59.1894 137.78 60.6094Z" fill="black"/>
<path d="M139.15 70.6093C140.45 73.3093 140.22 77.2793 140.34 80.2293C140.47 83.5193 140.3 86.7293 139.66 89.9593C139.29 91.8493 142.18 92.6493 142.55 90.7593C143.34 86.7793 143.5 82.8093 143.26 78.7693C143.07 75.5793 143.14 72.0193 141.74 69.0993C140.9 67.3593 138.31 68.8793 139.15 70.6093Z" fill="black"/>
<path d="M140.92 104.299C143.41 100.689 143.62 95.7193 144.13 91.4893C144.36 89.5793 141.36 89.5893 141.13 91.4893C140.69 95.1593 140.49 99.6493 138.33 102.789C137.24 104.379 139.84 105.879 140.92 104.299Z" fill="black"/>
<path d="M143.46 97.0108C144.56 92.4508 145.03 87.8408 144.83 83.1508C144.75 81.2308 141.75 81.2208 141.83 83.1508C142.02 87.5808 141.61 91.9008 140.57 96.2108C140.11 98.0908 143.01 98.8908 143.46 97.0108Z" fill="black"/>
<path d="M140.51 65.1692C145.94 76.5292 144.01 89.4392 139.14 100.519C138.37 102.269 140.96 103.799 141.73 102.029C147.07 89.8692 149.04 76.0692 143.1 63.6492C142.27 61.9192 139.68 63.4392 140.51 65.1692Z" fill="black"/>
<path d="M143.76 80.6695C143.76 87.8395 142.46 95.8095 138.35 101.799C137.25 103.399 139.85 104.899 140.94 103.309C145.35 96.8895 146.76 88.3395 146.76 80.6595C146.76 78.7395 143.76 78.7395 143.76 80.6695Z" fill="black"/>
<path d="M141.14 104.091C144.94 97.7206 146.75 90.6506 146.44 83.2406C146.36 81.3206 143.36 81.3106 143.44 83.2406C143.73 90.1606 142.11 96.6206 138.55 102.571C137.56 104.231 140.15 105.751 141.14 104.091Z" fill="black"/>
<path d="M92.5499 20.8897H40.3299C39.2499 20.8897 38.3799 20.0197 38.3799 18.9397V18.8797C38.3799 17.7997 39.2499 16.9297 40.3299 16.9297H92.5399C93.6199 16.9297 94.4899 17.7997 94.4899 18.8797V18.9397C94.4899 20.0197 93.6199 20.8897 92.5499 20.8897Z" fill="black" stroke="black" stroke-miterlimit="10"/>
<path d="M52.6799 27.6592V20.4492" stroke="black" stroke-width="3" stroke-miterlimit="10"/>
<path d="M79.6799 28.1106V20.8906" stroke="black" stroke-width="3" stroke-miterlimit="10"/>
<path d="M47.75 64.4793L81.34 33.5293" stroke="white" stroke-width="0.75" stroke-miterlimit="10"/>
<path d="M43.5601 91.6209L77.8301 59.1309" stroke="white" stroke-width="0.75" stroke-miterlimit="10"/>
<path d="M47.71 64.9395L55.68 65.1294" stroke="white" stroke-width="0.75" stroke-miterlimit="10"/>
<path d="M70.1699 58.6805L77.4499 58.5605" stroke="white" stroke-width="0.75" stroke-miterlimit="10"/>
<path d="M43.6799 90.4691L56.7699 67.6191" stroke="white" stroke-width="0.75" stroke-miterlimit="10"/>
<path d="M80.6399 35.1309L68.3899 55.3009" stroke="white" stroke-width="0.25" stroke-miterlimit="10"/>
<path d="M47.5 64.1896C47.19 64.4196 46.89 64.6696 46.6 64.9396C46.52 65.0196 46.58 65.1496 46.69 65.1496C47.04 65.1596 47.38 65.1996 47.72 65.2496C47.88 65.2796 47.95 65.0296 47.79 65.0096C47.42 64.9496 47.06 64.9096 46.69 64.8996C46.72 64.9696 46.75 65.0396 46.78 65.1096C47.05 64.8596 47.33 64.6196 47.63 64.3996C47.76 64.3096 47.63 64.0896 47.5 64.1896Z" fill="white"/>
<path d="M46.5301 65.0809C46.5301 65.1009 46.5301 65.1109 46.5301 65.1309C46.5301 65.1909 46.5701 65.2309 46.6201 65.2509C46.9401 65.3709 47.3501 65.2809 47.6901 65.3309C47.8501 65.3509 47.9201 65.1109 47.7601 65.0909C47.6601 65.0709 46.7801 64.9809 46.7801 65.0809C46.7701 64.9209 46.5201 64.9209 46.5301 65.0809Z" fill="white"/>
<path d="M47.4799 64.7504C47.4799 64.8004 47.4799 64.8504 47.4799 64.8904C47.4799 65.0204 47.6399 65.0504 47.7099 64.9504C47.7799 64.8704 47.8299 64.7904 47.8799 64.6904C47.8099 64.6504 47.7399 64.6104 47.6599 64.5604C47.6099 64.6804 47.5499 64.7904 47.4799 64.9004C47.5599 64.9304 47.6299 64.9604 47.7099 65.0004C47.7399 64.8504 47.7799 64.7204 47.8299 64.5704C47.7499 64.5604 47.6699 64.5504 47.5799 64.5404C47.5399 64.6604 47.5099 64.7804 47.4699 64.8904C47.5499 64.9104 47.6299 64.9304 47.6999 64.9504C47.6999 64.7404 47.7699 64.5404 47.8299 64.3404C47.8699 64.2104 47.6599 64.1104 47.5999 64.2404C47.4999 64.4404 47.3999 64.6404 47.2899 64.8404C47.3699 64.8504 47.4399 64.8604 47.5199 64.8704C47.5599 64.8004 47.5999 64.7304 47.6399 64.6604C47.5699 64.6104 47.5099 64.5604 47.4399 64.5104C47.4399 64.6104 47.4399 64.7104 47.4499 64.8104C47.4099 64.7404 47.3699 64.6704 47.3299 64.6004C47.1999 64.7604 47.0399 64.8004 46.8399 64.8304C46.8699 64.9104 46.8999 64.9804 46.9399 65.0604C47.0499 64.9504 47.1799 64.8904 47.3399 64.8704C47.2999 64.8004 47.2599 64.7304 47.2199 64.6604C47.1899 64.6904 47.1699 64.7204 47.1399 64.7504C47.0299 64.8704 47.2099 65.0504 47.3199 64.9304C47.3499 64.9004 47.3699 64.8704 47.3999 64.8404C47.4799 64.7504 47.3999 64.6004 47.2799 64.6304C47.0999 64.6704 46.9799 64.7304 46.8199 64.8504C46.7099 64.9404 46.7699 65.1004 46.9199 65.0804C47.1599 65.0404 47.3599 64.9704 47.5199 64.7804C47.5999 64.6804 47.5299 64.5504 47.3999 64.5704C47.1999 64.6104 47.0399 64.7704 47.1299 64.9804C47.1499 65.0304 47.2199 65.0504 47.2699 65.0404C47.4599 65.0104 47.5899 64.8004 47.6799 64.6404C47.7399 64.5204 47.5799 64.3804 47.4799 64.4904C47.3499 64.6304 47.2499 64.7504 47.2899 64.9404C47.3099 65.0504 47.4599 65.0604 47.5199 64.9704C47.6399 64.7804 47.7399 64.5804 47.8299 64.3704C47.7499 64.3404 47.6799 64.3104 47.5999 64.2704C47.5299 64.5004 47.4599 64.7104 47.4599 64.9504C47.4599 65.0704 47.6299 65.1204 47.6899 65.0104C47.7799 64.8504 47.8199 64.7104 47.8399 64.5304C47.8499 64.3804 47.6399 64.3704 47.5899 64.5004C47.5399 64.6404 47.4999 64.7804 47.4699 64.9304C47.4399 65.0604 47.6199 65.1504 47.6999 65.0304C47.7699 64.9204 47.8199 64.8104 47.8799 64.6904C47.9499 64.5504 47.7399 64.4204 47.6599 64.5604C47.6199 64.6504 47.5599 64.7404 47.4899 64.8204C47.5699 64.8404 47.6499 64.8604 47.7199 64.8804C47.7199 64.8304 47.7199 64.7804 47.7199 64.7404C47.7199 64.5904 47.4699 64.5904 47.4799 64.7504Z" fill="white"/>
<path d="M55.61 65.4699C56.33 65.9899 56.61 66.8099 56.4 67.6699C56.36 67.8299 56.6 67.8899 56.64 67.7399C56.88 66.7699 56.55 65.8399 55.74 65.2599C55.61 65.1599 55.48 65.3799 55.61 65.4699Z" fill="white"/>
<path d="M43.3699 90.3199C42.9899 91.2799 42.5199 92.1999 41.9599 93.0799C41.8799 93.1999 42.0499 93.3199 42.1599 93.2299C42.7299 92.7199 43.2899 92.2099 43.8599 91.6999C43.9799 91.5899 43.7999 91.4199 43.6799 91.5199C43.1099 92.0299 42.5499 92.5399 41.9799 93.0499C42.0499 93.0999 42.1099 93.1499 42.1799 93.1999C42.7399 92.3099 43.2199 91.3699 43.6099 90.3799C43.6699 90.2399 43.4299 90.1799 43.3699 90.3199Z" fill="white"/>
<path d="M43.6701 91.6799C43.1701 92.1999 42.6201 92.6599 42.0201 93.0599C41.8901 93.1499 42.0101 93.3699 42.1501 93.2799C42.7701 92.8699 43.3301 92.3999 43.8501 91.8699C43.9601 91.7399 43.7801 91.5699 43.6701 91.6799Z" fill="white"/>
<path d="M42.81 92.6195C43.06 92.2595 43.38 91.9795 43.55 91.5695C43.61 91.4295 43.4 91.3695 43.32 91.4695C43.16 91.6895 42.99 91.9195 42.83 92.1395C42.74 92.2595 42.93 92.3695 43.03 92.2895C43.24 92.1195 43.44 91.9395 43.63 91.7395C43.73 91.6395 43.6 91.4595 43.48 91.5395C43.26 91.6895 43.06 91.8595 42.88 92.0495C42.95 92.0895 43.02 92.1295 43.09 92.1695C43.17 91.9495 43.26 91.7395 43.36 91.5395C43.29 91.4995 43.22 91.4595 43.14 91.4095C42.97 91.7695 42.78 92.1095 42.57 92.4495C42.48 92.5895 42.69 92.6995 42.79 92.5795C43.22 91.9695 43.57 91.3195 43.83 90.6195C43.88 90.4795 43.68 90.4195 43.6 90.5195C43.41 90.7895 43.25 91.0595 43.12 91.3595C43.2 91.3895 43.27 91.4195 43.35 91.4595C43.47 91.0695 43.61 90.6995 43.78 90.3295C43.7 90.3095 43.62 90.2895 43.55 90.2695C43.52 90.5295 43.49 90.7795 43.45 91.0295C43.43 91.1595 43.6 91.2495 43.68 91.1295C43.8 90.9395 43.91 90.7595 44.03 90.5695C43.95 90.5395 43.88 90.5095 43.8 90.4695C43.76 90.6595 43.73 90.8495 43.69 91.0395C43.66 91.1695 43.86 91.2695 43.92 91.1395C43.99 90.9695 44.01 90.9395 44.06 90.7595C44.11 90.6095 43.86 90.5395 43.82 90.6895C43.78 90.7995 43.74 90.8995 43.71 91.0095C43.79 91.0395 43.86 91.0695 43.94 91.1095C43.98 90.9195 44.01 90.7295 44.05 90.5395C44.08 90.3995 43.9 90.3195 43.82 90.4395C43.7 90.6295 43.59 90.8095 43.47 90.9995C43.55 91.0295 43.62 91.0595 43.7 91.0995C43.74 90.8195 43.78 90.5495 43.81 90.2695C43.82 90.1495 43.63 90.0995 43.58 90.2095C43.41 90.5995 43.26 90.9995 43.13 91.3995C43.09 91.5295 43.3 91.6295 43.36 91.4995C43.49 91.1995 43.65 90.9295 43.84 90.6595C43.76 90.6295 43.69 90.5995 43.61 90.5595C43.36 91.2395 43.02 91.8695 42.6 92.4595C42.67 92.4995 42.74 92.5395 42.82 92.5895C43.03 92.2495 43.22 91.9095 43.39 91.5495C43.46 91.4095 43.25 91.2795 43.17 91.4195C43.05 91.6495 42.96 91.8695 42.87 92.1095C42.83 92.2295 43 92.3195 43.08 92.2295C43.25 92.0495 43.43 91.8995 43.63 91.7595C43.58 91.6895 43.53 91.6295 43.48 91.5595C43.29 91.7495 43.09 91.9395 42.88 92.1095C42.95 92.1595 43.01 92.2095 43.08 92.2595C43.24 92.0395 43.41 91.8095 43.57 91.5895C43.49 91.5595 43.42 91.5295 43.34 91.4895C43.18 91.8695 42.86 92.1495 42.63 92.4795C42.5 92.6195 42.71 92.7495 42.81 92.6195Z" fill="white"/>
<path d="M43.47 90.2407C43.45 90.2607 43.43 90.2808 43.41 90.3008C43.3 90.4108 43.47 90.5908 43.59 90.4808C43.61 90.4608 43.63 90.4407 43.65 90.4207C43.76 90.3007 43.58 90.1207 43.47 90.2407Z" fill="white"/>
<path d="M42.22 93.1401C42.38 92.7301 42.67 92.3601 42.88 91.9701C43.07 91.6101 43.25 91.2401 43.42 90.8601C43.48 90.7101 43.27 90.5901 43.2 90.7301C43 91.1701 42.8 91.5901 42.58 92.0001C42.39 92.3601 42.13 92.7001 41.98 93.0801C41.92 93.2301 42.16 93.2901 42.22 93.1401Z" fill="white"/>
<path d="M43.36 90.2794C43.15 90.7494 42.95 91.2294 42.77 91.7194C42.71 91.8694 42.95 91.9394 43.01 91.7894C43.19 91.3194 43.37 90.8594 43.58 90.4094C43.64 90.2594 43.43 90.1294 43.36 90.2794Z" fill="white"/>
<path d="M42.2001 93.1498C42.2901 92.7398 42.5901 92.3298 42.8001 91.9698C43.0201 91.5898 43.2401 91.2198 43.4701 90.8498C43.5601 90.7098 43.3401 90.5898 43.2501 90.7198C42.9901 91.1398 42.7301 91.5698 42.4901 92.0098C42.3001 92.3498 42.0501 92.7098 41.9601 93.0898C41.9301 93.2398 42.1701 93.3098 42.2001 93.1498Z" fill="white"/>
<path d="M42.1999 93.1691C42.1899 92.6791 42.6499 92.0892 42.8899 91.6892C43.1299 91.2792 43.3299 90.8591 43.5899 90.4591C43.6799 90.3191 43.4599 90.1992 43.3699 90.3292C43.0499 90.8292 42.7799 91.3691 42.4799 91.8791C42.2599 92.2491 41.9399 92.7191 41.9499 93.1691C41.9499 93.3291 42.1999 93.3291 42.1999 93.1691Z" fill="white"/>
<path d="M77.4401 58.4106C77.6301 58.4406 78.2601 58.4306 78.3901 58.5606C78.4801 58.6506 77.9501 59.1906 77.8601 59.2806C77.7501 59.3906 77.9201 59.5706 78.0401 59.4606C78.2801 59.2206 78.6901 58.8206 78.7301 58.4706C78.7301 58.4306 78.7001 58.3806 78.6701 58.3606C78.3501 58.2206 77.8701 58.2306 77.5201 58.1706C77.3501 58.1406 77.2801 58.3806 77.4401 58.4106Z" fill="white"/>
<path d="M78.0501 59.2305C78.0901 59.0505 78.2301 58.9005 78.3501 58.7605C78.4501 58.6405 78.2901 58.4705 78.1701 58.5805C78.0301 58.7205 77.8901 58.8505 77.7501 58.9905C77.8201 59.0205 77.8901 59.0505 77.9601 59.0805C77.9901 58.9505 78.0201 58.8305 78.0401 58.7005C77.9601 58.6805 77.8801 58.6605 77.8101 58.6405C77.7901 58.8105 77.7301 58.9705 77.6501 59.1205C77.7301 59.1305 77.8001 59.1405 77.8801 59.1505C77.8301 59.0305 77.8001 58.9005 77.8001 58.7705C77.7901 58.6505 77.6301 58.6005 77.5701 58.7105C77.5001 58.8205 77.4301 58.9305 77.3501 59.0405C77.4301 59.0605 77.5101 59.0805 77.5801 59.1005C77.5601 58.9005 77.5601 58.7105 77.5701 58.5105C77.5001 58.5405 77.4301 58.5705 77.3601 58.6005C77.3901 58.6705 77.4301 58.7405 77.4601 58.8105C77.5001 58.9705 77.7201 58.9005 77.7001 58.7405C77.6701 58.5405 77.6701 58.6705 77.8201 58.7905C77.8601 58.7205 77.9001 58.6505 77.9501 58.5705C77.7801 58.4805 77.7901 58.5105 78.0001 58.6505C77.9801 58.5805 77.9601 58.5105 77.9401 58.4405C77.9301 58.4505 77.9201 58.4605 77.9101 58.4805C77.8501 58.5505 77.8701 58.6705 77.9701 58.6905C78.0701 58.7205 78.2301 58.7405 78.3201 58.7805C78.3301 58.7005 78.3401 58.6205 78.3501 58.5305C78.3401 58.5405 78.3401 58.5605 78.3301 58.5705C78.2801 58.6005 78.2301 58.6305 78.1801 58.6605C78.2001 58.6705 78.2201 58.6805 78.2401 58.6905C78.3801 58.7705 78.5101 58.5605 78.3701 58.4705C78.3201 58.4405 78.2901 58.4205 78.2501 58.4105C78.1801 58.3905 78.1201 58.4405 78.1001 58.5005C78.0901 58.5205 78.0901 58.5305 78.0801 58.5505C78.0601 58.5905 78.0801 58.6405 78.1101 58.6705C78.2001 58.7705 78.2201 58.7805 78.3601 58.7805C78.5101 58.7805 78.5201 58.5905 78.3901 58.5305C78.2301 58.4705 78.2401 58.4905 78.0401 58.4405C78.0601 58.5105 78.0801 58.5805 78.1001 58.6505C78.1101 58.6405 78.1201 58.6305 78.1301 58.6105C78.1901 58.5405 78.1701 58.4205 78.0701 58.4005C77.9201 58.3705 77.7501 58.3105 77.6101 58.3705C77.5601 58.3905 77.5201 58.4305 77.5201 58.4905C77.5301 58.6605 77.6901 58.7205 77.8301 58.7805C77.9801 58.8405 78.0901 58.6605 77.9601 58.5605C77.8501 58.4805 77.6801 58.2805 77.5201 58.3505C77.4601 58.3705 77.4301 58.4105 77.4301 58.4705C77.4201 58.5805 77.4501 58.6905 77.4701 58.7905C77.5501 58.7705 77.6301 58.7505 77.7101 58.7205C77.6601 58.5405 77.6601 58.5505 77.5501 58.4005C77.4801 58.3105 77.3401 58.3905 77.3401 58.4905C77.3301 58.6905 77.3301 58.8805 77.3501 59.0805C77.3601 59.2105 77.5101 59.2405 77.5801 59.1405C77.6601 59.0305 77.7301 58.9305 77.8001 58.8105C77.7201 58.7905 77.6401 58.7705 77.5701 58.7505C77.5801 58.9105 77.6101 59.0405 77.6601 59.2005C77.6901 59.2905 77.8401 59.3305 77.8901 59.2305C77.9901 59.0305 78.0801 58.8505 78.0901 58.6205C78.1001 58.5005 77.9101 58.4405 77.8601 58.5605C77.7801 58.7405 77.7301 58.8705 77.7401 59.0705C77.7401 59.1805 77.8701 59.2405 77.9501 59.1605C78.0901 59.0205 78.2301 58.8905 78.3701 58.7505C78.3101 58.6905 78.2501 58.6305 78.1901 58.5705C78.0401 58.7405 77.8801 58.9205 77.8301 59.1505C77.7701 59.3205 78.0101 59.3805 78.0501 59.2305Z" fill="white"/>
<path d="M77.5299 58.8995C77.3599 58.9595 77.2399 59.0295 77.0999 59.1395C77.1699 59.1595 77.2399 59.1795 77.3099 59.1995C77.2599 59.0095 77.3299 58.7895 77.3899 58.6095C77.3099 58.5995 77.2299 58.5895 77.1399 58.5795C77.0999 58.8795 77.0499 59.1695 76.9699 59.4595C77.0499 59.4595 77.1299 59.4595 77.2099 59.4595C77.2099 59.3995 77.2099 59.3395 77.2099 59.2795C77.2199 59.1195 76.9699 59.1195 76.9599 59.2795C76.9499 59.3995 76.9499 59.4095 76.9699 59.5295C76.9899 59.6495 77.1799 59.6395 77.2099 59.5295C77.2899 59.2195 77.3499 58.8995 77.3799 58.5795C77.3999 58.4295 77.1799 58.4195 77.1299 58.5495C77.0499 58.7795 76.9799 59.0295 77.0499 59.2695C77.0799 59.3695 77.1899 59.3795 77.2599 59.3295C77.3699 59.2695 77.4699 59.2095 77.5799 59.1495C77.7499 59.0895 77.6899 58.8495 77.5299 58.8995Z" fill="white"/>
<path d="M77 59.0303C76.96 59.1203 76.92 59.2203 76.88 59.3103C76.96 59.3303 77.04 59.3503 77.12 59.3803C77.16 59.2203 77.2 59.0503 77.24 58.8903C77.27 58.7603 77.08 58.6603 77.01 58.7903C76.86 59.0903 76.68 59.3803 76.49 59.6603C76.57 59.6903 76.64 59.7203 76.72 59.7603C76.79 59.4503 76.9 59.1703 77.05 58.9003C76.97 58.8803 76.89 58.8603 76.82 58.8403C76.8 59.2803 76.72 59.6803 76.56 60.0803C76.63 60.0603 76.7 60.0403 76.77 60.0203C76.64 59.8903 76.7 59.2603 76.69 59.0703C76.69 58.9703 76.55 58.9003 76.48 58.9803C76.21 59.2903 76.01 59.6203 75.87 60.0003C75.82 60.1303 76.04 60.2303 76.1 60.1003C76.24 59.7803 76.4 59.4703 76.57 59.1703C76.49 59.1503 76.41 59.1303 76.34 59.1103C76.38 59.4803 76.4 59.8403 76.4 60.2103C76.4 60.3703 76.64 60.3703 76.65 60.2103C76.68 59.7703 76.73 59.3303 76.8 58.8903C76.82 58.7303 76.6 58.6603 76.56 58.8203C76.42 59.3403 76.23 59.8303 75.97 60.3003C76.05 60.3203 76.13 60.3403 76.2 60.3603C76.16 59.8903 76.21 59.4703 76.36 59.0203C76.28 59.0003 76.2 58.9803 76.12 58.9503C76.04 59.5003 75.94 60.0403 75.84 60.5803C75.92 60.6003 76 60.6203 76.08 60.6503C76.18 60.1003 76.31 59.5603 76.48 59.0303C76.4 59.0303 76.32 59.0303 76.24 59.0303C76.31 59.3203 76.32 59.5803 76.28 59.8803C76.36 59.9003 76.44 59.9203 76.52 59.9503C76.56 59.6803 76.59 59.4203 76.63 59.1503C76.64 59.0403 76.51 58.9203 76.42 59.0303C76.33 59.1303 76.29 59.1803 76.21 59.2903C76.29 59.3103 76.37 59.3303 76.44 59.3503C76.41 59.2003 76.42 59.0503 76.49 58.9003C76.41 58.9103 76.34 58.9203 76.26 58.9303C76.29 58.9703 76.31 59.0103 76.34 59.0503C76.43 59.1803 76.65 59.0603 76.56 58.9203C76.53 58.8803 76.51 58.8403 76.48 58.8003C76.42 58.7103 76.29 58.7203 76.25 58.8303C76.19 59.0103 76.17 59.1503 76.19 59.3403C76.2 59.4703 76.35 59.5103 76.42 59.4003C76.48 59.3303 76.53 59.2603 76.59 59.1903C76.52 59.1503 76.45 59.1103 76.38 59.0703C76.34 59.3403 76.31 59.6003 76.27 59.8703C76.25 60.0303 76.49 60.1003 76.51 59.9403C76.57 59.6003 76.56 59.3003 76.47 58.9603C76.44 58.8403 76.26 58.8503 76.23 58.9603C76.07 59.4903 75.93 60.0303 75.83 60.5803C75.8 60.7403 76.04 60.8003 76.07 60.6503C76.17 60.1103 76.26 59.5603 76.35 59.0203C76.37 58.8603 76.16 58.8003 76.11 58.9503C75.95 59.4103 75.9 59.8703 75.94 60.3503C75.95 60.4603 76.11 60.5303 76.17 60.4103C76.43 59.9203 76.64 59.4103 76.78 58.8703C76.7 58.8503 76.62 58.8303 76.54 58.8003C76.47 59.2603 76.42 59.7203 76.38 60.1903C76.46 60.1903 76.55 60.1903 76.63 60.1903C76.63 59.8203 76.61 59.4603 76.57 59.0903C76.56 58.9703 76.4 58.9103 76.34 59.0303C76.16 59.3303 76.01 59.6403 75.87 59.9603C75.95 59.9903 76.02 60.0203 76.1 60.0603C76.23 59.7203 76.41 59.4203 76.65 59.1503C76.58 59.1203 76.51 59.0903 76.44 59.0603C76.45 59.3603 76.35 59.9503 76.59 60.1903C76.66 60.2603 76.76 60.2203 76.8 60.1303C76.97 59.7103 77.06 59.2703 77.07 58.8203C77.07 58.7003 76.9 58.6503 76.84 58.7603C76.67 59.0603 76.56 59.3503 76.48 59.6803C76.45 59.8203 76.63 59.8903 76.71 59.7803C76.9 59.5003 77.08 59.2203 77.23 58.9103C77.15 58.8803 77.08 58.8503 77 58.8103C76.96 58.9703 76.92 59.1403 76.88 59.3003C76.84 59.4603 77.06 59.5103 77.12 59.3703C77.16 59.2803 77.2 59.1803 77.24 59.0903C77.3 58.9503 77.06 58.8803 77 59.0303Z" fill="white"/>
<path d="M80.78 35.1496C81 34.7196 81.22 34.2996 81.45 33.8796C81.53 33.7396 81.31 33.6096 81.23 33.7496C81 34.1696 80.78 34.5996 80.56 35.0196C80.49 35.1696 80.71 35.2996 80.78 35.1496Z" fill="white"/>
<path d="M81.2801 33.4698C81.3701 33.3898 81.9201 33.0198 81.9201 32.9698C81.9001 32.7898 81.7101 33.1798 81.7001 33.1998C81.4801 33.4998 81.2701 33.7998 81.1101 34.1398C81.0401 34.2798 81.2501 34.4098 81.3301 34.2698C81.4701 33.9898 81.6301 33.7298 81.8201 33.4698C81.9601 33.2698 82.1801 33.0598 82.2301 32.8098C82.2401 32.7598 82.2201 32.6998 82.1701 32.6698C81.8701 32.4998 81.3101 33.1198 81.1101 33.2898C80.9801 33.3998 81.1601 33.5798 81.2801 33.4698Z" fill="white"/>
<path d="M80.8201 35.0495C81.2001 34.4895 81.4601 33.8595 81.7401 33.2395C81.7801 33.1395 81.6801 32.9795 81.5701 33.0695C81.3401 33.2495 81.1501 33.4395 80.9801 33.6695C80.9101 33.7595 81.0201 33.8795 81.1201 33.8495C81.2501 33.8095 81.2701 33.7995 81.3701 33.7095C81.4901 33.5995 81.3101 33.4295 81.1901 33.5295C81.1401 33.5595 81.1001 33.5795 81.0501 33.6095C81.1001 33.6695 81.1401 33.7295 81.1901 33.7895C81.3401 33.5795 81.4801 33.4395 81.6901 33.2795C81.6301 33.2195 81.5801 33.1695 81.5201 33.1095C81.2401 33.7195 80.9801 34.3595 80.6001 34.9195C80.5101 35.0595 80.7301 35.1795 80.8201 35.0495Z" fill="white"/>
<path d="M81.24 33.4806C81.34 33.3706 81.91 32.9606 81.92 32.8506C81.92 33.0106 82.17 33.0106 82.17 32.8506C82.19 32.2106 81.16 33.2006 81.07 33.3106C80.96 33.4206 81.13 33.6006 81.24 33.4806Z" fill="white"/>
<path d="M81.8099 33.0406C81.3999 33.7606 80.9499 34.4606 80.4599 35.1306C80.3699 35.2606 80.5799 35.3906 80.6799 35.2606C81.1699 34.5906 81.6199 33.8906 82.0299 33.1706C82.1099 33.0306 81.8899 32.9006 81.8099 33.0406Z" fill="white"/>
<path d="M80.7899 34.3997C80.5999 34.7097 80.3899 34.9997 80.1599 35.2897C80.2299 35.3197 80.2999 35.3497 80.3699 35.3797C80.3899 35.1597 80.5999 34.9197 80.7099 34.7297C80.7899 34.5897 80.5899 34.4797 80.4899 34.5997C80.2599 34.8997 80.0299 35.1997 79.7999 35.4997C79.8799 35.5297 79.9499 35.5597 80.0299 35.5997C80.1299 35.2897 80.4399 35.0297 80.6799 34.8197C80.6099 34.7797 80.5399 34.7397 80.4699 34.6997C80.3499 35.1297 80.1699 35.5097 79.9099 35.8797C79.9899 35.9097 80.0599 35.9397 80.1399 35.9797C80.2099 35.7897 80.2899 35.5997 80.3799 35.4197C80.4499 35.2797 80.2299 35.1497 80.1599 35.2897C80.0599 35.4897 79.9699 35.6997 79.8999 35.9097C79.8499 36.0497 80.0499 36.1197 80.1299 36.0097C80.3999 35.6297 80.5899 35.2197 80.7199 34.7697C80.7599 34.6397 80.5999 34.5697 80.5099 34.6497C80.2199 34.8997 79.9099 35.1697 79.7999 35.5397C79.7499 35.6897 79.9499 35.7397 80.0299 35.6397C80.2599 35.3397 80.4899 35.0397 80.7199 34.7397C80.6499 34.6997 80.5799 34.6597 80.4999 34.6097C80.3599 34.8597 80.1599 35.0997 80.1299 35.3897C80.1199 35.4897 80.2799 35.5597 80.3399 35.4797C80.5799 35.1797 80.7999 34.8697 80.9999 34.5397C81.0899 34.3897 80.8799 34.2597 80.7899 34.3997Z" fill="white"/>
<path d="M68.31 55.2692C68.03 56.0192 68.04 56.8392 68.4 57.5592C68.53 57.8392 68.74 58.1592 68.99 58.3492C69.35 58.6092 69.87 58.5692 70.28 58.6192C70.44 58.6392 70.44 58.3892 70.28 58.3692C69.85 58.3292 69.36 58.3492 69.01 58.0392C68.76 57.8192 68.58 57.4292 68.48 57.1292C68.29 56.5392 68.33 55.9292 68.54 55.3492C68.6 55.1792 68.36 55.1192 68.31 55.2692Z" fill="white"/>
<path d="M69.9601 58.6405C70.0501 58.6305 70.1401 58.6205 70.2401 58.6105C70.4001 58.5905 70.4001 58.3405 70.2401 58.3605C70.1501 58.3705 70.0601 58.3805 69.9601 58.3905C69.8001 58.4105 69.8001 58.6605 69.9601 58.6405Z" fill="white"/>
<path d="M70.1799 58.3092C70.0499 58.3292 69.9099 58.3392 69.7799 58.3392C69.6199 58.3492 69.6199 58.5992 69.7799 58.5892C69.9399 58.5792 70.0899 58.5892 70.2499 58.5492C70.3999 58.5092 70.3399 58.2692 70.1799 58.3092Z" fill="white"/>
<path d="M62.02 68.4902C71.35 68.4902 71.37 53.9902 62.02 53.9902C52.69 53.9902 52.68 68.4902 62.02 68.4902Z" fill="white"/>
<path d="M62.7101 69.9297C72.0401 69.9297 72.0601 55.4297 62.7101 55.4297C53.3801 55.4297 53.3601 69.9297 62.7101 69.9297Z" fill="white"/>
<path d="M63.39 70.5293C72.72 70.5293 72.74 56.0293 63.39 56.0293C54.06 56.0293 54.04 70.5293 63.39 70.5293Z" fill="white"/>
<path d="M64.2499 59.1102C65.8399 58.0202 67.0699 56.7902 68.2099 55.2502C66.1999 54.0702 64.1799 52.8902 62.1699 51.7202C61.9599 52.0202 62.0099 51.9602 62.3199 51.5302C62.2199 51.6402 62.1199 51.7402 62.0199 51.8402C61.7399 52.0802 61.8099 52.0402 62.2199 51.7102C62.0999 51.7902 61.9799 51.8702 61.8499 51.9402C63.0299 53.9502 64.2099 55.9702 65.3799 57.9802C66.7899 57.0602 67.8199 56.0102 68.8299 54.6802C69.3399 54.0102 69.3999 52.7602 69.1799 51.9802C68.9599 51.1702 68.3299 50.2902 67.5699 49.8902C66.7599 49.4602 65.7699 49.2502 64.8699 49.5402C63.9499 49.8402 63.3599 50.3802 62.7799 51.1502C63.3899 50.3502 62.9199 50.9602 62.7799 51.1102C62.6299 51.2702 62.4799 51.4202 62.3199 51.5702C62.2699 51.6202 62.2099 51.6702 62.1599 51.7102C61.8799 51.9502 61.9499 51.9002 62.3699 51.5702C62.2199 51.5902 61.9599 51.8602 61.8399 51.9402C60.3099 52.9402 59.5299 55.0902 60.5799 56.7302C61.5899 58.3002 63.6899 59.0002 65.3699 57.9902C66.5499 57.2802 67.4199 56.3802 68.1999 55.2602C69.2499 53.7502 68.5199 51.3102 66.9399 50.4702C66.1299 50.0402 65.1399 49.8302 64.2399 50.1202C63.3199 50.4202 62.7199 50.9502 62.1499 51.7302C61.9299 52.0302 61.9799 51.9702 62.2899 51.5502C62.1999 51.6602 62.0999 51.7802 61.9999 51.8902C61.8299 52.0802 61.6499 52.2702 61.4599 52.4502C61.2699 52.6302 61.0799 52.8002 60.8799 52.9702C60.5899 53.2002 60.6499 53.1602 61.0599 52.8302C60.9399 52.9202 60.8199 53.0002 60.6999 53.0802C59.1899 54.1102 58.3699 56.2002 59.4399 57.8702C60.4299 59.3602 62.6299 60.2202 64.2499 59.1102Z" fill="white"/>
<path d="M61.3999 55.8901C60.9199 58.5501 61.5799 61.5301 63.8199 63.2701C64.5899 63.8701 65.2799 64.3001 66.2899 64.3001C67.1499 64.3001 68.1699 63.9201 68.7599 63.2701C69.9099 62.0201 70.2999 59.5201 68.7599 58.3201C68.7099 58.2801 68.0699 57.7401 68.1099 57.7101C68.4199 58.1301 68.4799 58.1801 68.2699 57.8701C68.0999 57.5401 68.1199 57.6101 68.3299 58.1001C68.2799 57.9601 68.2299 57.8201 68.1899 57.6701C68.1099 57.2901 68.1099 57.3801 68.1999 57.9401C68.1399 57.9901 68.3899 56.3501 68.1399 57.7601C68.4599 55.9601 67.6499 53.9001 65.6999 53.4501C63.9999 53.0501 61.7499 53.9601 61.3999 55.8901Z" fill="white"/>
<path d="M69.5999 65.4199C74.0999 65.4199 74.1099 58.4199 69.5999 58.4199C65.0999 58.4199 65.0899 65.4199 69.5999 65.4199Z" fill="white"/>
<path d="M68.9201 66.1797C73.4201 66.1797 73.4301 59.1797 68.9201 59.1797C64.4101 59.1797 64.4101 66.1797 68.9201 66.1797Z" fill="white"/>
<path d="M66.19 63.8008C70.69 63.8008 70.7 56.8008 66.19 56.8008C61.69 56.8008 61.68 63.8008 66.19 63.8008Z" fill="white"/>
<path d="M64.66 59.4609C69.16 59.4609 69.17 52.4609 64.66 52.4609C60.16 52.4609 60.15 59.4609 64.66 59.4609Z" fill="white"/>
<path d="M64.7299 59.1406C69.2299 59.1406 69.2399 52.1406 64.7299 52.1406C60.2199 52.1406 60.2199 59.1406 64.7299 59.1406Z" fill="white"/>
<path d="M64.8099 58.9492C69.3099 58.9492 69.3199 51.9492 64.8099 51.9492C60.3099 51.9492 60.2999 58.9492 64.8099 58.9492Z" fill="white"/>
<path d="M64.8099 58.6895C69.3099 58.6895 69.3199 51.6895 64.8099 51.6895C60.3099 51.6895 60.2999 58.6895 64.8099 58.6895Z" fill="white"/>
<path d="M64.8799 58.5703C69.3799 58.5703 69.3899 51.5703 64.8799 51.5703C60.3699 51.5703 60.3599 58.5703 64.8799 58.5703Z" fill="white"/>
<path d="M64.8799 58.5703C69.3799 58.5703 69.3899 51.5703 64.8799 51.5703C60.3699 51.5703 60.3599 58.5703 64.8799 58.5703Z" fill="white"/>
<path d="M64.9201 61.6094C69.4201 61.6094 69.4301 54.6094 64.9201 54.6094C60.4101 54.6094 60.4101 61.6094 64.9201 61.6094Z" fill="white"/>
<path d="M61.8901 59.9594C61.9001 59.9794 61.9201 59.9994 61.9301 60.0194C62.4601 60.7794 63.1001 61.3794 64.0201 61.6294C64.8601 61.8594 65.9701 61.7594 66.7201 61.2794C68.2101 60.3194 69.0901 58.0994 67.9801 56.4894C67.9701 56.4694 67.9501 56.4494 67.9401 56.4294C67.4101 55.6694 66.7701 55.0694 65.8501 54.8194C65.0101 54.5894 63.9001 54.6894 63.1501 55.1694C61.6601 56.1394 60.7801 58.3594 61.8901 59.9594Z" fill="white"/>
<path d="M61.8299 59.9902C66.3299 59.9902 66.3399 52.9902 61.8299 52.9902C57.3299 52.9902 57.3199 59.9902 61.8299 59.9902Z" fill="white"/>
<path d="M61.8299 59.9902C66.3299 59.9902 66.3399 52.9902 61.8299 52.9902C57.3299 52.9902 57.3199 59.9902 61.8299 59.9902Z" fill="white"/>
<path d="M60.11 70.9492C64.61 70.9492 64.62 63.9492 60.11 63.9492C55.61 63.9492 55.6 70.9492 60.11 70.9492Z" fill="white"/>
<path d="M60.0201 70.3496C64.5201 70.3496 64.5301 63.3496 60.0201 63.3496C55.5201 63.3496 55.5101 70.3496 60.0201 70.3496Z" fill="white"/>
<path d="M57.3399 65.7891C61.8399 65.7891 61.8499 58.7891 57.3399 58.7891C52.8399 58.7891 52.8299 65.7891 57.3399 65.7891Z" fill="white"/>
<path d="M58.2701 66.4609C62.7701 66.4609 62.7801 59.4609 58.2701 59.4609C53.7701 59.4609 53.7601 66.4609 58.2701 66.4609Z" fill="white"/>
<path d="M59.3399 63.6204C59.3499 63.6104 59.3599 63.6004 59.3699 63.5904C60.6699 62.2904 60.7599 59.9204 59.3699 58.6404C57.9699 57.3604 55.7999 57.2604 54.4199 58.6404C54.4099 58.6504 54.3999 58.6604 54.3899 58.6704C53.0899 59.9704 52.9999 62.3404 54.3899 63.6204C55.7899 64.9004 57.9599 65.0004 59.3399 63.6204Z" fill="white"/>
<path d="M60.78 60.5307C60.78 60.5207 60.78 60.5107 60.78 60.5007C60.78 58.6707 59.17 56.9207 57.28 57.0007C55.38 57.0807 53.78 58.5407 53.78 60.5007C53.78 60.5107 53.78 60.5207 53.78 60.5307C53.78 62.3607 55.39 64.1107 57.28 64.0307C59.18 63.9507 60.78 62.5007 60.78 60.5307Z" fill="white"/>
<path d="M55.68 65.2207C60.18 65.2207 60.19 58.2207 55.68 58.2207C51.18 58.2207 51.17 65.2207 55.68 65.2207Z" fill="white"/>
<path d="M55.3299 65.3691C59.8299 65.3691 59.8399 58.3691 55.3299 58.3691C50.8299 58.3691 50.8199 65.3691 55.3299 65.3691Z" fill="white"/>
<path d="M56.0701 69.4204C56.1501 69.2204 56.6801 68.5704 56.2901 68.9304C56.1701 69.0404 56.0501 69.1504 55.9401 69.2704C55.3501 69.8904 54.8501 70.6304 54.6301 71.4604C53.9701 73.9004 55.9401 76.1704 58.3801 76.2004C59.1901 76.2104 60.1101 75.9404 60.7801 75.4804C61.1201 75.2504 61.4401 74.9804 61.7201 74.6804C61.9901 74.4004 62.1601 73.9304 62.4801 73.7004C62.2301 74.0204 62.2001 74.0804 62.3901 73.8804C62.5001 73.7704 62.6201 73.6604 62.7401 73.5604C62.9501 73.3804 63.1701 73.2004 63.3901 73.0204C63.8901 72.6104 64.3901 72.2004 64.8901 71.7904C66.3101 70.6204 66.1901 68.0404 64.8901 66.8404C63.3801 65.4604 61.4501 65.5904 59.9401 66.8404C59.2601 67.4004 58.5801 67.9504 57.9101 68.5104C57.6301 68.7504 57.3601 68.9904 57.1201 69.2704C56.8901 69.5704 56.6601 69.8604 56.4301 70.1604C57.1001 69.1104 58.2201 68.9004 59.8101 69.5304C60.2301 69.9504 60.6501 70.3704 61.0701 70.7904C61.0501 70.7504 61.0301 70.7104 61.0101 70.6704C61.1301 71.5704 61.2501 72.4704 61.3601 73.3704C61.2901 73.6204 61.1701 73.8404 61.0101 74.0404C60.8301 74.2704 60.8501 74.2604 61.0601 74.0404C61.2201 73.9104 61.3501 73.7504 61.4901 73.5904C62.1301 72.8504 62.4601 72.1804 62.8201 71.2704C63.4901 69.5604 62.0801 67.3504 60.3801 66.9604C58.3601 66.5204 56.7901 67.5904 56.0701 69.4204Z" fill="white"/>
<path d="M56.62 78.2695C61.12 78.2695 61.13 71.2695 56.62 71.2695C52.12 71.2695 52.11 78.2695 56.62 78.2695Z" fill="white"/>
<path d="M56.0201 78.9492C60.5201 78.9492 60.5301 71.9492 56.0201 71.9492C51.5201 71.9492 51.5101 78.9492 56.0201 78.9492Z" fill="white"/>
<path d="M66.66 55.1602C71.16 55.1602 71.17 48.1602 66.66 48.1602C62.16 48.1602 62.15 55.1602 66.66 55.1602Z" fill="white"/>
<path d="M53.0399 63.0396C51.6299 62.6296 50.1699 62.9796 48.7599 63.2096C49.0199 63.8196 49.2699 64.4296 49.5299 65.0396C50.8999 64.4196 52.5699 63.5396 53.3999 62.2396C54.1099 61.1296 52.4299 60.2296 51.6699 61.2296C51.6099 61.3096 51.5599 61.3796 51.4999 61.4596C50.7199 62.4896 52.4599 63.4796 53.2299 62.4696C53.2899 62.3896 53.3399 62.3196 53.3999 62.2396C52.8199 61.8996 52.2499 61.5696 51.6699 61.2296C51.3599 61.7096 50.7499 62.0496 50.2899 62.3596C49.7299 62.7296 49.1299 63.0396 48.5199 63.3096C48.0699 63.5096 47.9399 64.1396 48.1099 64.5596C48.3199 65.0496 48.7899 65.2196 49.2899 65.1396C50.3399 64.9696 51.4599 64.6696 52.5099 64.9696C53.7499 65.3296 54.2799 63.3996 53.0399 63.0396Z" fill="white"/>
<path d="M72.13 60.87C72.69 60.75 73.26 60.63 73.82 60.51C74.1 60.45 74.39 60.4 74.67 60.34C74.78 60.32 75.2 60.2 75.25 60.22C75.02 59.99 74.78 59.75 74.55 59.52C74.6 59.23 74.58 59.22 74.47 59.47C74.4 59.6 74.32 59.72 74.23 59.83C74.04 60.07 73.81 60.28 73.58 60.48C73.06 60.94 72.5 61.34 72.01 61.83C72.57 62.15 73.12 62.48 73.68 62.8C73.77 62.21 74.02 61.77 74.33 61.27C74.89 60.37 73.81 59.48 72.96 59.9C72.61 60.07 72.29 60.27 71.97 60.51C70.95 61.27 71.95 63.01 72.98 62.24C73.29 62 73.62 61.81 73.97 61.63C73.51 61.17 73.06 60.72 72.6 60.26C72.21 60.88 71.86 61.53 71.75 62.26C71.61 63.2 72.64 63.99 73.42 63.23C74.45 62.23 76.73 60.96 76.54 59.25C76.43 58.24 75.5 58.15 74.7 58.29C73.66 58.47 72.62 58.69 71.59 58.92C70.34 59.21 70.87 61.14 72.13 60.87Z" fill="white"/>
<path d="M67.2799 47.9809C67.1699 47.9909 67.0599 47.9909 66.9499 48.0009C67.1799 48.2309 67.4199 48.4709 67.6499 48.7009C67.8199 49.2609 68.6899 48.5809 68.8999 48.4709C68.5599 47.8909 68.2299 47.3209 67.8899 46.7409C67.3599 47.0509 66.8399 47.3609 66.3099 47.6609C66.7099 48.1809 67.1199 48.7109 67.5199 49.2309C68.7199 48.1409 70.1599 47.3709 71.3399 46.2509C70.8699 45.7809 70.3999 45.3109 69.9299 44.8409C68.8499 46.0009 68.3399 47.5809 67.9199 49.0909C67.5999 50.2209 69.1299 50.7809 69.7499 49.8609C70.3399 48.9809 70.9299 48.1909 71.7499 47.5109C71.1899 47.1909 70.6399 46.8609 70.0799 46.5409C69.5999 48.2109 68.5999 49.6609 68.3499 51.4009C68.2199 52.2809 68.9799 52.9309 69.8199 52.5309C71.0099 51.9609 71.5199 50.1009 72.1499 49.0409C73.1899 47.2809 74.1299 45.5309 74.9299 43.6409C75.2799 42.8309 74.4799 41.6309 73.5599 42.2709C72.2799 43.1609 71.6899 44.5209 70.5999 45.5909C71.1599 45.9109 71.7099 46.2409 72.2699 46.5609C72.4799 45.6509 72.7399 44.8209 73.1399 43.9709C73.6199 42.9509 72.4499 41.9809 71.5699 42.7609C70.3299 43.8609 69.1099 44.9909 67.9199 46.1409C66.9899 47.0409 68.4099 48.4509 69.3299 47.5509C70.5199 46.3909 71.7399 45.2709 72.9799 44.1709C72.4599 43.7709 71.9299 43.3609 71.4099 42.9609C70.9399 43.9609 70.5899 44.9509 70.3399 46.0309C70.1199 46.9909 71.2799 47.7309 72.0099 47.0009C72.9399 46.0809 73.4799 44.7409 74.5599 43.9909C74.0999 43.5309 73.6499 43.0809 73.1899 42.6209C72.5399 44.1309 71.8699 45.6109 71.0299 47.0209C70.6399 47.6709 70.2299 48.3009 69.8799 48.9709C69.6399 49.4209 69.2799 50.5609 68.7899 50.7909C69.2799 51.1709 69.7699 51.5409 70.2599 51.9209C70.5099 50.1909 71.5099 48.7309 71.9899 47.0609C72.2899 46.0309 71.0399 45.4909 70.3199 46.0909C69.3699 46.8809 68.6899 47.8209 68.0099 48.8409C68.6199 49.1009 69.2299 49.3509 69.8399 49.6109C70.1599 48.4609 70.5099 47.1409 71.3399 46.2409C72.2199 45.3009 70.8699 43.9409 69.9299 44.8309C68.7499 45.9409 67.3099 46.7209 66.1099 47.8109C65.2599 48.5809 66.3499 49.9509 67.3199 49.3809C67.8499 49.0709 68.3699 48.7609 68.8999 48.4609C70.0199 47.8009 69.0299 46.1609 67.8899 46.7309C66.9899 47.1809 65.3399 47.9409 65.7199 49.2209C65.8099 49.5409 66.0799 49.8509 66.4199 49.9209C66.7199 49.9809 66.9699 49.9709 67.2899 49.9709C68.5699 49.9809 68.5699 47.9809 67.2799 47.9809Z" fill="white"/>
<path d="M73.79 43.4804C75.22 42.1204 76.65 40.9804 77.82 39.3604C77.24 39.0204 76.67 38.6904 76.09 38.3504C74.83 40.8404 73.32 43.1804 71.79 45.5104C71.08 46.5904 72.81 47.5904 73.52 46.5204C75.05 44.1904 76.56 41.8504 77.82 39.3604C78.41 38.1904 76.84 37.3204 76.09 38.3504C75.02 39.8204 73.67 40.8304 72.37 42.0704C71.44 42.9604 72.86 44.3704 73.79 43.4804Z" fill="white"/>
<path d="M77.4599 40.2496C77.6899 39.8796 78.0599 39.6196 78.2499 39.2096C78.3299 39.0296 78.3699 38.8596 78.4699 38.6996C78.6399 38.4396 78.8699 38.1896 79.0699 37.9396C79.3999 37.5196 79.4799 36.9396 79.0699 36.5296C78.7199 36.1796 77.9899 36.0996 77.6599 36.5296C77.2599 37.0396 76.7299 37.5396 76.5099 38.1596C76.3599 38.5796 75.9799 38.8496 75.7399 39.2396C75.0499 40.3396 76.7799 41.3496 77.4599 40.2496Z" fill="white"/>
<path d="M79.5299 36.651C79.5899 36.411 79.8699 36.101 80.0199 35.891C79.7899 35.791 79.5599 35.701 79.3299 35.601C79.2599 35.801 79.1199 35.971 79.0399 36.161C78.9499 36.401 78.8799 36.621 78.7299 36.831C78.4499 37.221 79.0999 37.601 79.3799 37.211C79.5399 36.991 79.6099 36.761 79.7099 36.501C79.8099 36.251 79.9599 36.041 80.0499 35.791C80.2099 35.371 79.5899 35.171 79.3599 35.501C79.1799 35.771 78.8799 36.111 78.7999 36.441C78.6899 36.921 79.4199 37.121 79.5299 36.651Z" fill="white"/>
<path d="M52.37 75.8094C51.45 77.4494 50.56 79.0894 49.69 80.7494C49.14 81.7894 50.3 83.1894 51.4 82.4594C52.09 81.9994 52.71 81.4994 53.31 80.9294C53.74 80.5294 54.71 79.2894 55.28 79.3694C54.92 79.1594 54.56 78.9594 54.2 78.7494C54.13 78.1894 53.9 78.2294 53.5 78.8694C53.12 79.1894 52.74 79.5094 52.36 79.8294C51.65 80.4294 50.91 81.0094 50.22 81.6294C49.17 82.5894 48.47 83.9994 47.29 84.7794C47.92 85.1394 48.54 85.4994 49.17 85.8594C48.99 86.3194 49.09 86.1794 49.47 85.4494C49.66 85.1294 49.85 84.8094 50.04 84.4794C50.48 83.7294 50.93 82.9794 51.37 82.2294C52.19 80.8394 50.03 79.5794 49.21 80.9694C48.43 82.2894 46.62 84.2594 46.67 85.8594C46.69 86.7594 47.73 87.4794 48.55 86.9394C50.03 85.9594 50.87 84.3694 52.2 83.2094C53.11 82.4194 54.05 81.6494 54.98 80.8694C55.57 80.3794 56.37 79.8594 56.61 79.0794C56.97 77.9094 56.12 76.7494 54.89 76.8194C53.08 76.9194 51.52 79.3794 50.13 80.2994C50.7 80.8694 51.27 81.4394 51.84 82.0094C52.71 80.3494 53.61 78.6994 54.52 77.0694C55.32 75.6694 53.16 74.4094 52.37 75.8094Z" fill="white"/>
<path d="M46.22 85.9705C46.04 86.3505 45.93 86.7805 46.22 87.1505C46.53 87.5505 46.93 87.4705 47.36 87.3805C47.2 87.3605 47.04 87.3405 46.88 87.3205C46.91 87.3405 46.95 87.3705 46.98 87.3905C46.88 87.2705 46.79 87.1405 46.69 87.0205C46.73 86.7705 46.66 86.7505 46.45 86.9705C46.35 87.0305 46.26 87.1005 46.17 87.1705C45.93 87.3505 45.73 87.5505 45.52 87.7605C45.87 87.9605 46.22 88.1705 46.56 88.3705C46.62 88.1705 46.7 87.9705 46.79 87.7705C47.05 87.1805 46.32 86.4305 45.81 87.0105C45.07 87.8505 44.67 88.9505 43.83 89.7005C43.23 90.2305 44.11 91.1205 44.71 90.5805C45.57 89.8205 45.94 88.7305 46.69 87.8905C46.36 87.6405 46.04 87.3905 45.71 87.1305C45.58 87.4305 45.46 87.7205 45.36 88.0305C45.16 88.6205 45.99 89.0805 46.4 88.6405C46.86 88.1605 47.96 87.7605 47.95 86.9805C47.93 86.2305 47.26 86.1105 46.68 86.2605C46.84 86.2805 47 86.3005 47.16 86.3205C47.11 86.2905 47.07 86.2605 47.02 86.2405C47.12 86.3605 47.21 86.4905 47.31 86.6105H47.3C47.64 85.8805 46.56 85.2405 46.22 85.9705Z" fill="white"/>
</svg>
