<svg width="150" height="150" viewBox="0 0 150 150" fill="none" xmlns="http://www.w3.org/2000/svg">
<path d="M87.8698 111.4H40.4698C35.9298 111.4 32.2598 107.72 32.2598 103.19V32.5498C32.2598 28.0098 35.9398 24.3398 40.4698 24.3398H87.8698C92.4098 24.3398 96.0798 28.0198 96.0798 32.5498V103.19C96.0898 107.73 92.4098 111.4 87.8698 111.4Z" fill="black"/>
<path d="M96.0898 101.26H32.2598V119.47H96.0898V101.26Z" fill="black"/>
<path d="M98.9002 121.02H29.4502V133.96H98.9002V121.02Z" fill="black"/>
<path d="M84.4002 49.36H43.9402C41.4402 49.36 39.4102 47.33 39.4102 44.83V36.28C39.4102 33.78 41.4402 31.75 43.9402 31.75H84.4002C86.9002 31.75 88.9302 33.78 88.9302 36.28V44.83C88.9402 47.33 86.9102 49.36 84.4002 49.36Z" fill="white"/>
<path d="M103.36 77.0605V99.7906" stroke="black" stroke-width="4" stroke-miterlimit="10"/>
<path d="M117.96 68.6406L118.17 98.9006" stroke="black" stroke-width="4" stroke-miterlimit="10"/>
<path d="M101.43 100.36C102.53 105.05 105.96 107.69 110.92 107.59C115.48 107.5 119.15 104.11 119.99 99.7205C120.47 97.2005 116.62 96.1305 116.13 98.6605C115.62 101.33 113.81 103.49 110.91 103.59C109.92 103.63 108.45 103.3 107.54 102.85C105.86 102.03 105.66 100.91 105.28 99.2905C104.7 96.7905 100.85 97.8505 101.43 100.36Z" fill="black"/>
<path d="M95.8399 70.9698C98.9199 71.7098 101.14 74.1098 101.36 77.3198C101.53 79.8698 105.53 79.8898 105.36 77.3198C105.03 72.3698 101.79 68.2898 96.9099 67.1198C94.4099 66.5098 93.3399 70.3698 95.8399 70.9698Z" fill="black"/>
<path d="M97.8001 67.4394C97.2701 67.1794 96.7201 66.9694 96.1401 66.8594C95.3701 66.7094 94.4801 67.0694 94.2901 67.9094C94.1201 68.6494 94.5101 69.5994 95.3401 69.7594C95.7001 69.8294 96.0701 69.9294 96.2901 70.0394C97.0201 70.3894 97.9101 70.2394 98.3401 69.4994C98.7301 68.8294 98.5401 67.7994 97.8001 67.4394Z" fill="black"/>
<path d="M117.15 98.8004C117.14 99.1704 117.2 98.7204 117.09 99.0704C116.85 99.8204 117.37 100.74 118.14 100.92C118.96 101.11 119.72 100.67 119.99 99.8704C120.1 99.5304 120.15 99.1604 120.16 98.8004C120.19 98.0104 119.45 97.2604 118.66 97.3004C117.81 97.3404 117.18 97.9604 117.15 98.8004Z" fill="black"/>
<path d="M117.13 98.7593C117.13 98.8493 117.13 98.9393 117.13 99.0293C117.13 99.8093 117.82 100.569 118.63 100.529C119.44 100.489 120.13 99.8693 120.13 99.0293C120.13 98.9393 120.13 98.8493 120.13 98.7593C120.13 97.9793 119.44 97.2193 118.63 97.2593C117.81 97.2893 117.13 97.9093 117.13 98.7593Z" fill="black"/>
<path d="M120.1 99.2697C120.11 99.2497 120.11 99.2397 120.12 99.2197C119.14 99.0897 118.16 98.9497 117.17 98.8197C117.16 99.0097 117.16 99.0297 117.18 98.8997C117.12 99.0697 117.12 99.0997 117.18 98.9997C116.86 99.7397 116.96 100.61 117.72 101.05C118.35 101.42 119.45 101.26 119.77 100.51C120.01 99.9497 120.16 99.4397 120.17 98.8197C120.18 98.0697 119.59 97.4397 118.87 97.3497C118.09 97.2397 117.5 97.7197 117.22 98.4197C117.21 98.4397 117.21 98.4497 117.2 98.4697C116.92 99.1997 117.51 100.15 118.25 100.32C119.11 100.52 119.79 100.06 120.1 99.2697Z" fill="black"/>
<path d="M119.15 98.8509C119.15 98.8109 119.15 98.7809 119.15 98.7409C119.15 97.0609 116.63 96.6809 116.2 98.3409C116.18 98.4109 116.16 98.4809 116.16 98.5509C116.03 99.3209 116.37 100.201 117.21 100.401C117.94 100.571 118.91 100.181 119.06 99.3509C119.07 99.2809 119.08 99.2109 119.1 99.1409C118.12 99.0109 117.14 98.8709 116.15 98.7409C116.15 98.7809 116.15 98.8109 116.15 98.8509C116.15 99.6309 116.84 100.391 117.65 100.351C118.46 100.311 119.15 99.6909 119.15 98.8509Z" fill="black"/>
<path d="M121.53 69.2195H114.6C113.85 69.2195 113.25 68.6095 113.25 67.8695C113.25 67.1195 113.86 66.5195 114.6 66.5195H121.53C122.28 66.5195 122.88 67.1295 122.88 67.8695C122.89 68.6195 122.28 69.2195 121.53 69.2195Z" fill="black" stroke="black" stroke-miterlimit="10"/>
<path d="M116.9 48.8496H118.93C119.11 48.8496 119.26 48.9996 119.26 49.1796V63.6996C119.26 63.8796 119.11 64.0296 118.93 64.0296H116.9C116.72 64.0296 116.57 63.8796 116.57 63.6996V49.1796C116.57 48.9996 116.72 48.8496 116.9 48.8496Z" fill="black" stroke="black" stroke-miterlimit="10"/>
<path d="M115.39 61.2204H113.54C112.71 61.2204 112.04 60.5504 112.04 59.7204V53.1504C112.04 52.3204 112.71 51.6504 113.54 51.6504H115.39C116.22 51.6504 116.89 52.3204 116.89 53.1504V59.7204C116.89 60.5504 116.22 61.2204 115.39 61.2204Z" stroke="black" stroke-width="2" stroke-miterlimit="10"/>
<path d="M115.04 62.1507C115.81 62.1807 116.2 62.8307 116.32 63.5207C116.43 64.1507 117.4 63.8807 117.28 63.2507C117.07 62.1107 116.23 61.1907 115.03 61.1507C114.39 61.1307 114.39 62.1307 115.04 62.1507Z" fill="black"/>
<path d="M115.87 51.6796C116.48 51.2696 116.9 50.7296 117.15 50.0396C117.37 49.4296 116.4 49.1696 116.19 49.7696C116.03 50.1996 115.75 50.5596 115.37 50.8096C114.83 51.1696 115.33 52.0396 115.87 51.6796Z" fill="black"/>
<path d="M115.89 51.5991C116.69 51.0091 116.91 50.2191 117.15 49.2991C117.31 48.6791 116.35 48.4091 116.19 49.0291C116.03 49.6391 115.94 50.3291 115.39 50.7291C114.87 51.1091 115.37 51.9791 115.89 51.5991Z" fill="black"/>
<path d="M112.29 52.2997C112.27 51.7897 112.13 51.3197 111.84 50.8997C111.48 50.3697 110.61 50.8697 110.98 51.3997C111.17 51.6797 111.28 51.9597 111.29 52.2997C111.31 52.9397 112.31 52.9397 112.29 52.2997Z" fill="black"/>
<path d="M112.05 52.0202C109.99 50.2402 110.88 45.5602 112.86 44.1102C114.15 43.1702 114.98 43.9302 116.17 44.6402C117.88 45.6702 119.08 46.7702 118.77 48.9402C118.68 49.5702 119.64 49.8402 119.73 49.2102C119.99 47.3502 119.9 45.9602 118.33 44.7902C117.3 44.0202 115.9 43.1402 114.74 42.6402C114.1 42.3702 113.73 42.3102 113.09 42.6102C109.89 44.1602 108.57 50.3202 111.35 52.7202C111.82 53.1502 112.53 52.4502 112.05 52.0202Z" fill="black"/>
<path d="M112.25 52.1297C111.45 50.9697 110.52 49.7397 110.28 48.3397C109.99 46.6497 111.67 45.2197 112.76 44.0797C113.21 43.6197 112.5 42.9097 112.05 43.3697C110.92 44.5497 109.21 46.1097 109.1 47.8697C109 49.5497 110.49 51.3397 111.38 52.6297C111.75 53.1597 112.62 52.6597 112.25 52.1297Z" fill="black"/>
<path d="M111.29 49.4609C111.38 49.9409 111.47 50.4309 111.56 50.9109C111.86 50.7809 112.17 50.6509 112.47 50.5209C112.17 50.0309 111.9 49.5209 111.64 49.0009C111.4 48.4909 110.54 48.8509 110.73 49.3909C110.89 49.7609 110.98 50.1609 111 50.5709C111.28 50.4509 111.57 50.3309 111.85 50.2209C111.56 49.9709 111.99 47.4509 112.09 47.1309C111.76 47.0909 111.44 47.0409 111.11 47.0009C111.06 47.7009 111.15 48.8109 110.68 49.3809C110.96 49.5009 111.25 49.6209 111.53 49.7309C111.62 48.6309 111.85 47.5909 112.29 46.5809C112.71 45.5909 113.21 45.1909 114.15 44.6709C114.6 44.4209 114.38 43.7609 113.9 43.7409C113.66 43.7209 113.41 43.7209 113.17 43.7409C113.25 44.0509 113.34 44.3609 113.42 44.6709C114.47 43.8909 115.38 44.4809 116.21 45.3509C117.11 46.3009 117.95 47.4109 118.06 48.7509C118.37 48.6709 118.68 48.5809 118.99 48.5009C118.7 47.9609 118.42 47.4209 118.13 46.8809C117.94 46.5209 117.29 46.5709 117.22 47.0009C117.09 47.7009 117.07 48.3609 117.1 49.0709C117.12 49.7109 118.12 49.7209 118.1 49.0709C118.08 48.4109 118.15 47.6609 117.94 47.0309C117.87 46.8209 117.69 46.6709 117.46 46.6609C116.45 46.6409 116.15 48.1609 115.98 48.9209C115.84 49.5509 116.72 49.7909 116.94 49.1909C117.06 48.8509 117.19 48.5109 117.31 48.1709C116.99 48.0809 116.67 47.9909 116.35 47.9009C116.09 48.7809 115.75 49.6009 115.3 50.4009C115.61 50.4809 115.92 50.5709 116.23 50.6509C116.33 50.3109 116.42 49.9809 116.52 49.6409C116.24 49.4809 115.96 49.3209 115.68 49.1509C115.43 49.7509 115.26 50.4109 116.16 50.2509C116.03 49.9509 115.9 49.6409 115.77 49.3409C114.85 49.8209 113.92 50.1409 112.91 50.3609C113.1 50.6009 113.29 50.8509 113.47 51.0909C113.69 50.9009 113.9 50.7209 114.12 50.5309C113.95 50.2409 113.78 49.9509 113.62 49.6709C113.04 50.0209 113.1 50.1209 112.97 49.6309C112.88 49.3209 113.04 48.6809 113.06 48.3809C112.73 48.4209 112.41 48.4709 112.08 48.5109C112.21 49.3809 112.41 50.1909 112.71 51.0209C113.03 50.9309 113.35 50.8409 113.67 50.7509C113.28 49.8109 113.06 48.5009 112.54 47.6609C112.5 47.3009 112.25 47.1109 111.79 47.0909C111.98 47.4309 112.13 47.7809 112.25 48.1409C112.49 48.8409 112.61 49.5309 112.67 50.2609C113 50.2209 113.32 50.1709 113.65 50.1309C113.41 48.5209 113.17 46.9109 112.94 45.3009C112.64 45.4309 112.33 45.5609 112.03 45.6909C112.77 46.8909 113.36 48.1309 113.81 49.4609C114.11 49.3309 114.42 49.2009 114.72 49.0709C114.19 48.2009 113.63 46.8109 113.87 45.7809C113.55 45.7809 113.23 45.7809 112.91 45.7809C113.14 47.1409 113.41 48.4909 113.72 49.8309C114.02 49.7009 114.33 49.5709 114.63 49.4409C114.29 48.8609 113.96 48.2509 113.81 47.5909C113.68 47.0109 114.02 46.1809 113.73 45.6909C113.76 45.4909 113.78 45.2909 113.81 45.0809C114.49 44.3409 115.83 46.1409 116.08 46.5909C116.7 47.7309 116.12 48.0209 115.23 48.5709C115.46 48.8009 115.69 49.0309 115.91 49.2509C116.23 48.6909 116.6 48.2109 117.06 47.7609C116.82 47.5209 116.59 47.2909 116.35 47.0509C115.57 47.8109 114.79 48.5709 114.02 49.3309C114.28 49.5309 114.54 49.7309 114.81 49.9409C115.31 49.0309 115.82 48.1209 116.32 47.2109C116.58 46.7309 115.91 46.1509 115.53 46.6009C115.21 46.9909 114.89 47.3809 114.57 47.7609C114.85 47.8309 115.13 47.9109 115.41 47.9809C115.58 47.6509 115.81 47.3809 116.1 47.1609C116.53 46.7909 115.96 46.0509 115.49 46.3709C115.05 46.6709 114.61 46.9809 114.18 47.2809C114.42 47.4709 114.67 47.6609 114.91 47.8409C115.03 47.2209 115.25 46.7109 115.61 46.1909C115.31 46.0609 115 45.9309 114.7 45.8009C114.54 46.4309 114.31 46.9109 113.88 47.4109C114.16 47.4809 114.44 47.5609 114.72 47.6309C114.61 47.3509 114.53 47.0709 114.46 46.7909C114.13 46.1809 114.3 45.7909 114.98 45.6309C114.7 45.7009 114.42 45.7809 114.14 45.8509C114.66 46.2509 115.44 47.0509 116.18 46.8309C115.57 47.0209 115.83 47.9809 116.45 47.7909C118.32 47.2109 114.89 44.3509 114.45 46.3309C114.3 47.0209 115.08 47.5609 115.67 47.1809C116.71 46.5109 115.33 45.5209 114.85 45.1409C114.58 44.9309 114.1 44.9509 114.01 45.3609C113.51 47.6409 116.41 47.0409 115.72 45.5509C115.4 44.8609 114.48 44.6609 113.84 45.0509C112.9 45.6309 113.47 47.0909 113.74 47.8909C113.85 48.2209 114.31 48.4209 114.58 48.1109C115.12 47.4809 115.45 46.8709 115.65 46.0609C115.79 45.4909 115.05 45.2209 114.74 45.6709C114.32 46.2809 114.08 46.8309 113.94 47.5509C113.86 47.9409 114.29 48.3809 114.67 48.1109C115.11 47.8109 115.55 47.5009 115.98 47.2009C115.78 46.9409 115.58 46.6809 115.37 46.4109C114.83 46.8709 114.22 47.4409 114.42 48.2009C114.51 48.5409 115.01 48.7209 115.26 48.4209C115.58 48.0309 115.9 47.6409 116.22 47.2609C115.96 47.0609 115.7 46.8609 115.43 46.6509C114.93 47.5609 114.42 48.4709 113.92 49.3809C113.65 49.8709 114.29 50.3909 114.71 49.9909C115.49 49.2309 116.27 48.4709 117.04 47.7109C117.5 47.2609 116.79 46.5509 116.33 47.0009C115.8 47.5209 115.39 48.0409 115.02 48.6909C114.78 49.1109 115.27 49.6509 115.7 49.3709C117.11 48.4909 117.86 48.2509 117.15 46.5309C116.63 45.2709 115.47 43.9209 113.99 43.9409C113.3 43.9509 112.02 44.4909 112.18 45.3709C112.37 46.4309 113.94 46.3009 114.49 45.7209C114.64 45.5609 114.68 45.3109 114.57 45.1109C114.11 44.3109 113.34 44.6409 112.97 45.3309C112.2 46.7809 113.01 48.6109 113.74 49.8709C114.03 50.3709 114.78 50.0309 114.65 49.4809C114.34 48.1409 114.07 46.7909 113.84 45.4309C113.76 44.9409 112.98 44.9709 112.88 45.4309C112.56 46.7809 113.13 48.3309 113.83 49.4909C114.11 49.9609 114.93 49.6609 114.74 49.1009C114.26 47.6809 113.64 46.3609 112.86 45.0909C112.54 44.5809 111.87 44.9409 111.95 45.4809C112.19 47.0909 112.43 48.7009 112.66 50.3109C112.74 50.8609 113.69 50.7409 113.64 50.1809C113.55 49.0309 113.34 46.5809 112.08 46.0709C111.92 46.0109 111.7 46.0809 111.59 46.2009C110.66 47.2009 112.25 49.9309 112.67 50.9309C112.91 51.5109 113.86 51.2809 113.63 50.6609C113.33 49.8309 113.12 49.0209 113 48.1509C112.91 47.5509 112.07 47.7709 112.02 48.2809C111.95 49.0009 111.76 49.8809 111.97 50.5909C112.02 50.7509 112.15 50.9109 112.32 50.9409C112.96 51.0609 113.55 50.7709 114.09 50.4409C114.64 50.1009 114.16 49.2909 113.59 49.5809C113.13 49.8109 112.86 50.0709 112.58 50.5009C112.32 50.8909 112.75 51.3209 113.14 51.2309C114.24 51.0009 115.24 50.6309 116.24 50.1109C116.77 49.8309 116.38 49.1009 115.85 49.2009C115.27 49.3109 112.92 50.1409 114.07 51.1609C115.1 52.0709 116.32 50.0209 116.6 49.3409C116.79 48.8809 116.08 48.4809 115.76 48.8509C115.31 49.3909 115.12 49.8509 115.18 50.5609C115.22 51.0309 115.86 51.2709 116.11 50.8109C116.6 49.9309 116.97 49.0409 117.26 48.0709C117.45 47.4409 116.51 47.2109 116.3 47.8009C116.18 48.1409 116.05 48.4809 115.93 48.8209C116.25 48.9109 116.57 49.0009 116.89 49.0909C116.92 48.9509 117.25 47.5609 117.41 47.5609C117.25 47.4409 117.09 47.3209 116.93 47.1909C117.1 47.6909 117.04 48.4509 117.06 48.9709C117.39 48.9709 117.73 48.9709 118.06 48.9709C118.04 48.3409 118.03 47.7909 118.15 47.1609C117.85 47.2009 117.54 47.2409 117.24 47.2809C117.53 47.8209 117.81 48.3609 118.1 48.9009C118.33 49.3209 119.07 49.1509 119.03 48.6509C118.89 46.8609 117.75 45.2209 116.39 44.0809C115.09 42.9909 114.29 42.6609 112.89 43.7109C112.53 43.9809 112.6 44.6609 113.14 44.6409C113.38 44.6209 113.63 44.6209 113.87 44.6409C113.79 44.3309 113.7 44.0209 113.62 43.7109C112.51 44.3209 112.02 44.5809 111.46 45.8109C110.9 47.0309 110.61 48.3009 110.5 49.6309C110.46 50.0509 111.08 50.3109 111.35 49.9809C112.04 49.1509 112.01 47.9209 112.08 46.8909C112.12 46.3109 111.26 46.2409 111.1 46.7609C110.84 47.5709 110.88 48.4709 110.82 49.3209C110.78 49.9109 110.64 50.4309 111.11 50.8309C111.41 51.0809 112 50.9509 111.96 50.4809C111.91 49.9609 111.83 49.5309 111.66 49.0409C111.36 49.1709 111.05 49.3009 110.75 49.4309C111 49.9509 111.27 50.4509 111.58 50.9509C111.89 51.4509 112.6 51.1109 112.49 50.5609C112.4 50.0809 112.31 49.5909 112.22 49.1109C112.13 48.5609 111.17 48.8309 111.29 49.4609Z" fill="black"/>
<path d="M110.423 40.1353L109.207 41.3516L112.7 44.8446L113.916 43.6284L110.423 40.1353Z" fill="black"/>
<path d="M109.15 41.3408L104.3 40.1108C103.95 40.0208 103.74 39.6708 103.83 39.3208L103.91 38.9908C104 38.6408 104.35 38.4308 104.7 38.5208L109.55 39.7508C109.9 39.8408 110.11 40.1908 110.02 40.5408L109.94 40.8708C109.86 41.2208 109.5 41.4308 109.15 41.3408Z" fill="black"/>
<path d="M109.44 40.26C109.73 40.26 109.99 40.35 110.14 40.61C110.3 40.89 110.74 40.64 110.57 40.36C110.3 39.91 109.95 39.76 109.44 39.77C109.12 39.76 109.12 40.26 109.44 40.26Z" fill="black"/>
<path d="M109.76 40.5892C109.77 40.5992 109.85 40.6892 109.83 40.6592C109.83 40.5792 109.83 40.4892 109.83 40.4092C109.82 40.4192 109.82 40.4392 109.81 40.4492C109.9 40.4092 110 40.3692 110.09 40.3392C109.91 40.2892 109.75 40.1292 109.56 40.0692C109.3 39.9892 109.17 40.3092 109.32 40.4892C109.36 40.5392 109.52 40.6792 109.53 40.7492C109.59 40.6692 109.65 40.5892 109.71 40.5092C109.79 40.4792 109.57 40.4092 109.54 40.3992C109.44 40.3792 109.3 40.4092 109.26 40.5092C109.2 40.6492 109.21 40.9792 109.38 40.7592C109.55 40.5292 109.2 40.7292 109.17 40.8992C109.23 40.8392 109.29 40.7792 109.34 40.7292C109.2 40.7892 109.13 40.8192 109.07 40.9692C108.95 41.2692 109.44 41.3992 109.55 41.0992C109.55 41.0892 109.56 41.0792 109.56 41.0692C109.5 41.1292 109.44 41.1892 109.39 41.2392C109.49 41.1992 109.56 41.1692 109.63 41.0892C109.74 40.9592 109.41 41.0992 109.54 41.1292C109.57 41.1392 109.67 41.0992 109.68 41.0892C109.91 40.8892 109.8 40.7492 109.68 40.5392C109.68 40.6192 109.68 40.7092 109.68 40.7892C109.68 40.7792 109.69 40.7692 109.69 40.7692C109.6 40.8092 109.5 40.8492 109.41 40.8792C109.58 40.9092 109.66 41.0492 109.85 40.9892C109.95 40.9492 110.04 40.8592 110.03 40.7492C110.02 40.4892 109.83 40.3292 109.68 40.1392C109.6 40.2792 109.52 40.4192 109.44 40.5592C109.64 40.6192 109.78 40.7792 109.97 40.8292C110.07 40.8592 110.2 40.8092 110.25 40.7192C110.36 40.5092 110.25 40.4092 110.12 40.2492C109.9 39.9892 109.55 40.3492 109.76 40.5892Z" fill="black"/>
<path d="M112.11 44.7709C113.9 44.6409 115.75 45.9009 117.13 46.9209C117.39 47.1109 117.64 46.6809 117.38 46.4909C115.92 45.4209 113.99 44.1409 112.1 44.2709C111.79 44.2909 111.79 44.7909 112.11 44.7709Z" fill="black"/>
<path d="M110.58 43.9099C109.96 46.5299 108.39 50.2999 110.7 52.4599C110.93 52.6799 111.29 52.3299 111.05 52.1099C109.02 50.2099 110.49 46.3999 111.06 44.0399C111.14 43.7299 110.66 43.5999 110.58 43.9099Z" fill="white"/>
<path d="M109.53 45.4609C109.26 46.8309 109.14 48.2109 109.17 49.6109C109.34 49.6109 109.5 49.6109 109.67 49.6109C109.6 48.8109 109.5 47.9609 109.68 47.1609C109.84 46.4909 110.22 45.9209 110.46 45.2909C110.54 45.0709 110.27 44.9209 110.09 45.0109C109.54 45.2809 109.28 46.0209 109.03 46.5509C108.7 47.2409 108.45 47.9509 108.24 48.6909C108.18 48.9209 108.42 49.0609 108.61 48.9709C109.2 48.7109 109.39 48.1409 109.39 47.5209C109.39 47.3209 109.11 47.1709 108.96 47.3409C108.62 47.7409 108.43 48.1209 108.34 48.6309C108.5 48.6509 108.67 48.6709 108.83 48.7009C108.78 48.4509 108.81 48.2109 108.9 47.9709C108.99 47.6609 108.51 47.5309 108.42 47.8409C108.33 48.1409 108.31 48.3909 108.33 48.7009C108.35 48.9609 108.77 49.0609 108.82 48.7709C108.89 48.3509 109.02 48.0309 109.31 47.7009C109.17 47.6409 109.03 47.5809 108.88 47.5209C108.88 47.9509 108.78 48.3509 108.35 48.5409C108.47 48.6309 108.59 48.7309 108.72 48.8209C108.9 48.1809 109.12 47.5509 109.4 46.9409C109.6 46.5109 109.89 45.6709 110.34 45.4509C110.22 45.3609 110.1 45.2609 109.97 45.1709C109.69 45.9209 109.26 46.5409 109.14 47.3509C109.02 48.1109 109.09 48.8709 109.16 49.6309C109.19 49.9409 109.67 49.9609 109.66 49.6309C109.63 48.2709 109.74 46.9409 110 45.6109C110.07 45.2809 109.59 45.1409 109.53 45.4609Z" fill="white"/>
<path d="M111.58 52.9196C111.59 52.4996 111.56 52.0996 111.49 51.6896C111.44 51.3696 110.96 51.5096 111.01 51.8196C111.07 52.1896 111.09 52.5496 111.08 52.9196C111.07 53.2396 111.57 53.2396 111.58 52.9196Z" fill="black"/>
<path d="M114.3 48.1292C114.32 48.1992 114.35 48.2592 114.37 48.3292C114.54 48.3292 114.7 48.3292 114.87 48.3292C114.87 48.3192 114.87 48.3192 114.87 48.3092C114.85 48.0892 114.61 47.9792 114.44 48.1292C114.29 48.2592 114.22 48.5392 114.14 48.7192C114.02 49.0192 114.5 49.1492 114.62 48.8492C114.67 48.7192 114.73 48.5992 114.79 48.4792C114.65 48.4192 114.51 48.3592 114.36 48.2992C114.36 48.3092 114.36 48.3092 114.36 48.3192C114.39 48.6392 114.85 48.6492 114.86 48.3192C114.87 48.0292 114.76 47.8592 114.54 47.6892C114.3 47.4992 114.05 47.9392 114.3 48.1292Z" fill="black"/>
<path d="M109.66 46.4899C109.63 46.6099 109.6 46.7199 109.55 46.8199C109.42 47.1099 109.85 47.3699 109.98 47.0699C110.05 46.9199 110.1 46.7799 110.14 46.6199C110.23 46.3099 109.75 46.1799 109.66 46.4899Z" fill="white"/>
</svg>
