<svg width="150" height="150" viewBox="0 0 150 150" fill="none" xmlns="http://www.w3.org/2000/svg">
<g clip-path="url(#clip0)">
<path d="M146.81 35.1309C148.1 35.1309 148.1 33.1309 146.81 33.1309C145.52 33.1309 145.52 35.1309 146.81 35.1309Z" fill="white"/>
<path d="M27.77 138.32L105.36 64.0898" stroke="black" stroke-width="0.5" stroke-miterlimit="10"/>
<path d="M37.8296 78.0013L113.79 8.53125" stroke="black" stroke-width="0.5" stroke-miterlimit="10"/>
<path d="M56.3399 78.0612L38.1099 78.0312" stroke="black" stroke-width="0.5" stroke-miterlimit="10"/>
<path d="M27.77 138.321L59.24 83.6211" stroke="black" stroke-width="0.5" stroke-miterlimit="10"/>
<path d="M88.1699 63.9805L105.36 64.0905" stroke="black" stroke-width="0.5" stroke-miterlimit="10"/>
<path d="M113.54 8.75L84.3599 57.89" stroke="black" stroke-width="0.5" stroke-miterlimit="10"/>
<path d="M56.3 78.3208C57.21 78.7508 58.09 79.3408 58.57 80.2608C59.06 81.1808 59.42 82.8408 58.86 83.7508C58.65 84.0808 59.18 84.3908 59.38 84.0608C60.03 83.0308 59.71 81.4208 59.27 80.3608C58.78 79.1508 57.75 78.3608 56.6 77.8108C56.26 77.6308 55.95 78.1508 56.3 78.3208Z" fill="black"/>
<path d="M56.1499 78.3514C56.4199 78.4214 56.6599 78.5114 56.9099 78.6414C57.2499 78.8214 57.5599 78.3014 57.2199 78.1214C56.9299 77.9714 56.6399 77.8514 56.3199 77.7614C55.9399 77.6714 55.7699 78.2514 56.1499 78.3514Z" fill="black"/>
<path d="M56.23 78.3613C56.31 78.3713 56.39 78.3813 56.47 78.3913C56.84 78.5213 57 77.9313 56.63 77.8113C56.45 77.7513 56.42 77.7413 56.23 77.7613C55.84 77.7913 55.84 78.4013 56.23 78.3613Z" fill="black"/>
<path d="M55.8599 78.3396C56.0199 78.3396 56.1899 78.3196 56.3499 78.3596C56.7299 78.4496 56.8899 77.8696 56.5099 77.7796C56.2899 77.7296 56.0899 77.7296 55.8599 77.7396C55.4699 77.7496 55.4699 78.3496 55.8599 78.3396Z" fill="black"/>
<path d="M56.37 77.7902C56.3 77.7802 56.23 77.7702 56.16 77.7602C55.78 77.7002 55.62 78.2802 56 78.3402C56.12 78.3602 56.25 78.3802 56.37 78.3902C56.75 78.4402 56.75 77.8402 56.37 77.7902Z" fill="black"/>
<path d="M84.01 57.8214C83.64 59.4314 83.41 61.2514 84.46 62.6614C85.47 64.0214 87.33 64.0814 88.87 64.3014C89.25 64.3514 89.42 63.7714 89.03 63.7214C87.82 63.5514 86.05 63.5014 85.15 62.5514C83.98 61.3214 84.25 59.4714 84.59 57.9714C84.68 57.6014 84.1 57.4414 84.01 57.8214Z" fill="black"/>
<path d="M84.4897 58.2106C84.5097 58.1906 84.5397 58.1706 84.5597 58.1406C84.8497 57.8706 84.4197 57.4506 84.1297 57.7106C84.1097 57.7306 84.0797 57.7506 84.0597 57.7806C83.7697 58.0506 84.1997 58.4706 84.4897 58.2106Z" fill="black"/>
<path d="M84.11 57.7396C83.99 58.0096 83.9 58.2796 83.86 58.5796C83.81 58.9596 84.39 59.1296 84.44 58.7396C84.47 58.4996 84.53 58.2696 84.63 58.0496C84.79 57.6996 84.27 57.3896 84.11 57.7396Z" fill="black"/>
<path d="M73.23 88.0312C81.34 88.0312 89.1 80.9012 88.73 72.5312C88.35 64.1313 81.92 57.0312 73.23 57.0312C65.12 57.0312 57.36 64.1613 57.73 72.5312C58.11 80.9312 64.54 88.0312 73.23 88.0312Z" fill="black"/>
<path d="M62.8499 79.6406C75.7199 79.6406 75.7399 59.6406 62.8499 59.6406C49.9799 59.6406 49.9599 79.6406 62.8499 79.6406Z" fill="black"/>
<path d="M71.5896 75.1514C73.7696 72.9514 75.8096 70.6214 77.7096 68.1714C79.4096 65.9814 80.6396 64.0014 80.6396 61.1014C80.6396 58.6514 79.5496 55.7214 77.7096 54.0314C75.7996 52.2814 73.2996 50.9814 70.6396 51.1014C68.1896 51.2114 65.1496 51.9914 63.5696 54.0314C61.6696 56.4814 59.6296 58.8014 57.4496 61.0114C53.7696 64.7314 53.4496 71.4814 57.4496 75.1514C61.4196 78.7914 67.6596 79.1214 71.5896 75.1514Z" fill="black"/>
<path d="M73.7396 68.9199C86.6096 68.9199 86.6296 48.9199 73.7396 48.9199C60.8696 48.9199 60.8496 68.9199 73.7396 68.9199Z" fill="black"/>
<path d="M69.1397 94.4512C82.0097 94.4512 82.0297 74.4512 69.1397 74.4512C56.2797 74.4512 56.2497 94.4512 69.1397 94.4512Z" fill="black"/>
<path d="M55.02 77.8398C63.38 77.8398 63.4 64.8398 55.02 64.8398C46.65 64.8398 46.64 77.8398 55.02 77.8398Z" fill="black"/>
<path d="M61.8696 72.641C61.7396 72.951 61.4596 74.051 61.0496 74.131C61.1196 74.121 61.6296 73.631 61.6496 73.561C61.5596 73.801 60.5696 74.321 61.3396 73.821C61.6896 73.601 62.0296 73.351 62.3696 73.121C63.6696 72.241 64.9696 71.361 66.2696 70.491C63.6396 67.091 61.0196 63.681 58.3896 60.281C58.9996 59.971 59.6096 59.661 60.2196 59.351C62.6696 62.531 65.1096 65.721 67.5596 68.901C68.0696 67.781 66.5296 69.821 67.4396 68.991C69.4796 67.131 69.9596 63.441 68.4596 61.111C66.9896 58.841 63.8696 57.091 61.1196 58.121C60.1696 58.471 59.2196 58.821 58.3896 59.391C55.5896 61.311 54.0596 65.191 56.0596 68.281C57.9796 71.261 61.7996 72.421 64.9496 70.611C65.8596 70.091 66.6996 69.431 67.4496 68.701C69.8796 66.311 70.0196 61.871 67.4496 59.511C64.8396 57.111 60.8496 56.961 58.2596 59.511C58.9696 59.061 59.0096 59.021 58.3896 59.391C60.5796 63.131 62.7596 66.871 64.9496 70.621C65.5496 70.251 65.4296 70.261 64.5796 70.661C62.4696 67.041 60.3596 63.421 58.2596 59.801C57.4996 60.501 56.7796 61.401 56.3496 62.341C55.2396 64.791 55.1296 67.321 56.8596 69.561C58.3296 71.461 61.2796 72.801 63.6896 71.891C65.1596 71.341 66.5796 70.721 67.5996 69.471C69.6796 66.951 70.2096 63.661 68.1096 60.941C66.2496 58.531 62.4196 57.441 59.7196 59.271C58.0196 60.421 56.2896 61.541 54.6196 62.721C52.0996 64.511 50.5396 66.301 49.3396 69.191C48.7396 70.641 49.2396 72.911 49.9996 74.201C50.7896 75.551 52.3396 76.831 53.8796 77.191C57.6596 78.041 60.4796 76.021 61.8696 72.641Z" fill="black"/>
<path d="M64.8998 69.9099C65.8998 69.5599 66.8998 69.1999 67.8898 68.8499C69.4998 68.2799 70.8898 67.3799 71.7698 65.8599C72.5898 64.4699 72.9298 62.4099 72.4298 60.8499C71.9198 59.2799 70.9498 57.7599 69.4398 56.9699C67.9598 56.1899 66.0698 55.7299 64.4298 56.3099C63.4298 56.6599 62.4298 57.0199 61.4398 57.3699C59.8298 57.9399 58.4398 58.8399 57.5598 60.3599C56.7398 61.7499 56.3998 63.8099 56.8998 65.3699C57.4098 66.9399 58.3798 68.4599 59.8898 69.2499C61.3798 70.0399 63.2598 70.4899 64.8998 69.9099Z" fill="black"/>
<path d="M78.7597 58.5809C79.0597 58.2809 79.3597 57.9809 79.6597 57.6709C81.9297 55.3909 82.1597 51.6409 80.1697 49.1409C78.3297 46.8409 74.4197 45.5109 71.7797 47.4709C71.3697 47.7709 70.9697 48.0709 70.5597 48.3709C73.1897 51.7709 75.8097 55.1809 78.4397 58.5809C79.3797 57.7509 80.3197 56.9209 81.2597 56.1009C77.5597 54.5709 73.8597 53.0409 70.1597 51.5009C70.2597 54.5409 70.3697 57.5809 70.4697 60.6209C70.6497 65.9209 77.6497 69.6109 81.5697 65.2209C83.1997 63.3909 83.7497 61.8609 83.9697 59.4709C79.6397 59.4709 75.2997 59.4709 70.9697 59.4709C71.0397 60.1309 71.1097 60.7909 71.1797 61.4409C71.5597 64.9309 73.8997 67.9409 77.6797 67.9409C81.1397 67.9409 84.2597 64.9709 84.1797 61.4409C84.1197 58.8309 84.2997 57.9609 85.6197 55.8109C87.1097 53.4009 88.5997 50.9909 90.0997 48.5809C93.3697 43.3009 86.6097 35.8209 81.2097 39.6909C78.7097 41.4809 76.2897 43.3609 73.9597 45.3609C71.2897 47.6409 71.6097 52.2109 73.9597 54.5509C76.5997 57.1909 80.4797 56.8409 83.1497 54.5509C84.6497 53.2709 86.1697 52.0609 87.7697 50.9109C84.8097 47.9509 81.8397 44.9809 78.8797 42.0209C77.0097 45.0309 74.9497 48.0009 73.2597 51.1209C71.4997 54.3609 71.0997 57.8109 71.1797 61.4509C75.5097 61.4509 79.8497 61.4509 84.1797 61.4509C84.1097 60.7909 84.0397 60.1309 83.9697 59.4809C83.0797 51.1809 71.7697 51.0709 70.9697 59.4809C70.9497 59.7009 70.9297 59.9209 70.9097 60.1409C71.5397 58.6109 72.1797 57.0809 72.8097 55.5409C72.6597 55.7009 72.5197 55.8709 72.3697 56.0309C76.0697 57.5609 79.7697 59.0909 83.4697 60.6309C83.3697 57.5909 83.2597 54.5509 83.1597 51.5109C82.9597 45.6809 76.2897 43.2009 72.0597 46.9109C71.1197 47.7409 70.1797 48.5709 69.2397 49.3909C63.7797 54.1909 71.1497 64.0309 77.1197 59.6009C77.5297 59.3009 77.9297 59.0009 78.3397 58.7009C75.7097 55.3009 73.0897 51.8909 70.4597 48.4909C70.1597 48.7909 69.8597 49.0909 69.5597 49.4009C63.6497 55.3109 72.8397 64.5109 78.7597 58.5809Z" fill="black"/>
<path d="M84.0999 53.1496C85.8599 52.0196 87.5499 50.6796 88.8999 49.0896C90.0399 47.7496 90.7999 46.2996 90.7999 44.4896C90.7999 42.8996 90.0899 40.9896 88.8999 39.8896C87.6599 38.7496 86.0299 37.9096 84.2999 37.9896C82.6199 38.0696 80.8699 38.6196 79.6999 39.8896C79.3399 40.2796 78.9799 40.6796 78.6099 41.0696C77.4499 42.3296 76.7099 43.9296 76.7099 45.6696C76.7099 47.2596 77.4199 49.1696 78.6099 50.2696C79.8499 51.4096 81.4799 52.2496 83.2099 52.1696C84.8899 52.0896 86.6399 51.5396 87.8099 50.2696C88.1699 49.8796 88.5299 49.4796 88.8999 49.0896C85.8399 46.0296 82.7699 42.9596 79.7099 39.8996C78.9999 40.7296 78.2299 41.4796 77.3699 42.1496C77.8099 41.8096 78.2499 41.4696 78.6899 41.1296C78.3199 41.4096 77.9399 41.6796 77.5499 41.9296C76.1399 42.8296 75.0099 44.1696 74.5599 45.8096C74.1299 47.3696 74.3199 49.4396 75.2199 50.8196C76.1099 52.2096 77.4499 53.4296 79.0999 53.8096C80.7599 54.1796 82.6199 54.0896 84.0999 53.1496Z" fill="black"/>
<path d="M88.3596 75.951C88.4296 75.911 88.4896 75.861 88.5596 75.821C88.0396 76.041 87.5196 76.261 87.0096 76.481C87.1496 76.411 87.2996 76.361 87.4596 76.341C86.8796 76.421 86.3096 76.491 85.7296 76.571C85.9796 76.551 86.1996 76.551 86.4596 76.581C85.8796 76.501 85.3096 76.431 84.7296 76.351C85.9096 76.561 87.0996 76.691 88.2796 76.851C87.6996 76.771 87.1296 76.701 86.5496 76.621C86.6096 76.641 86.6696 76.661 86.7296 76.681C86.2096 76.461 85.6896 76.241 85.1796 76.021C85.2196 76.051 85.2696 76.091 85.3096 76.121C84.3096 74.831 83.3196 73.531 82.3196 72.241C82.3396 72.291 82.3596 72.351 82.3796 72.401C82.3796 71.251 82.3796 70.101 82.3796 68.941C82.3696 68.991 82.3596 69.051 82.3396 69.101C82.8996 68.141 83.4496 67.191 84.0096 66.231C83.9696 66.271 83.9396 66.321 83.8996 66.361C84.3396 66.021 84.7796 65.681 85.2196 65.341C83.6096 66.461 82.2496 67.411 81.2496 69.171C79.8796 71.591 80.1396 75.091 82.2696 77.051C84.3396 78.951 87.6596 79.671 90.1496 78.071C91.4596 77.231 92.7096 76.261 93.8196 75.171C96.2396 72.771 96.3996 68.341 93.8196 65.981C91.2096 63.591 87.2096 63.421 84.6296 65.981C84.2396 66.371 83.8296 66.731 83.3996 67.081C83.8396 66.741 84.2796 66.401 84.7196 66.061C84.3596 66.341 83.9796 66.601 83.5996 66.851C86.5596 69.811 89.5296 72.781 92.4896 75.741C92.5596 75.601 92.6396 75.471 92.7396 75.341C92.3996 75.781 92.0596 76.221 91.7196 76.661C91.9196 76.411 92.1296 76.201 92.3796 76.001C91.9396 76.341 91.4996 76.681 91.0596 77.021C91.8096 76.521 92.4496 76.201 93.1496 75.501C94.8196 73.821 95.5296 71.241 94.9096 68.951C94.4596 67.251 93.2496 65.691 91.7296 64.811C90.4196 64.051 89.0496 63.911 87.5796 63.811C88.1596 63.891 88.7296 63.961 89.3096 64.041C88.2396 63.871 87.1796 63.581 86.0796 63.571C84.6496 63.551 82.9896 63.951 81.7896 64.751C80.3796 65.691 79.2596 66.971 78.7996 68.631C78.3696 70.191 78.5596 72.261 79.4596 73.641C80.3496 75.031 81.6896 76.251 83.3396 76.631C85.0096 76.981 86.9096 76.921 88.3596 75.951Z" fill="black"/>
<path d="M57.0698 75.7706C57.6298 77.4606 58.2498 79.1206 58.9398 80.7506C59.7598 82.7006 60.6898 84.1106 62.6998 84.9606C64.4198 85.6906 66.8898 85.8506 68.4798 84.6306C69.2498 84.0506 69.9098 83.5706 70.4898 82.8106C71.0698 82.0606 71.4098 81.2706 71.7298 80.3806C72.2698 78.8606 71.8698 76.7206 71.0698 75.3706C70.2798 74.0206 68.7298 72.7406 67.1898 72.3806C63.5498 71.5506 60.4198 73.4906 59.1898 76.9206C59.1598 76.9906 59.1398 77.0706 59.1098 77.1406C60.1098 75.8506 61.0998 74.5506 62.0998 73.2606C62.0398 73.3106 61.9798 73.3506 61.9098 73.4006C65.0898 74.6906 68.2798 75.9906 71.4598 77.2806C70.7698 75.6406 70.1498 73.9806 69.5898 72.3006C68.5198 69.0806 65.0598 66.6406 61.5898 67.7606C58.3998 68.8106 55.9198 72.3206 57.0698 75.7706Z" fill="black"/>
<path d="M60.63 79.2012C68.99 79.2012 69.01 66.2012 60.63 66.2012C52.27 66.2012 52.25 79.2012 60.63 79.2012Z" fill="black"/>
<path d="M82.2296 68.3713C81.4496 68.8513 80.6696 69.3313 79.8796 69.8113C82.8396 72.7713 85.8096 75.7413 88.7696 78.7013C88.8196 78.6213 88.8696 78.5413 88.9196 78.4613C87.6296 79.4613 86.3296 80.4513 85.0396 81.4513C85.1296 81.4213 85.2196 81.3913 85.3096 81.3613C82.8596 78.1813 80.4196 74.9913 77.9696 71.8113C77.8596 72.0313 77.7396 72.2413 77.6296 72.4613C74.9896 77.4913 79.3396 83.4113 84.9696 82.0113C85.2396 81.9413 85.5096 81.8813 85.7696 81.8113C84.0996 77.8513 82.4296 73.8913 80.7596 69.9313C77.6896 72.2313 74.7096 74.2113 74.3996 78.3913C74.1196 82.1713 77.6196 84.5213 80.8996 84.8913C80.9496 84.9013 81.0096 84.9013 81.0596 84.9113C83.6096 85.1913 86.9196 82.7013 87.3296 80.1413C87.3396 80.1013 87.3396 80.0613 87.3496 80.0213C87.8096 77.1313 87.0396 74.2513 84.3596 72.6813C81.8496 71.2113 78.5596 71.6913 76.4796 73.7013C74.1996 75.9113 71.8396 78.0413 69.4196 80.0913C72.4796 83.1513 75.5496 86.2213 78.6096 89.2813C78.4396 89.4213 78.2796 89.5613 78.1096 89.7013C77.0196 90.0013 75.9196 90.2913 74.8296 90.5913C74.9996 90.5813 75.1696 90.5613 75.3396 90.5513C73.8096 86.8513 72.2796 83.1513 70.7396 79.4513C70.6796 79.5313 69.4896 80.6913 69.9396 80.3813C67.0396 82.3513 65.7496 86.0913 67.6096 89.2713C69.2896 92.1413 73.5896 93.5913 76.4996 91.6013C77.7696 90.7313 78.9596 89.8313 79.9296 88.6413C81.6096 86.5713 82.4096 84.1313 81.2696 81.5413C80.2996 79.3413 77.9096 77.3213 75.3296 77.5413C72.9996 77.7413 71.0496 78.3613 69.3996 80.0813C66.9696 82.6113 66.8796 86.7513 69.3996 89.2713C72.0596 91.9313 75.8996 91.5413 78.5896 89.2713C81.0196 87.2213 83.3696 85.0913 85.6496 82.8813C82.0296 80.7713 78.4096 78.6613 74.7896 76.5613C74.7796 76.6013 74.7796 76.6413 74.7696 76.6813C76.8596 75.0913 78.9496 73.5013 81.0396 71.9113C80.9896 71.9013 80.9296 71.9013 80.8796 71.8913C83.0496 74.0613 85.2096 76.2213 87.3796 78.3913C87.3796 78.3313 87.3896 78.2613 87.3896 78.2013C86.7596 79.7313 86.1196 81.2613 85.4896 82.8013C85.9096 82.2813 87.0396 81.3613 87.2996 81.1713C89.8896 79.2313 91.3596 76.2413 89.9596 73.0513C88.6496 70.0613 85.5096 68.4913 82.2896 69.2913C82.0196 69.3613 81.7496 69.4213 81.4896 69.4913C83.9396 72.6713 86.3796 75.8613 88.8296 79.0413C88.9396 78.8213 89.0596 78.6113 89.1696 78.3913C91.6396 73.6813 87.4996 66.9313 81.8296 68.8413C79.9196 69.4813 78.5896 70.4713 77.5196 72.1613C74.0396 77.6713 80.9396 84.4113 86.4096 81.0513C87.1896 80.5713 87.9696 80.0913 88.7596 79.6113C95.9196 75.2413 89.3896 63.9913 82.2296 68.3713Z" fill="black"/>
<path d="M58.1496 87.6805C58.2796 87.0905 58.3996 86.5005 58.5296 85.9105C58.3296 86.2405 58.1296 86.5705 57.9196 86.8905C57.5696 87.4305 57.2196 87.9605 56.8496 88.4905C60.5896 90.6805 64.3296 92.8605 68.0796 95.0505C68.2996 94.6305 68.5396 94.2205 68.8096 93.8405C68.4996 94.2005 68.5996 94.0805 69.0996 93.4705C65.6996 90.8405 62.2896 88.2205 58.8896 85.5905C58.5596 86.0405 58.2196 86.4805 57.8896 86.9305C61.8496 88.6005 65.8096 90.2705 69.7696 91.9405C69.9196 91.3605 70.0796 90.7905 70.2296 90.2105C71.0696 87.0705 69.4296 83.7905 66.4696 82.5405C63.7796 81.4105 59.6396 82.2305 58.3496 85.2005C57.7096 86.6705 56.6096 87.9705 55.9396 89.4605C55.5796 90.2505 55.2496 91.0405 54.8596 91.8205C54.6696 92.2005 54.4696 92.5805 54.2596 92.9605C54.1596 93.1405 53.3596 94.2105 53.9796 93.4705C57.5996 95.5805 61.2196 97.6905 64.8396 99.7905C64.7796 100.101 64.6296 100.351 64.3796 100.551C66.5396 97.9305 67.1396 93.8905 64.3796 91.3605C61.9896 89.1705 57.4996 88.5605 55.1896 91.3605C53.8596 92.9705 53.0396 94.3605 52.2996 96.3405C50.0696 102.321 59.0696 107.571 63.1596 102.661C64.7496 100.751 65.8796 98.8705 66.8796 96.6205C67.6396 94.9305 68.8396 93.4205 69.5596 91.7705C65.5996 90.1005 61.6396 88.4305 57.6796 86.7605C57.5296 87.3405 57.3696 87.9105 57.2196 88.4905C56.3796 91.6305 58.0196 94.9105 60.9796 96.1605C64.1696 97.5105 67.1296 96.1305 69.0996 93.5005C69.4296 93.0505 69.7696 92.6105 70.0996 92.1605C72.0296 89.5705 70.7396 85.5605 68.4296 83.7705C66.0896 81.9605 61.9396 81.7605 59.8996 84.2805C58.7996 85.6305 57.6896 86.9805 56.8396 88.5005C55.1896 91.4705 56.0196 95.7305 59.1696 97.3905C62.4796 99.1405 65.9996 98.0505 68.0596 95.0605C69.6796 92.7105 70.8596 90.5805 71.1296 87.6905C71.4496 84.2905 67.9096 81.0405 64.6296 81.1905C60.8496 81.3505 58.4896 84.0405 58.1496 87.6805Z" fill="black"/>
<path d="M69.1996 81.91C66.8296 82.35 65.0696 84.18 63.3696 85.73C60.9796 87.92 60.9696 91.82 62.8596 94.26C64.8296 96.81 68.4096 97.56 71.2496 95.93C71.9196 95.55 74.2396 93.78 71.9996 95.25C70.9096 95.55 69.8096 95.84 68.7196 96.14C68.7796 96.14 68.8296 96.14 68.8896 96.14C67.7996 95.84 66.6996 95.55 65.6096 95.25C65.6596 95.28 65.6996 95.31 65.7496 95.34C64.7496 94.05 63.7596 92.75 62.7596 91.46C62.7696 91.51 62.7796 91.56 62.7996 91.61C63.0196 89.94 63.2396 88.27 63.4596 86.6C64.1896 85.69 64.2696 85.48 63.7196 85.97C63.9496 85.79 64.1696 85.62 64.3996 85.44C63.6496 85.87 62.9496 86.54 62.2896 87.07C61.6096 87.61 60.9796 88.17 60.4196 88.84C58.2996 91.33 57.8296 94.68 59.9096 97.37C61.7596 99.77 65.6096 100.89 68.2996 99.04C68.5396 98.87 68.7796 98.71 69.0296 98.54C71.8296 96.62 73.3596 92.74 71.3596 89.65C69.5696 86.87 65.4696 85.26 62.4696 87.32C62.2296 87.49 61.9896 87.65 61.7396 87.82C64.3696 91.22 66.9896 94.63 69.6196 98.03C69.9696 97.63 70.3296 97.25 70.7296 96.9C70.9296 96.73 71.1296 96.56 71.3396 96.39C70.5496 97 70.4296 97.09 70.9696 96.67C72.8096 95.25 74.6896 94 75.3496 91.61C76.3196 88.1 74.1296 84.33 70.6296 83.37C68.8996 82.89 67.0096 83.14 65.4496 84.02C64.9096 84.37 64.3996 84.75 63.9196 85.18C63.5096 85.68 63.7596 85.52 64.6896 84.7C67.3196 88.1 69.9396 91.51 72.5696 94.91C72.9696 94.54 73.3796 94.17 73.7796 93.8C74.9296 92.76 73.0696 94.35 72.6596 94.42C76.0096 93.8 78.2196 89.56 77.1996 86.42C76.0396 82.87 72.7896 81.25 69.1996 81.91Z" fill="black"/>
<path d="M49.1597 67.9009C46.9497 69.7409 45.0397 71.9409 42.6997 73.6309C40.9297 74.9109 41.2297 78.5809 43.9597 78.2909C47.1097 77.9509 50.2397 77.9309 53.3997 78.2309C56.5997 78.5309 56.5797 73.5309 53.3997 73.2309C50.2497 72.9309 47.1097 72.9509 43.9597 73.2909C44.3797 74.8409 44.7997 76.4009 45.2197 77.9509C47.9197 76.0109 50.1497 73.5709 52.6897 71.4409C55.1697 69.3709 51.6197 65.8509 49.1597 67.9009Z" fill="black"/>
<path d="M41.3999 76.8708C41.4499 77.0008 41.4699 77.1308 41.4899 77.2608C41.6299 77.1808 41.7799 77.0908 41.9199 77.0108C42.1599 77.0108 41.7999 76.9108 41.7099 76.8708C41.5399 76.8008 41.3399 76.7508 41.1499 76.7408C40.7499 76.7208 40.3999 76.8308 40.0599 77.0308C39.6599 77.2708 39.7999 78.0108 40.3099 77.9608C40.9299 77.9008 41.5399 77.8708 42.1599 77.9408C42.1199 77.6108 42.0699 77.2908 42.0299 76.9608C40.9099 77.1308 39.7899 76.9708 38.6799 77.2008C38.7699 77.5208 38.8599 77.8408 38.9499 78.1608C39.6299 77.9808 40.1999 77.6208 40.6399 77.0708C40.9399 76.6908 40.6699 76.1108 40.1499 76.2308C39.8199 76.3108 39.5299 76.4208 39.2199 76.5608C38.7099 76.7908 39.0799 77.6808 39.6099 77.4708C40.7099 77.0308 41.4899 76.0808 42.5799 75.6508C42.4199 75.3708 42.2599 75.0908 42.0899 74.8108C41.4599 75.3208 40.8399 75.8608 40.2399 76.4108C39.8699 76.7508 40.2599 77.3908 40.7299 77.2508C41.4099 77.0508 42.0799 76.8208 42.7499 76.5908C42.6199 76.2908 42.4899 75.9808 42.3599 75.6808C42.2099 75.7608 41.7399 76.0208 41.5399 75.9608C41.6599 76.1208 41.7799 76.2808 41.9099 76.4408C41.9299 76.0408 42.1999 75.5108 42.3199 75.1208C42.4399 74.7208 41.9499 74.3008 41.5899 74.5608C41.3099 74.7608 41.0399 74.9708 40.7899 75.2008C40.3099 75.6408 41.0199 76.3408 41.4999 75.9108C41.6899 75.7308 41.8899 75.5708 42.0999 75.4308C41.8599 75.2408 41.6099 75.0508 41.3699 74.8708C41.2199 75.3608 40.9499 75.9408 40.9299 76.4508C40.9199 76.6708 41.0899 76.8708 41.2999 76.9308C41.8199 77.0808 42.4399 76.7808 42.8899 76.5508C43.3899 76.3008 43.0399 75.4508 42.4999 75.6408C41.8299 75.8708 41.1599 76.1008 40.4799 76.3008C40.6399 76.5808 40.7999 76.8608 40.9699 77.1408C41.5699 76.5908 42.1899 76.0508 42.8199 75.5408C43.1999 75.2308 42.7899 74.5208 42.3299 74.7008C41.2299 75.1308 40.4499 76.0808 39.3599 76.5208C39.4899 76.8208 39.6199 77.1308 39.7499 77.4308C39.9799 77.3208 40.1899 77.2608 40.4399 77.2008C40.2799 76.9208 40.1199 76.6408 39.9499 76.3608C39.6099 76.7908 39.2299 77.0608 38.6999 77.2008C38.0699 77.3708 38.3399 78.2908 38.9699 78.1608C40.0699 77.9308 41.2099 78.0908 42.3199 77.9208C42.9299 77.8308 42.6899 77.0008 42.1899 76.9408C41.5699 76.8608 40.9599 76.9008 40.3399 76.9608C40.4199 77.2708 40.5099 77.5808 40.5899 77.8908C41.1599 77.5608 41.4199 78.0008 41.9399 78.0008C42.0999 78.0008 42.2999 77.9108 42.3699 77.7508C42.5499 77.3608 42.4999 77.0008 42.3799 76.5908C42.1799 75.9908 41.2199 76.2508 41.3999 76.8708Z" fill="black"/>
<path d="M37.7199 77.7811C37.7099 77.7811 37.6999 77.7911 37.6899 77.7911C37.6199 77.8311 37.5599 77.9211 37.5699 78.0111C37.5699 78.0211 37.5699 78.0311 37.5699 78.0411C37.5799 78.1511 37.6399 78.2511 37.7499 78.2811C38.0199 78.3611 38.3499 78.3111 38.6299 78.3011C38.9499 78.2911 38.9499 77.7911 38.6299 77.8011C38.4099 77.8111 38.0999 77.8611 37.8899 77.8011C37.9499 77.8811 38.0099 77.9611 38.0699 78.0411C38.0699 78.0311 38.0699 78.0211 38.0699 78.0111C38.0299 78.0811 37.9899 78.1511 37.9499 78.2311C37.9599 78.2311 37.9699 78.2211 37.9799 78.2211C38.2499 78.0511 37.9999 77.6211 37.7199 77.7811Z" fill="black"/>
<path d="M27.7998 138.031H27.7898C27.4698 138.031 27.4698 138.531 27.7898 138.531H27.7998C28.1298 138.531 28.1298 138.031 27.7998 138.031Z" fill="black"/>
<path d="M105.54 64.26C105.77 64.03 105.42 63.67 105.19 63.9C105.19 63.9 105.19 63.9 105.18 63.91C104.96 64.14 105.31 64.49 105.54 64.26Z" fill="black"/>
<path d="M113.76 8.81055C114.08 8.81055 114.08 8.31055 113.76 8.31055C113.44 8.31055 113.44 8.81055 113.76 8.81055Z" fill="black"/>
<path d="M113.51 8.50043C113.28 8.85043 113.04 9.19043 112.78 9.51043C112.58 9.76043 112.93 10.1104 113.13 9.86043C113.42 9.50043 113.69 9.13043 113.94 8.75043C114.11 8.49043 113.68 8.24043 113.51 8.50043Z" fill="black"/>
<path d="M51.99 96.7701C51.84 97.0001 51.7 97.2201 51.55 97.4501C53.71 98.7101 55.87 99.9701 58.03 101.24C58.16 100.8 58.38 100.41 58.71 100.08C56.43 99.1202 54.14 98.1502 51.86 97.1902C51.53 98.1102 51.19 99.0301 50.86 99.9501C53.32 100.28 55.77 100.61 58.23 100.95C58.2 100.58 58.17 100.2 58.14 99.8302C57.86 96.4402 52.95 94.3302 51.15 97.9402C48.15 103.94 44.93 109.69 40.94 115.1C38.07 118.99 44.58 122.73 47.42 118.89C51.41 113.48 54.63 107.73 57.63 101.73C55.3 101.1 52.97 100.47 50.64 99.8401C50.67 100.21 50.7 100.59 50.73 100.96C51.08 105.21 56.63 106.01 58.1 101.96C58.43 101.04 58.77 100.12 59.1 99.2001C60.68 94.8501 54.59 93.2301 52.25 96.3101C51.93 96.6401 51.7 97.0302 51.57 97.4702C49.71 101.81 55.37 105.43 58.05 101.26C58.2 101.03 58.34 100.81 58.49 100.58C61.08 96.4902 54.59 92.7201 51.99 96.7701Z" fill="black"/>
<path d="M47.83 119.341C49.77 116.941 51.83 114.691 54.04 112.541C52.08 111.031 50.11 109.511 48.15 108.001C47.39 109.001 46.63 110.001 45.87 110.991C43.21 114.491 48.78 118.331 51.76 115.531C57.44 110.191 63.11 104.801 68.44 99.1011C71.73 95.5811 66.44 90.2611 63.14 93.8011C57.81 99.5011 52.14 104.891 46.46 110.231C48.42 111.741 50.39 113.261 52.35 114.771C53.11 113.771 53.87 112.771 54.63 111.781C57.27 108.311 51.7 104.361 48.74 107.241C46.53 109.391 44.47 111.641 42.53 114.041C39.52 117.761 44.79 123.101 47.83 119.341Z" fill="black"/>
<path d="M51.57 112.451C51.78 111.331 52.8 110.391 53.4 109.431C54.23 108.081 55.03 106.711 55.84 105.361C56.88 103.621 56.23 101.241 54.49 100.231C52.63 99.1406 50.52 99.9106 49.36 101.581C48.92 102.211 48.49 102.841 48.05 103.471C50.33 104.431 52.62 105.401 54.9 106.361C54.92 106.231 54.94 106.101 54.96 105.971C54.39 106.721 53.81 107.461 53.24 108.211C53.35 108.131 53.45 108.051 53.56 107.971C52.05 106.011 50.53 104.041 49.02 102.081C48 103.201 47.62 104.261 47.45 105.771C47.04 109.471 52.84 110.881 54.44 107.661C54.94 106.661 55.43 105.671 55.93 104.671C56.83 102.861 56.42 100.611 54.58 99.5406C52.92 98.5706 50.35 99.0606 49.45 100.891C48.95 101.891 48.46 102.881 47.96 103.881C50.29 104.511 52.62 105.141 54.95 105.771C54.96 105.641 54.98 105.511 54.99 105.381C54.82 106.011 54.65 106.641 54.48 107.271C54.43 107.311 54.37 107.341 54.32 107.381C55.57 106.001 55.81 103.951 54.61 102.461C53.56 101.141 51.29 100.361 49.77 101.491C48.73 102.271 47.88 103.021 47.67 104.361C47.02 108.521 52 110.891 54.52 107.251C54.96 106.621 55.39 105.991 55.83 105.361C53.67 104.101 51.51 102.841 49.35 101.571C48.45 103.081 47.58 104.611 46.63 106.081C45.71 107.501 44.65 108.731 44.32 110.451C43.94 112.441 44.87 114.501 46.94 115.061C48.78 115.571 51.19 114.451 51.57 112.451Z" fill="black"/>
<path d="M50.1397 110.67C54.9697 110.67 54.9697 103.17 50.1397 103.17C45.3197 103.17 45.3097 110.67 50.1397 110.67Z" fill="black"/>
<path d="M39.6296 117.92C39.4296 118.82 38.5096 119.73 37.9996 120.49C37.3896 121.4 36.7896 122.3 36.1796 123.21C35.0596 124.88 37.5496 126.73 38.9296 125.33C39.5696 124.68 40.3396 124.29 41.0996 123.79C41.7896 123.34 42.4596 122.58 43.2396 122.3C42.6696 121.33 42.0996 120.35 41.5396 119.38C40.1596 120.99 38.7296 122.46 37.4596 124.18C36.2196 125.86 38.7996 127.54 40.2096 126.3C41.1396 125.48 42.2096 124.84 43.1396 124.02C44.0696 123.19 44.9296 122.27 45.8196 121.39C47.4296 119.81 44.9496 117.33 43.3496 118.92C42.4696 119.79 41.6196 120.76 40.6696 121.55C39.7096 122.34 38.6796 123 37.7396 123.83C38.6596 124.54 39.5696 125.24 40.4896 125.95C41.5796 124.47 42.8396 123.24 44.0196 121.86C45.0496 120.66 44.0996 118.29 42.3196 118.94C41.1596 119.36 40.3596 120.12 39.3396 120.78C38.3396 121.44 37.3096 122 36.4596 122.87C37.3796 123.58 38.2896 124.28 39.2096 124.99C39.9196 123.93 40.6196 122.88 41.3296 121.82C41.9496 120.89 42.7596 119.97 43.0096 118.86C43.4996 116.65 40.1296 115.72 39.6296 117.92Z" fill="black"/>
<path d="M35.3196 125.11C34.9096 125.68 34.6596 126.31 34.2996 126.91C34.0296 127.37 33.5096 127.88 33.1996 128.43C32.7696 129.18 32.9596 130.17 33.6496 130.69C34.3896 131.24 35.2596 131.13 35.9496 130.55C37.1496 129.55 38.2696 128.48 39.3196 127.32C39.9496 126.62 40.0096 125.54 39.3196 124.85C38.6796 124.21 37.4796 124.15 36.8496 124.85C35.8096 126.01 34.6796 127.09 33.4796 128.08C34.3996 128.79 35.3096 129.49 36.2296 130.2C36.5196 129.69 36.9896 129.25 37.3296 128.68C37.6896 128.09 37.9396 127.45 38.3496 126.88C38.8996 126.11 38.4896 124.93 37.7196 124.49C36.8296 123.97 35.8696 124.34 35.3196 125.11Z" fill="black"/>
<path d="M34.1398 130.901C33.9098 130.751 33.7298 130.831 33.5898 131.141C33.2298 131.471 33.5998 132.151 34.0798 131.981C34.4198 131.861 34.5298 131.801 34.7898 131.541C35.1898 131.141 34.6798 130.461 34.1798 130.751C33.2198 131.331 32.3498 131.991 31.5198 132.741C31.1098 133.121 31.6598 133.871 32.1298 133.531C32.5798 133.201 33.0198 132.851 33.4498 132.501C33.1898 132.301 32.9298 132.101 32.6598 131.891C32.4098 132.301 32.1398 132.681 31.8198 133.031C31.4598 133.431 31.9198 134.131 32.4298 133.821C33.2498 133.301 33.9498 132.781 34.5398 132.011C34.8798 131.571 34.2498 131.151 33.8598 131.331C33.2798 131.591 32.7098 131.851 32.1298 132.111C32.3598 132.341 32.5898 132.571 32.8098 132.791C33.2498 132.101 33.6998 131.411 34.1398 130.731C34.4498 130.261 33.7398 129.701 33.3498 130.121C32.9398 130.571 32.5398 131.021 32.1298 131.471C32.3898 131.671 32.6498 131.871 32.9198 132.081C33.2198 131.391 33.5398 130.721 33.8798 130.051C34.1198 129.571 33.4898 129.001 33.0898 129.441C32.6098 129.981 32.2798 130.581 31.9298 131.211C31.4998 131.981 30.9198 132.621 30.4698 133.371C30.1398 133.921 30.9998 134.421 31.3298 133.871C31.4898 133.571 31.6898 133.321 31.9498 133.101C31.7098 132.861 31.4798 132.631 31.2398 132.391C30.8298 132.911 30.4298 133.431 30.0198 133.951C29.6798 134.381 30.0898 135.021 30.6298 134.741C31.0398 134.521 31.4198 134.301 31.7998 134.041C31.5998 133.781 31.3998 133.521 31.1898 133.251C30.8998 133.481 30.6198 133.711 30.3298 133.941C29.8798 134.301 30.4598 135.001 30.9398 134.731C31.3398 134.501 31.7298 134.281 32.1298 134.051C31.8998 133.821 31.6698 133.591 31.4498 133.371C31.1798 133.731 30.9198 133.991 30.5798 134.261C30.1398 134.621 30.7098 135.351 31.1898 135.051C31.3598 134.941 31.5198 134.831 31.6898 134.731C31.4898 134.471 31.2898 134.211 31.0798 133.941C30.5898 134.361 30.0998 134.761 29.5798 135.151C29.7798 135.411 29.9798 135.671 30.1898 135.941C30.3498 135.781 30.4998 135.621 30.6398 135.451C30.3798 135.251 30.1198 135.051 29.8498 134.841C29.4998 135.291 29.1598 135.751 28.8098 136.201C28.4198 136.711 29.2898 137.211 29.6698 136.701C30.0198 136.251 30.3598 135.791 30.7098 135.341C31.0498 134.891 30.2898 134.301 29.9198 134.731C29.7798 134.901 29.6298 135.071 29.4698 135.221C29.0898 135.611 29.5998 136.361 30.0798 136.011C30.6598 135.571 31.2298 135.121 31.7798 134.651C32.2098 134.281 31.6498 133.561 31.1698 133.861C30.9998 133.971 30.8398 134.081 30.6698 134.181C30.8698 134.441 31.0698 134.701 31.2798 134.971C31.6798 134.641 31.9998 134.291 32.3098 133.871C32.6198 133.451 32.0298 132.961 31.6298 133.191C31.2298 133.421 30.8398 133.641 30.4398 133.871C30.6398 134.131 30.8398 134.391 31.0498 134.661C31.3398 134.431 31.6198 134.201 31.9098 133.971C32.3498 133.611 31.7698 132.871 31.2998 133.181C30.9198 133.441 30.5398 133.671 30.1298 133.881C30.3298 134.141 30.5298 134.401 30.7398 134.671C31.1498 134.151 31.5498 133.631 31.9598 133.111C32.3398 132.621 31.7298 131.941 31.2498 132.401C30.9398 132.701 30.6998 133.001 30.4798 133.371C30.7698 133.541 31.0598 133.711 31.3398 133.871C31.7198 133.241 32.2298 132.691 32.6098 132.061C33.0098 131.401 33.2898 130.721 33.7998 130.141C33.5398 129.941 33.2798 129.741 33.0098 129.531C32.6698 130.201 32.3498 130.871 32.0498 131.561C31.8398 132.041 32.4198 132.621 32.8398 132.171C33.2498 131.721 33.6498 131.271 34.0598 130.821C33.7998 130.621 33.5398 130.421 33.2698 130.211C32.8298 130.901 32.3798 131.591 31.9398 132.271C31.6398 132.731 32.2098 133.141 32.6198 132.951C33.1998 132.691 33.7698 132.431 34.3498 132.171C34.1198 131.941 33.8898 131.711 33.6698 131.491C33.1898 132.121 32.5698 132.531 31.9098 132.941C32.1098 133.201 32.3098 133.461 32.5198 133.731C32.8998 133.311 33.2198 132.871 33.5198 132.381C33.8298 131.871 33.1498 131.421 32.7298 131.771C32.3698 132.071 31.9898 132.371 31.6098 132.651C31.8098 132.911 32.0098 133.171 32.2198 133.441C32.9798 132.741 33.7898 132.141 34.6798 131.601C34.4798 131.341 34.2798 131.081 34.0698 130.811C33.9798 130.871 33.8898 130.931 33.7998 130.991C33.9598 131.271 34.1198 131.551 34.2898 131.831C34.6698 131.481 35.3498 130.951 34.9898 130.381C34.6698 129.851 33.7998 130.351 34.1398 130.901Z" fill="black"/>
<path d="M29.4299 137.031C29.4399 137.021 29.4399 137.021 29.4499 137.011C29.9099 136.551 29.1999 135.851 28.7399 136.301C28.7299 136.311 28.7299 136.311 28.7199 136.321C28.2699 136.781 28.9799 137.491 29.4299 137.031Z" fill="black"/>
<path d="M91.2598 65.0402C92.4798 65.1802 93.6898 65.3202 94.9098 65.4602C94.9098 65.1302 94.9098 64.7902 94.9098 64.4602C93.3898 64.4702 91.8998 64.3802 90.3998 64.1902C90.4398 64.5202 90.4898 64.8402 90.5298 65.1702C92.8098 64.8602 95.1998 65.0702 97.4898 64.9902C99.8198 64.9102 102.12 64.8502 104.45 65.0502C104.37 64.7402 104.28 64.4302 104.2 64.1202C102.37 65.3802 101 66.8102 99.3698 68.3002C97.6498 69.8802 95.5798 70.8402 94.1298 72.7102C93.7398 73.2102 94.3398 73.8402 94.8398 73.4202C95.7898 72.6102 96.7298 71.6002 97.8798 71.0702C97.6398 70.8802 97.3898 70.6902 97.1498 70.5102C96.6798 71.6702 95.2598 72.2402 94.3798 73.0602C94.6198 73.3002 94.8498 73.5302 95.0898 73.7702C96.3398 72.3602 97.3398 71.1002 99.0498 70.2102C98.8498 69.9502 98.6498 69.6902 98.4398 69.4202C96.9798 70.6702 98.6998 69.4202 98.8498 69.3002C99.2698 68.9302 98.7098 68.1802 98.2398 68.5102C96.7998 69.5402 95.3198 70.4502 93.7698 71.2902C93.9698 71.5502 94.1698 71.8102 94.3798 72.0802C95.6798 70.8502 97.0698 69.7902 98.5998 68.8602C98.3698 68.6302 98.1398 68.4002 97.9198 68.1802C97.2898 69.2302 95.9398 69.9702 94.9598 70.6502C95.1298 70.9402 95.2998 71.2302 95.4598 71.5102C97.2598 70.2502 99.0598 68.9902 100.86 67.7302C101.39 67.3602 100.94 66.5902 100.36 66.8702C99.2198 67.4002 98.0798 67.9302 96.9398 68.4702C97.1398 68.7302 97.3398 68.9902 97.5498 69.2602C99.0798 67.8402 102.15 67.2802 103.05 65.3602C103.2 65.0402 103.03 64.5902 102.62 64.6102C100.97 64.6902 99.4098 65.6802 97.9698 66.4202C97.4798 66.6702 97.8198 67.5502 98.3598 67.3302C99.3998 66.9102 100.45 66.5402 101.53 66.2102C101.44 65.8902 101.35 65.5702 101.26 65.2502C98.8498 66.0702 96.5398 67.0502 94.2798 68.2102C93.7798 68.4602 94.1298 69.3202 94.6698 69.1202C95.5298 68.8102 96.3898 68.4902 97.2498 68.1802C97.0398 67.9702 96.8398 67.7702 96.6298 67.5602C96.2998 68.5802 94.7998 69.2902 93.9698 69.8202C93.4298 70.1602 93.9198 71.0102 94.4698 70.6802C96.0898 69.7202 97.6998 68.7302 99.2998 67.7202C99.1298 67.4302 98.9598 67.1402 98.7998 66.8602C97.6498 67.6702 96.4998 68.3002 95.1898 68.8302C95.3498 69.1102 95.5098 69.3902 95.6798 69.6702C96.9598 68.5402 98.5098 67.9102 99.9898 67.1102C100.42 66.8702 100.23 66.1602 99.7398 66.1802C98.0498 66.2302 96.5298 66.6202 94.9298 67.1702C94.3298 67.3802 94.5798 68.3402 95.1998 68.1302C96.9798 67.5202 98.7598 66.9102 100.54 66.2702C101.05 66.0902 101 65.2902 100.41 65.2902C98.3598 65.2802 96.5498 65.9902 94.5798 66.4702C94.6698 66.7902 94.7598 67.1102 94.8498 67.4302C97.1098 66.5002 99.3698 65.8502 101.78 65.4202C102.35 65.3202 102.19 64.4502 101.65 64.4402C98.9498 64.3602 96.4598 65.2502 93.8398 65.7702C93.9298 66.0902 94.0198 66.4102 94.1098 66.7302C95.2298 66.2902 96.3398 65.9702 97.5198 65.7502C98.0798 65.6502 97.9398 64.7602 97.3898 64.7702C95.9998 64.8002 94.7798 65.0902 93.4498 65.5102C93.5798 65.8102 93.7098 66.1202 93.8398 66.4202C94.4298 65.9802 95.0998 65.6802 95.8398 65.5402C96.4598 65.3702 96.1998 64.4202 95.5698 64.5802C94.8198 64.8102 94.0598 64.9302 93.2798 64.9602C92.6398 65.0202 92.6398 66.0202 93.2798 65.9602C94.1598 65.8802 94.9798 65.7602 95.8398 65.5502C95.7498 65.2302 95.6598 64.9102 95.5698 64.5902C94.7298 64.8202 94.0798 65.1002 93.3298 65.5702C92.8698 65.8602 93.1598 66.6602 93.7198 66.4802C94.9898 66.0802 96.0098 65.8102 97.3998 65.7802C97.3598 65.4502 97.3098 65.1302 97.2698 64.8002C96.0798 65.0202 94.9798 65.3402 93.8598 65.7802C93.2698 66.0102 93.4798 66.8702 94.1298 66.7402C96.6598 66.2402 99.0598 65.3702 101.67 65.4502C101.63 65.1202 101.58 64.8002 101.54 64.4702C99.1398 64.9002 96.8698 65.5502 94.6098 66.4802C94.0298 66.7202 94.2298 67.6002 94.8798 67.4402C96.7598 66.9802 98.4698 66.2902 100.44 66.3002C100.4 65.9702 100.35 65.6502 100.31 65.3202C98.5398 65.9502 96.7598 66.5702 94.9698 67.1802C95.0598 67.5002 95.1498 67.8202 95.2398 68.1402C96.7698 67.6102 98.1498 67.2302 99.7898 67.1802C99.7098 66.8702 99.6198 66.5602 99.5398 66.2502C97.9598 67.1102 96.3798 67.7702 95.0198 68.9702C94.6598 69.2902 95.0398 69.9902 95.5098 69.8102C96.8898 69.2602 98.1398 68.6002 99.3598 67.7402C99.8798 67.3802 99.4098 66.5302 98.8598 66.8802C97.2698 67.8902 95.6598 68.8802 94.0298 69.8402C94.1998 70.1302 94.3698 70.4202 94.5298 70.7002C95.6398 69.9902 97.2298 69.1602 97.6498 67.8402C97.7598 67.4902 97.3898 67.1002 97.0298 67.2202C96.1698 67.5302 95.3098 67.8502 94.4498 68.1602C94.5798 68.4602 94.7098 68.7702 94.8398 69.0702C97.0198 67.9502 99.2598 67.0002 101.58 66.2102C102.18 66.0002 101.94 65.0602 101.31 65.2502C100.23 65.5802 99.1798 65.9502 98.1398 66.3702C98.2698 66.6702 98.3998 66.9802 98.5298 67.2802C99.7398 66.6602 101.31 65.6702 102.68 65.6002C102.54 65.3502 102.39 65.1002 102.25 64.8502C101.46 66.5302 98.3198 67.2302 96.9098 68.5502C96.4698 68.9602 97.0298 69.5602 97.5198 69.3402C98.6598 68.8102 99.7998 68.2802 100.94 67.7402C100.77 67.4502 100.6 67.1602 100.44 66.8802C98.6398 68.1402 96.8398 69.4002 95.0398 70.6602C94.5198 71.0302 95.0098 71.8902 95.5398 71.5202C96.6698 70.7402 98.1298 69.9002 98.8598 68.6902C99.1098 68.2602 98.5998 67.7502 98.1798 68.0102C96.5598 68.9902 95.1298 70.0902 93.7598 71.3902C93.3398 71.7902 93.8798 72.4402 94.3698 72.1802C95.9298 71.3502 97.4098 70.4302 98.8398 69.4002C98.6398 69.1402 98.4398 68.8802 98.2298 68.6102C97.5598 69.2002 95.8398 70.4502 96.5098 71.5302C96.5998 71.6702 96.7698 71.8002 96.9398 71.7802C97.8998 71.6702 98.5598 70.7302 99.2298 70.1502C99.6798 69.7702 99.1098 69.1102 98.6198 69.3602C96.7898 70.3202 95.8198 71.5602 94.4598 73.0802C94.0298 73.5602 94.6998 74.2302 95.1698 73.7902C96.3298 72.7002 97.5798 72.3102 98.1898 70.8002C98.3698 70.3502 97.7998 70.0802 97.4598 70.2402C96.2198 70.8002 95.2398 71.8702 94.2098 72.7402C94.4498 72.9802 94.6798 73.2102 94.9198 73.4502C96.1898 71.8202 97.9598 70.9102 99.5198 69.6102C101.33 68.0902 102.82 66.3802 104.79 65.0102C105.21 64.7202 105.04 64.1202 104.54 64.0802C100.03 63.7102 94.8398 63.6302 90.3498 64.2302C89.7398 64.3102 89.9798 65.1502 90.4798 65.2102C91.9898 65.4002 93.4798 65.4902 94.9898 65.4802C95.6498 65.4802 95.6098 64.5502 94.9898 64.4802C93.7698 64.3402 92.5598 64.2002 91.3398 64.0602C90.6198 63.9702 90.6198 64.9702 91.2598 65.0402Z" fill="black"/>
<path d="M74.7796 45.0204C74.7596 45.0304 74.7296 45.0304 74.7096 45.0404C75.5996 45.2804 76.4896 45.5104 77.3896 45.7504C77.3696 45.7304 77.3496 45.7104 77.3296 45.6904C77.5696 46.5804 77.7996 47.4704 78.0396 48.3704C77.9096 48.8804 77.6296 49.2604 77.2196 49.5304C77.3196 49.4704 77.4196 49.4104 77.5196 49.3604C77.6896 49.2704 77.8596 49.1804 78.0296 49.1004C78.1996 49.0204 78.3696 48.9404 78.5496 48.8504C78.8296 48.7304 78.7796 48.7504 78.4196 48.9004C78.5396 48.8504 78.6596 48.8004 78.7696 48.7604C79.8696 48.3304 80.8496 47.4004 80.7896 46.1104C80.7296 44.8004 79.9496 43.9304 78.7696 43.4604C77.5996 42.9904 76.1696 43.4704 75.3096 44.3204C76.7496 45.4304 78.1896 46.5404 79.6296 47.6504C80.2696 46.8104 80.3296 45.8304 80.1896 44.8304C80.0596 43.9004 79.0996 43.1604 78.2696 42.9104C76.7796 42.4504 75.2896 43.4304 74.5696 44.6904C73.7596 46.0904 74.4196 48.4304 76.2096 48.7304C76.8096 48.8304 77.4496 48.9204 78.0396 48.6904C78.7296 48.4204 79.2996 48.0904 79.6796 47.4304C80.0196 46.8404 80.1696 45.9704 79.9596 45.3104C79.5396 44.0204 78.0096 42.8204 76.5796 43.3904C76.9496 43.4004 77.3096 43.4204 77.6796 43.4304C78.2296 44.7804 78.7796 46.1204 79.3196 47.4704C79.4296 47.2904 79.4096 47.3104 79.2696 47.5204C79.0396 47.8804 78.6896 48.1104 78.2196 48.2004C77.7296 48.2004 77.2496 48.2004 76.7596 48.2004C76.7796 48.2104 76.7996 48.2104 76.8196 48.2204C76.1796 47.5804 75.5396 46.9404 74.8996 46.3004C74.8996 46.3304 74.9096 46.3504 74.9096 46.3804C74.9096 45.8904 74.9096 45.4104 74.9096 44.9204C74.7796 45.4504 75.2196 44.4604 74.8896 44.8904C74.4996 45.3904 74.4196 46.4304 74.6096 47.0104C74.7996 47.5904 75.1096 48.0604 75.5996 48.4404C76.6796 49.2704 78.2296 49.2004 79.2096 48.2204C77.1696 48.3004 76.5396 48.4904 77.3196 48.7704C77.3196 47.0004 77.3196 45.2304 77.3196 43.4704C76.3796 43.8404 75.3896 44.2204 74.5296 44.7504C73.9396 45.1104 73.3796 45.5804 73.0396 46.1904C72.3796 47.3404 72.6296 48.7004 73.5096 49.6604C74.1896 50.4004 75.2496 50.5804 76.1896 50.3704C76.2096 50.3604 76.2396 50.3604 76.2596 50.3504C77.6696 50.0404 78.6196 48.3304 78.1796 46.9704C77.6896 45.4604 76.2896 44.6804 74.7796 45.0204Z" fill="black"/>
<path d="M85.4198 41.9902C86.8198 39.7002 90.0498 38.2702 91.9998 36.3602C93.9598 34.4302 95.7098 32.2702 97.9598 30.6502C96.7098 29.4002 95.4498 28.1402 94.1998 26.8902C93.1398 29.3202 91.9998 31.6402 90.5898 33.8802C89.8898 34.9902 89.1998 36.0902 88.5898 37.2402C88.0498 38.2602 87.6698 39.7602 86.7798 40.5202C88.3098 40.9202 89.8398 41.3302 91.3798 41.7302C91.4198 41.3502 91.4598 40.9802 91.4998 40.6002C92.6298 37.2402 87.3198 35.7902 86.1998 39.1402C85.7198 40.5602 85.7398 41.7502 86.0798 43.1902C86.5898 45.3402 89.1798 45.6802 90.6798 44.4002C92.6698 42.7102 93.4798 39.6202 94.8398 37.4302C96.4198 34.9002 97.7598 32.3802 98.9498 29.6502C99.9098 27.4502 97.6998 24.0802 95.1898 25.8902C92.5298 27.8002 90.4398 30.1802 88.1198 32.4602C85.6998 34.8402 82.4898 36.2502 80.6798 39.2102C78.8198 42.2402 83.5798 45.0102 85.4198 41.9902Z" fill="black"/>
<path d="M90.8198 36.9711C90.8998 36.8611 90.9798 36.7411 91.0598 36.6311C91.2398 36.3511 90.6098 37.1511 90.9898 36.7311C91.1698 36.5211 91.3598 36.3211 91.5498 36.1211C92.5698 35.1011 92.6398 33.2411 91.5498 32.2311C90.4498 31.2211 88.7498 31.1411 87.6598 32.2311C87.0698 32.8211 86.5398 33.4911 86.0798 34.1911C85.2798 35.3911 85.8098 37.2911 87.0698 37.9511C88.4398 38.6911 89.9698 38.2511 90.8198 36.9711Z" fill="black"/>
<path d="M91.4898 45.5812C95.5898 39.7512 98.4598 33.1012 102.53 27.2712C103.31 26.1512 102.83 24.0712 101.54 23.5112C99.1898 22.4912 97.6698 23.9812 95.7398 25.2612C96.8498 26.7012 97.9598 28.1412 99.0698 29.5812C99.4898 29.0512 99.9098 28.5312 100.33 28.0012C102.51 25.2612 98.6398 21.3412 96.4398 24.1112C96.0198 24.6412 95.5998 25.1612 95.1798 25.6912C93.3998 27.9312 95.6798 31.8912 98.5098 30.0112C99.0798 29.6312 100.05 28.7212 100.69 28.4612C99.9798 28.3712 99.2798 28.2812 98.5698 28.1812C98.6298 28.2112 98.6898 28.2312 98.7498 28.2612C98.4198 27.0112 98.0898 25.7512 97.7598 24.5012C93.6798 30.3312 90.8198 36.9812 86.7198 42.8112C84.6998 45.7012 89.4698 48.4512 91.4898 45.5812Z" fill="black"/>
<path d="M101.32 21.3398C101.06 21.5398 100.77 21.6998 100.46 21.7998C101.07 22.2698 101.68 22.7398 102.3 23.2098C102.39 22.9598 102.49 22.7098 102.58 22.4698C103.24 21.1898 101.69 20.0198 100.62 20.9598C99.8796 21.5998 99.1796 22.3098 98.2996 22.7398C98.7996 23.3898 99.3096 24.0498 99.8096 24.6998C101.74 22.6698 104.13 20.9898 106.17 19.0498C105.52 18.5498 104.86 18.0398 104.21 17.5398C103.2 19.5798 102.28 21.6998 100.99 23.5798C100.07 24.9198 102.22 26.1298 103.15 24.8398C103.46 24.3698 103.85 23.9898 104.32 23.6998C103.71 23.4498 103.1 23.1998 102.48 22.9498C102.48 22.9298 101.51 24.3698 101.4 24.5398C102.12 24.9598 102.84 25.3798 103.56 25.7998C104.33 24.1498 105.05 22.5998 106.11 21.1198C107.15 19.6698 107.71 17.9498 108.8 16.5198C109.72 15.3098 107.84 14.1698 106.84 15.0098C106.25 15.4998 105.66 15.9798 105.07 16.4698C105.66 17.0598 106.25 17.6498 106.84 18.2398C107.34 17.7598 107.85 17.3098 108.38 16.8698C109.62 15.8398 107.84 14.0798 106.61 15.0998C106.08 15.5398 105.57 15.9898 105.07 16.4698C103.88 17.5998 105.62 19.2398 106.84 18.2398C107.43 17.7498 108.02 17.2698 108.61 16.7798C107.96 16.2798 107.3 15.7698 106.65 15.2698C105.56 16.6998 105 18.4198 103.96 19.8698C102.9 21.3498 102.18 22.8998 101.41 24.5498C100.74 25.9898 102.7 27.1998 103.57 25.8098C104.22 24.7698 105.18 23.5698 104.9 22.2898C104.74 21.5398 103.71 21.0998 103.06 21.5398C102.22 22.1198 101.59 22.7498 100.99 23.5798C101.71 23.9998 102.43 24.4198 103.15 24.8398C104.44 22.9598 105.36 20.8298 106.37 18.7998C106.99 17.5498 105.47 16.2698 104.41 17.2898C102.37 19.2398 99.9896 20.9098 98.0496 22.9398C97.0396 23.9998 98.3096 25.5098 99.5596 24.8998C100.62 24.3798 101.5 23.4998 102.38 22.7298C101.73 22.2298 101.07 21.7198 100.42 21.2198C100.17 21.7098 100.03 22.0298 99.8896 22.5598C99.5696 23.6998 100.78 24.3898 101.73 23.9698C102.04 23.8598 102.33 23.7098 102.59 23.5098C103.92 22.6198 102.67 20.4498 101.32 21.3398Z" fill="black"/>
<path d="M109.25 15.8404C109.7 15.0604 110.08 14.2604 110.41 13.4204C110.62 12.8904 109.76 12.5404 109.5 13.0304C109.12 13.7504 108.66 14.3104 108.03 14.8204C108.31 14.9804 108.59 15.1404 108.87 15.3104C109.03 14.8204 109.26 14.5004 109.66 14.1704C109.42 13.9304 109.19 13.7004 108.95 13.4604C108.47 13.8804 107.99 14.3004 107.51 14.7204C107.77 14.9204 108.03 15.1204 108.3 15.3304C108.63 14.8104 109.02 14.4004 109.51 14.0204C109.27 13.7804 109.04 13.5504 108.8 13.3104C108.42 13.7304 108.03 14.1404 107.65 14.5604C107.93 14.7204 108.21 14.8804 108.49 15.0504C108.82 14.0004 110.21 13.0904 111.02 12.4004C110.78 12.1604 110.55 11.9304 110.31 11.6904C109.98 12.0904 109.72 12.4904 109.52 12.9704C109.37 13.3204 109.54 13.7004 109.95 13.7204C110.46 13.7504 110.66 13.3704 110.95 13.0004C111.47 12.3304 111.99 11.6504 112.51 10.9804C112.9 10.4804 112.2 9.76041 111.8 10.2704C111.44 10.7404 111.08 11.2004 110.72 11.6704C110.56 11.8804 109.93 12.7204 109.95 12.7204C110.09 12.9704 110.24 13.2204 110.38 13.4704C110.56 13.0604 110.73 12.7504 111.02 12.4004C111.42 11.9004 110.81 11.2704 110.31 11.6904C109.31 12.5404 107.93 13.4804 107.52 14.7804C107.37 15.2504 108.02 15.6304 108.36 15.2704C108.74 14.8504 109.13 14.4404 109.51 14.0204C109.96 13.5304 109.3 12.9304 108.8 13.3104C108.24 13.7404 107.81 14.2304 107.43 14.8204C107.11 15.3204 107.81 15.7804 108.22 15.4304C108.7 15.0104 109.18 14.5904 109.66 14.1704C110.15 13.7404 109.44 13.0504 108.95 13.4604C108.43 13.8904 108.11 14.4004 107.91 15.0404C107.74 15.5604 108.39 15.8204 108.75 15.5304C109.43 14.9704 109.97 14.3204 110.38 13.5404C110.08 13.4104 109.77 13.2804 109.47 13.1504C109.17 13.9104 108.82 14.6204 108.41 15.3304C108.06 15.8904 108.93 16.3904 109.25 15.8404Z" fill="black"/>
<path d="M112.33 10.7598C112.97 10.7598 112.97 9.75977 112.33 9.75977C111.68 9.75977 111.68 10.7598 112.33 10.7598Z" fill="black"/>
<path d="M107.45 15.4199C107.46 15.4199 107.46 15.4199 107.47 15.4199C108.11 15.4199 108.11 14.4199 107.47 14.4199C107.46 14.4199 107.46 14.4199 107.45 14.4199C106.81 14.4199 106.81 15.4199 107.45 15.4199Z" fill="black"/>
<path d="M110.18 14.0703C110.82 14.0703 110.82 13.0703 110.18 13.0703C109.53 13.0703 109.53 14.0703 110.18 14.0703Z" fill="black"/>
<path d="M45.5297 111.481C45.6797 111.291 45.8197 111.091 45.9697 110.901C46.2897 110.471 46.0397 109.781 45.6097 109.531C45.0997 109.231 44.5697 109.451 44.2397 109.891C44.0897 110.081 43.9497 110.281 43.7997 110.471C43.4797 110.901 43.7297 111.591 44.1597 111.841C44.6697 112.141 45.2097 111.921 45.5297 111.481Z" fill="black"/>
<path d="M47.1799 107.691C48.4699 107.691 48.4699 105.691 47.1799 105.691C45.8899 105.691 45.8899 107.691 47.1799 107.691Z" fill="black"/>
<path d="M53.05 97.6113C54.34 97.6113 54.34 95.6113 53.05 95.6113C51.76 95.6113 51.76 97.6113 53.05 97.6113Z" fill="black"/>
<path d="M77.7297 89.9707C79.0197 89.9707 79.0197 87.9707 77.7297 87.9707C76.4397 87.9707 76.4397 89.9707 77.7297 89.9707Z" fill="black"/>
<path d="M56.4299 77.9199C57.7199 77.9199 57.7199 75.9199 56.4299 75.9199C55.1399 75.9199 55.1399 77.9199 56.4299 77.9199Z" fill="black"/>
<path d="M55.6298 93.1406C56.9198 93.1406 56.9198 91.1406 55.6298 91.1406C54.3498 91.1406 54.3398 93.1406 55.6298 93.1406Z" fill="black"/>
<path d="M50.2097 68.9609C51.4997 68.9609 51.4997 66.9609 50.2097 66.9609C48.9197 66.9609 48.9197 68.9609 50.2097 68.9609Z" fill="black"/>
<path d="M56.8 63.0605C58.09 63.0605 58.09 61.0605 56.8 61.0605C55.51 61.0605 55.51 63.0605 56.8 63.0605Z" fill="black"/>
<path d="M61.0896 59.2598C62.3796 59.2598 62.3796 57.2598 61.0896 57.2598C59.7996 57.2598 59.7996 59.2598 61.0896 59.2598Z" fill="black"/>
<path d="M61.8896 58.8199C61.8996 58.8099 61.8996 58.8099 61.9096 58.7999C62.8196 57.8899 61.4096 56.4699 60.4996 57.3899C60.4896 57.3999 60.4896 57.3999 60.4796 57.4099C59.5696 58.3199 60.9796 59.7399 61.8896 58.8199Z" fill="black"/>
<path d="M60.2398 57.6808C60.2198 57.7008 60.1998 57.7208 60.1798 57.7408C59.2698 58.6508 60.6798 60.0708 61.5898 59.1508C61.6098 59.1308 61.6298 59.1108 61.6498 59.0908C62.5698 58.1808 61.1498 56.7708 60.2398 57.6808Z" fill="black"/>
</g>
<defs>
<clipPath id="clip0">
<rect width="150" height="150" fill="white"/>
</clipPath>
</defs>
</svg>
