<svg width="150" height="150" viewBox="0 0 150 150" fill="none" xmlns="http://www.w3.org/2000/svg">
<path d="M86.1099 140.579C118.54 140.579 144.83 116.595 144.83 87.0095C144.83 57.4236 118.54 33.4395 86.1099 33.4395C53.6797 33.4395 27.3899 57.4236 27.3899 87.0095C27.3899 116.595 53.6797 140.579 86.1099 140.579Z" stroke="black" stroke-width="4" stroke-miterlimit="10"/>
<path d="M59.1101 24.5312C62.3301 24.5312 62.3301 19.5312 59.1101 19.5312C55.8901 19.5312 55.8901 24.5312 59.1101 24.5312Z" fill="black"/>
<path d="M27.11 86.9202C31.69 86.6802 36.22 86.7902 40.79 87.2702C40.79 85.6002 40.79 83.9402 40.79 82.2702C35.77 82.6302 30.81 82.2202 25.81 81.7102C23.02 81.4202 22.39 86.0802 25.15 86.6202C30.36 87.6402 35.57 88.6602 40.78 89.6802C41 88.0402 41.22 86.4102 41.44 84.7702C37.12 85.1602 32.81 85.5502 28.49 85.9402C25.34 86.2302 25.22 90.9002 28.49 90.9402C32.53 90.9902 36.77 90.6802 40.71 91.6402C40.71 90.0302 40.71 88.4302 40.71 86.8202C36.01 87.5802 31.38 88.6103 26.8 89.9103C23.9 90.7403 24.81 94.4902 27.46 94.8202C32.74 95.4802 38.09 95.0302 43.35 95.9302C43.57 94.2902 43.79 92.6602 44.01 91.0202C42.36 91.1402 40.72 91.2502 39.07 91.3702C38.52 91.4102 37.97 91.4502 37.42 91.4902C35.51 91.0802 34.9 91.9702 35.58 94.1702C36.72 92.7002 36.23 89.6402 33.81 89.9002C30.68 90.2402 27.64 90.4702 24.5 90.1302C24.92 91.6802 25.34 93.2402 25.76 94.7902C28.84 92.7902 32 91.5902 35.67 91.2402C35.45 89.6002 35.23 87.9702 35.01 86.3302C31.63 86.9502 28.29 87.1702 24.86 87.0802C25.28 88.6302 25.7 90.1902 26.12 91.7402C29.48 89.4202 34.98 89.5502 38.92 89.3102C38.7 87.6702 38.48 86.0402 38.26 84.4002C32.96 85.4702 27.64 85.9902 22.24 86.0102C22.83 87.4302 23.42 88.8602 24.01 90.2802C24.75 89.8402 25.5 89.4002 26.24 88.9602C29.24 87.8602 27.94 83.0302 24.91 84.1402C23.16 84.7802 21.87 85.5302 20.47 86.7502C18.8 88.2002 20.17 91.0302 22.24 91.0202C28.1 91.0002 33.85 90.3902 39.59 89.2302C42.33 88.6802 41.74 84.1502 38.93 84.3202C34.17 84.6102 27.66 84.6402 23.61 87.4402C21.61 88.8202 22.28 92.0302 24.87 92.1002C28.75 92.2002 32.53 91.8702 36.35 91.1702C39.09 90.6702 38.5 86.0002 35.69 86.2602C31.14 86.6902 27.1 87.9902 23.26 90.4902C21.06 91.9202 22.1 94.8802 24.52 95.1502C27.66 95.5002 30.7 95.2702 33.83 94.9202C33.24 93.5002 32.65 92.0702 32.06 90.6502C30.78 92.2902 29.94 94.5502 31.92 96.1102C34.41 98.0602 41.16 96.2502 44.02 96.0402C46.64 95.8502 47.64 91.6302 44.68 91.1302C38.97 90.1602 33.19 90.5602 27.46 89.8402C27.68 91.4802 27.9 93.1102 28.12 94.7502C32.7 93.4402 37.33 92.4203 42.03 91.6603C44.52 91.2603 44.3 87.4002 42.03 86.8402C37.63 85.7402 33 86.0002 28.49 85.9402C28.49 87.6102 28.49 89.2702 28.49 90.9402C32.81 90.5502 37.12 90.1602 41.44 89.7702C44.04 89.5302 45.08 85.4402 42.1 84.8602C36.89 83.8402 31.68 82.8202 26.47 81.8002C26.25 83.4402 26.03 85.0702 25.81 86.7102C30.81 87.2202 35.77 87.6402 40.79 87.2702C44.04 87.0402 43.97 82.6002 40.79 82.2702C36.22 81.7902 31.69 81.6702 27.11 81.9202C23.91 82.0902 23.89 87.0902 27.11 86.9202Z" fill="white"/>
<path d="M29.8401 67.2695C33.8101 67.0695 37.7801 67.0095 41.7501 67.1095C44.9701 67.1795 44.9701 62.1795 41.7501 62.1095C37.7801 62.0195 33.8101 62.0695 29.8401 62.2695C26.6301 62.4295 26.6101 67.4295 29.8401 67.2695Z" fill="white"/>
<path d="M34.76 67.2697C33.67 67.3897 32.47 67.6297 31.37 67.5697C32.09 67.9797 32.81 68.3997 33.53 68.8097C33.44 68.6597 33.36 68.5097 33.27 68.3697C33.27 69.2097 33.27 70.0497 33.27 70.8897C33.01 71.0697 32.75 71.2497 32.49 71.4197C35.21 71.4297 36.01 66.9597 33.15 66.5097C30.47 66.0797 28.38 66.6097 26.39 68.4697C25.33 69.4597 25.42 71.7697 26.9 72.3997C28.06 72.8897 30.24 74.3597 31.49 74.3397C32.81 75.1097 32.83 74.3197 31.56 71.9797C30.75 72.0497 29.93 72.1297 29.12 72.1997C29.34 73.8397 29.56 75.4697 29.78 77.1097C30.07 77.0497 30.36 76.9897 30.65 76.9397C30.45 75.4197 30.25 73.8897 30.05 72.3697C27.07 74.0097 24.09 74.8497 20.68 74.9897C20.9 76.6297 21.12 78.2597 21.34 79.8997C23.14 79.4797 28.03 77.9797 29.69 79.0997C29.28 78.3797 28.86 77.6597 28.45 76.9397C28.47 77.6497 24.44 79.4197 23.82 79.7197C21.36 80.8897 22.87 84.1697 25.08 84.3797C30.3 84.8797 35.51 85.0697 40.75 84.9497C40.53 83.3097 40.31 81.6797 40.09 80.0397C37.2 80.7997 34.34 81.2097 31.35 81.2797C28.14 81.3497 28.13 86.3497 31.35 86.2797C34.78 86.1997 38.1 85.7397 41.42 84.8597C44.12 84.1497 43.6 79.8797 40.76 79.9497C35.52 80.0697 30.31 79.8797 25.09 79.3797C25.51 80.9297 25.93 82.4897 26.35 84.0397C28.93 82.8097 35.67 79.3297 32.92 75.4297C30.66 72.2397 23.03 74.3797 20.01 75.0797C17.29 75.7197 17.84 80.1097 20.67 79.9897C24.94 79.8097 28.81 78.7397 32.56 76.6897C34.36 75.6997 34.1 72.5297 31.96 72.1197C30.49 71.8397 29.85 71.7797 28.43 72.2897C25.97 73.1797 26.09 77.4697 29.09 77.1997C31.62 76.9697 36.1 77.2897 36.68 73.9097C37.32 70.1797 31.85 69.1197 29.39 68.0797C29.56 69.3897 29.73 70.6997 29.9 72.0097C30.53 71.7797 31.17 71.5597 31.8 71.3297C32.02 69.6897 32.24 68.0597 32.46 66.4197C30.42 66.4097 28.39 67.6597 28.63 69.9597C28.96 73.2197 32.52 72.5097 34.73 72.2697C37.92 71.9297 37.96 66.9297 34.76 67.2697Z" fill="white"/>
<path d="M43.42 112.481C39.61 111.931 35.79 111.381 31.98 110.831C31.98 112.441 31.98 114.041 31.98 115.651C33.49 115.081 34.76 114.721 36.4 114.571C39.56 114.291 39.66 109.681 36.4 109.571C35.57 109.591 34.76 109.501 33.95 109.311C34.36 110.031 34.78 110.751 35.19 111.471C35.19 111.761 38.89 110.701 39.6 110.601C42.43 110.211 41.69 105.661 38.94 105.691C35.76 105.721 32.58 105.761 29.4 105.791C29.82 107.341 30.24 108.901 30.66 110.451C32.28 109.561 33.9 108.671 35.52 107.781C37.94 106.451 36.26 102.121 33.59 103.211C31.32 104.141 29.21 104.531 26.77 104.421C27.36 105.841 27.95 107.271 28.54 108.691C30.57 106.641 32.77 105.041 35.33 103.711C38.25 102.191 35.68 98.1508 32.81 99.3908C31.5 99.9608 30.19 100.521 28.88 101.091C30.02 102.231 31.16 103.371 32.3 104.511C33.02 103.091 36.44 101.781 37.83 100.971C39.82 99.8108 39.14 96.0107 36.57 96.3107C33.08 96.7307 29.6 97.1407 26.11 97.5607C26.7 98.9807 27.29 100.411 27.88 101.831C29.22 100.261 30.81 99.5308 32.72 98.8508C31.91 97.4608 31.1 96.0608 30.29 94.6708C28.02 96.8008 25.74 98.9307 23.47 101.061C24.78 102.071 26.09 103.081 27.4 104.091C28.88 101.631 30.46 99.2607 32.22 96.9907C33.71 95.0807 32.4 92.2207 29.79 92.8107C27.82 93.2507 25.86 93.6908 23.89 94.1408C24.92 95.1708 25.94 96.1908 26.97 97.2208C27.17 96.9908 27.36 96.7507 27.56 96.5207C30.05 94.4707 26.49 90.9508 24.02 92.9808C22.86 93.9308 22.61 94.4708 22.14 95.8908C21.52 97.7908 23.45 99.3608 25.22 98.9708C27.19 98.5308 29.15 98.0908 31.12 97.6408C30.31 96.2508 29.5 94.8508 28.69 93.4608C26.66 96.0608 24.79 98.7408 23.09 101.571C21.6 104.051 24.97 106.521 27.02 104.601C29.29 102.471 31.57 100.341 33.84 98.2108C35.6 96.5608 33.78 93.1808 31.41 94.0308C28.7 95.0008 26.27 96.0708 24.36 98.2908C23.13 99.7308 23.77 102.841 26.13 102.561C29.62 102.141 33.1 101.731 36.59 101.311C36.17 99.7607 35.75 98.2008 35.33 96.6508C32.85 98.1008 29.37 99.3108 28.01 101.981C26.81 104.351 29.17 106.381 31.43 105.401C32.74 104.831 34.05 104.271 35.36 103.701C34.52 102.261 33.68 100.821 32.84 99.3807C29.91 100.911 27.36 102.801 25.04 105.141C23.46 106.731 24.68 109.311 26.81 109.411C29.69 109.541 32.29 109.121 34.96 108.021C34.32 106.501 33.68 104.971 33.03 103.451C31.41 104.341 29.79 105.231 28.17 106.121C25.99 107.321 26.98 110.801 29.43 110.781C32.61 110.751 35.79 110.711 38.97 110.681C38.75 109.041 38.53 107.411 38.31 105.771C35.23 106.201 30.18 107.611 30.23 111.461C30.24 112.291 30.69 113.241 31.47 113.621C33.04 114.381 34.71 114.501 36.44 114.561C36.44 112.891 36.44 111.231 36.44 109.561C34.42 109.741 32.6 110.101 30.69 110.811C28.68 111.571 27.98 115.241 30.69 115.631C34.5 116.181 38.32 116.731 42.13 117.281C45.24 117.761 46.6 112.941 43.42 112.481Z" fill="white"/>
<path d="M41.8799 112.78C39.3599 112.81 36.8299 112.85 34.3099 112.88C31.0999 112.92 31.0899 117.92 34.3099 117.88C36.8299 117.85 39.3599 117.81 41.8799 117.78C45.0899 117.74 45.0999 112.74 41.8799 112.78Z" fill="white"/>
<path d="M38.77 60.6595C36.09 60.3995 33.4 60.1995 30.71 60.0895C27.49 59.9495 27.51 64.9095 30.71 65.0895C33.48 65.2495 36.25 65.2395 39.02 65.0795C42.22 64.8895 42.24 59.8895 39.02 60.0795C36.25 60.2395 33.48 60.2495 30.71 60.0895C30.71 61.7595 30.71 63.4195 30.71 65.0895C33.4 65.2095 36.09 65.3995 38.77 65.6595C40.12 65.7895 41.27 64.4195 41.27 63.1595C41.27 61.6995 40.12 60.7895 38.77 60.6595Z" fill="white"/>
<path d="M24.66 71.4595C24.57 71.4995 24.48 71.5395 24.39 71.5795C21.78 72.7595 23.64 76.8995 26.32 76.1495C28.98 75.3995 31.67 74.8095 34.41 74.4695C33.69 73.2195 32.97 71.9595 32.25 70.7095C31.91 71.1895 31.52 71.5695 31.09 71.9695C28.71 74.1495 32.26 77.6795 34.63 75.5095C35.38 74.8295 35.99 74.0695 36.57 73.2395C37.6 71.7895 36.25 69.2495 34.41 69.4795C31.22 69.8795 28.09 70.4694 24.99 71.3394C25.63 72.8594 26.27 74.3895 26.92 75.9095C27.01 75.8695 27.1 75.8295 27.19 75.7895C30.11 74.4495 27.58 70.1395 24.66 71.4595Z" fill="white"/>
<path d="M55.98 18.4603C55.36 20.1503 54.43 21.5703 53.19 22.8803C54.5 23.8903 55.81 24.9003 57.12 25.9103C57.52 25.3003 59.43 22.2903 57.95 22.2703C58.67 23.5203 59.39 24.7803 60.11 26.0303C60.34 25.5503 60.61 25.1003 60.92 24.6803C60.7 23.2303 60.27 22.8903 59.65 23.6703C59.3 23.9103 58.93 24.0903 58.52 24.1903C59 24.5903 59.49 24.9903 59.97 25.3903C60.29 25.4403 62.29 23.8703 62.74 23.6903C63.21 23.5103 63.69 23.3503 64.19 23.2303C63.63 21.9603 63.23 21.6803 62.99 22.3803C62.48 22.7503 61.99 23.8603 61.53 24.3703C60.96 24.9903 60.34 25.5603 59.66 26.0603C58.18 27.1603 56.55 27.8703 54.78 28.3403C55.72 28.7203 56.66 29.1103 57.6 29.4903C56.53 27.9703 57.35 26.3403 58.72 25.2903C59.52 24.6703 60.51 24.2903 61.45 23.9503C61.92 23.7903 62.4 23.6403 62.88 23.4903C64.27 23.3203 64.57 22.2803 63.77 20.3803C60.94 21.9103 63.46 26.2303 66.29 24.7003C68.36 23.5803 68.66 20.6203 66.85 19.0703C64.59 17.1403 61.09 18.6903 58.73 19.6703C54.08 21.6103 49.8 27.0803 53.29 32.0203C53.94 32.9403 54.97 33.4703 56.11 33.1703C58.96 32.4103 61.54 31.0603 63.78 29.1403C65.71 27.4803 68.06 24.9203 68.13 22.2103C68.32 14.7903 57.53 19.6703 55.41 23.1203C53.93 25.5403 54.84 28.7803 57.91 29.1503C60.31 29.4403 63.13 27.8703 64.42 25.8703C65.8 23.7203 65.03 20.8603 62.61 19.9003C59.56 18.6803 57.13 21.0103 55.8 23.5203C54.91 25.1903 56.01 27.2603 57.96 27.2803C61.18 27.3103 63.01 23.1903 60.44 20.9903C57.63 18.5903 54.45 20.8903 52.81 23.4003C51.25 25.7803 54.79 28.4803 56.74 26.4303C58.59 24.4803 59.88 22.3203 60.81 19.8103C61.92 16.7703 57.09 15.4603 55.98 18.4603Z" fill="white"/>
<path d="M57.4599 74.5706H23.08C21.76 74.5706 20.7 73.5006 20.7 72.1906V72.0206C20.7 70.7006 21.77 69.6406 23.08 69.6406H57.4599C58.7799 69.6406 59.84 70.7106 59.84 72.0206V72.1906C59.84 73.5106 58.7799 74.5706 57.4599 74.5706Z" fill="black" stroke="black" stroke-width="0.75" stroke-miterlimit="10"/>
<path d="M48.6699 91.0202H14.2899C12.9699 91.0202 11.9099 89.9502 11.9099 88.6402V88.3702C11.9099 87.0502 12.9799 85.9902 14.2899 85.9902H48.6699C49.9899 85.9902 51.0499 87.0602 51.0499 88.3702V88.6402C51.0499 89.9502 49.9899 91.0202 48.6699 91.0202Z" fill="black" stroke="black" stroke-width="0.75" stroke-miterlimit="10"/>
<path d="M41.72 107.22H7.33996C6.01996 107.22 4.95996 106.15 4.95996 104.84V104.81C4.95996 103.49 6.02996 102.43 7.33996 102.43H41.72C43.04 102.43 44.1 103.5 44.1 104.81V104.84C44.11 106.15 43.04 107.22 41.72 107.22Z" fill="black" stroke="black" stroke-width="0.75" stroke-miterlimit="10"/>
<path d="M85.8699 96.4193C89.7248 96.4193 92.8499 93.5897 92.8499 90.0993C92.8499 86.6089 89.7248 83.7793 85.8699 83.7793C82.0149 83.7793 78.8899 86.6089 78.8899 90.0993C78.8899 93.5897 82.0149 96.4193 85.8699 96.4193Z" fill="black" stroke="black" stroke-width="0.75" stroke-miterlimit="10"/>
<path d="M119.54 61.1202L89.0899 86.1102C88.4899 86.6102 88.3999 87.5002 88.8899 88.1002C89.3899 88.7002 90.2799 88.7902 90.8799 88.3002L121.33 63.3102C121.93 62.8102 122.02 61.9202 121.53 61.3202C121.04 60.7102 120.14 60.6202 119.54 61.1202Z" fill="black" stroke="black" stroke-width="0.75" stroke-miterlimit="10"/>
<path d="M86.45 84.6591L118.92 61.6191" stroke="black" stroke-width="0.75" stroke-miterlimit="10"/>
<path d="M92.3201 91.2303L121.02 63.5703" stroke="black" stroke-width="0.75" stroke-miterlimit="10"/>
<path d="M92.9 85.4897C92.89 85.2197 92.87 85.3097 92.83 85.7597C92.91 85.5097 92.87 85.5897 92.73 85.9897C92.6 86.2097 92.42 86.3797 92.2 86.4997C92.27 86.4497 92.35 86.4097 92.44 86.3797C92.98 86.1497 93.44 85.4197 93.59 84.8897C93.75 84.2897 93.68 83.4897 93.34 82.9597C93 82.4297 92.48 81.9597 91.85 81.8097C91.15 81.6497 90.57 81.7797 89.92 82.0597C88.67 82.5997 87.81 84.1497 87.91 85.4897C88.01 86.7897 88.99 88.0497 90.41 87.9897C91.67 87.9297 93.01 86.8897 92.9 85.4897Z" fill="black"/>
<path d="M94.8401 84.9603C95.4901 84.1703 96.4801 83.9603 97.3101 83.4003C98.1401 82.8503 98.6901 82.1303 99.2501 81.3303C97.8101 80.4903 96.3701 79.6503 94.9301 78.8103C94.2501 79.9703 93.4501 81.5803 92.9601 82.4803C92.4901 83.3503 91.3501 85.1403 90.4101 85.9803C91.7201 86.9903 93.0301 88.0003 94.3401 89.0103C94.6101 88.4203 95.7201 88.0003 96.2201 87.5803C96.8701 87.0303 97.4501 86.3803 98.0301 85.7603C99.4001 84.3003 100.68 82.7703 101.97 81.2403C100.58 80.4303 99.1801 79.6203 97.7901 78.8103C97.7101 78.9803 97.6201 79.1503 97.5401 79.3103C96.1801 81.3703 98.9001 84.1103 100.96 82.7303C102.76 81.5303 103.92 80.0103 105.32 78.4103C107.48 75.9503 104.27 72.8703 101.78 74.8703C100.67 75.7703 99.4401 76.4003 98.0901 76.8603C99.0301 78.0803 99.9701 79.3103 100.91 80.5303C101.56 79.3603 103.8 78.4803 104.92 77.9003C107.78 76.4103 105.25 72.1003 102.4 73.5803C100.37 74.6403 97.7601 75.9403 96.6001 78.0003C95.5901 79.8103 97.2801 82.4003 99.4201 81.6703C101.63 80.9203 103.5 79.8503 105.31 78.4003C104.13 77.2203 102.95 76.0403 101.77 74.8603C100.69 76.1003 99.8001 77.4803 98.4201 78.4003C99.5601 79.5403 100.7 80.6803 101.84 81.8203C102.22 81.2503 102.41 80.7803 102.6 80.1203C103.24 77.8303 100.08 75.7203 98.4201 77.6903C96.9501 79.4303 95.4901 81.2103 93.8901 82.8303C92.6601 84.0803 90.7601 84.8203 90.0201 86.4703C88.8701 89.0103 91.7401 91.4703 93.9501 89.5003C96.3601 87.3503 97.6501 84.0303 99.2501 81.3103C100.91 78.5003 96.7501 76.1903 94.9301 78.7903C94.1101 79.9603 92.2701 80.2303 91.3001 81.4103C89.2701 83.8903 92.7901 87.4503 94.8401 84.9603Z" fill="black"/>
<path d="M104.11 73.4106C104.29 73.5706 104.48 73.5606 104.68 73.3606C104.48 73.1006 104.28 72.8406 104.07 72.5706C103.77 72.7806 103.47 72.9806 103.17 73.1906C103.41 73.3806 103.66 73.5706 103.9 73.7506C104.11 73.1606 105.56 72.6606 106.07 72.3606C105.9 72.0706 105.73 71.7806 105.57 71.5006C105.05 71.8106 104.52 72.1306 104 72.4406C104.2 72.7006 104.4 72.9606 104.61 73.2306C106.64 71.6506 108.91 70.4106 110.82 68.6706C110.54 68.5506 110.25 68.4306 109.97 68.3206C110.1 71.6906 107.69 74.4906 105.67 77.0106C105.95 77.1706 106.23 77.3306 106.51 77.5006C106.71 76.1606 109.36 74.5806 110.26 73.6606C111.46 72.4506 112.6 71.2206 113.94 70.1706C114.45 69.7706 113.73 69.0706 113.23 69.4606C111.55 70.7706 110.19 72.3906 108.64 73.8406C107.48 74.9206 105.78 75.5406 105.53 77.2306C105.47 77.6606 106.01 78.1606 106.37 77.7206C108.61 74.9206 111.11 72.0706 110.96 68.3206C110.94 67.8806 110.43 67.6706 110.11 67.9706C108.2 69.7006 105.92 70.9406 103.9 72.5306C103.45 72.8806 104.03 73.6006 104.51 73.3206C105.03 73.0106 105.56 72.6906 106.08 72.3806C106.63 72.0506 106.14 71.2006 105.58 71.5206C104.65 72.0506 103.33 72.4306 102.95 73.5006C102.8 73.9306 103.33 74.2606 103.68 74.0606C104.3 73.7306 104.26 73.7506 104.79 73.2906C105.25 72.8906 104.66 72.3006 104.18 72.5006C103.81 72.6606 103.5 72.8206 103.24 73.1206C103.08 73.3106 103.06 73.5106 103.16 73.7306C103.19 73.7906 103.22 73.8506 103.25 73.9206C103.52 74.5006 104.39 73.9906 104.11 73.4106Z" fill="black"/>
<path d="M86.1101 24.9297V34.7297" stroke="black" stroke-width="10" stroke-miterlimit="10"/>
<path d="M97.7699 27.3208H74.4499C71.3899 27.3208 68.9099 24.8408 68.9099 21.7808V20.0908C68.9099 17.0308 71.3899 14.5508 74.4499 14.5508H97.7699C100.83 14.5508 103.31 17.0308 103.31 20.0908V21.7808C103.31 24.8408 100.83 27.3208 97.7699 27.3208Z" fill="black" stroke="black" stroke-width="0.75" stroke-miterlimit="10"/>
<path d="M130.84 43.29L127.93 46.79C126.79 48.16 124.77 48.34 123.4 47.21L120.12 44.48C118.75 43.34 118.57 41.32 119.7 39.95L122.61 36.45C123.75 35.08 125.77 34.9 127.14 36.03L130.42 38.76C131.79 39.9 131.97 41.92 130.84 43.29Z" fill="black" stroke="black" stroke-width="0.75" stroke-miterlimit="10"/>
</svg>
