<svg width="150" height="150" viewBox="0 0 150 150" fill="none" xmlns="http://www.w3.org/2000/svg">
<path d="M95.8701 104.701C113.118 104.701 127.1 91.1398 127.1 74.4111C127.1 57.6824 113.118 44.1211 95.8701 44.1211C78.6223 44.1211 64.6401 57.6824 64.6401 74.4111C64.6401 91.1398 78.6223 104.701 95.8701 104.701Z" stroke="black" stroke-width="11" stroke-miterlimit="10"/>
<path d="M97.4201 44.1202H94.3301C92.3901 44.1202 90.8101 42.5402 90.8101 40.6002V31.1802C90.8101 29.2402 92.3901 27.6602 94.3301 27.6602H97.4201C99.3601 27.6602 100.94 29.2402 100.94 31.1802V40.6002C100.94 42.5402 99.3601 44.1202 97.4201 44.1202Z" fill="black" stroke="black" stroke-width="4" stroke-miterlimit="10"/>
<path d="M97.7701 120.14H93.9801C92.2301 120.14 90.8101 118.72 90.8101 116.97V106.85C90.8101 105.1 92.2301 103.68 93.9801 103.68H97.7701C99.5201 103.68 100.94 105.1 100.94 106.85V116.97C100.94 118.72 99.5201 120.14 97.7701 120.14Z" fill="black" stroke="black" stroke-width="4" stroke-miterlimit="10"/>
<path d="M48.1802 76.0198V72.7999C48.1802 70.8899 49.7302 69.3398 51.6402 69.3398H61.1802C63.0902 69.3398 64.6402 70.8899 64.6402 72.7999V76.0098C64.6402 77.9198 63.0902 79.4698 61.1802 79.4698H51.6402C49.7302 79.4698 48.1802 77.9298 48.1802 76.0198Z" fill="black" stroke="black" stroke-width="4" stroke-miterlimit="10"/>
<path d="M127.11 75.8496V72.9796C127.11 70.9796 128.73 69.3496 130.74 69.3496H139.94C141.94 69.3496 143.57 70.9696 143.57 72.9796V75.8496C143.57 77.8496 141.95 79.4796 139.94 79.4796H130.74C128.73 79.4696 127.11 77.8496 127.11 75.8496Z" fill="black" stroke="black" stroke-width="4" stroke-miterlimit="10"/>
<path d="M58.9902 44.8102L61.0002 42.0602C62.0902 40.5602 64.2002 40.2302 65.7002 41.3202L73.5702 47.0602C75.0702 48.1502 75.4002 50.2602 74.3102 51.7602L72.3002 54.5102C71.2102 56.0102 69.1002 56.3402 67.6002 55.2502L59.7302 49.5102C58.2202 48.4202 57.8902 46.3102 58.9902 44.8102Z" fill="black" stroke="black" stroke-width="4" stroke-miterlimit="10"/>
<path d="M117.22 97.3107L119.03 94.8307C120.18 93.2607 122.38 92.9107 123.96 94.0607L131.56 99.6007C133.13 100.751 133.48 102.951 132.33 104.531L130.52 107.011C129.37 108.581 127.17 108.931 125.59 107.781L117.99 102.241C116.42 101.091 116.07 98.8807 117.22 97.3107Z" fill="black" stroke="black" stroke-width="4" stroke-miterlimit="10"/>
<path d="M73.2101 95.3296L75.4401 97.4396C76.8501 98.7796 76.9201 101.01 75.5801 102.43L69.1101 109.26C67.7701 110.67 65.5401 110.74 64.1201 109.4L61.8901 107.29C60.4801 105.95 60.4101 103.72 61.7501 102.3L68.2201 95.4696C69.5701 94.0496 71.8001 93.9896 73.2101 95.3296Z" fill="black" stroke="black" stroke-width="4" stroke-miterlimit="10"/>
<path d="M129.05 40.7511L130.63 42.2511C132.22 43.7611 132.29 46.2711 130.78 47.8711L124.93 54.0511C123.42 55.6411 120.91 55.7111 119.31 54.2011L117.73 52.7011C116.14 51.1911 116.07 48.6811 117.58 47.0811L123.43 40.9011C124.95 39.3111 127.46 39.2411 129.05 40.7511Z" fill="black" stroke="black" stroke-width="4" stroke-miterlimit="10"/>
<path d="M47.8437 101.317C47.9926 93.1394 41.278 86.3857 32.8463 86.2322C24.4146 86.0787 17.4587 92.5836 17.3098 100.761C17.161 108.939 23.8755 115.693 32.3072 115.846C40.7389 116 47.6949 109.495 47.8437 101.317Z" stroke="black" stroke-width="5" stroke-miterlimit="10"/>
<path d="M33.9701 86.2504L31.7201 86.2104C30.9801 86.2004 30.3801 85.5804 30.4001 84.8404L30.5001 79.4904C30.5101 78.7504 31.1301 78.1504 31.8701 78.1704L34.1201 78.2104C34.8601 78.2204 35.4601 78.8404 35.4401 79.5804L35.3401 84.9304C35.3301 85.6704 34.7201 86.2604 33.9701 86.2504Z" fill="black" stroke="black" stroke-width="4" stroke-miterlimit="10"/>
<path d="M32.8001 123.91L30.6401 123.87C29.8701 123.86 29.2601 123.22 29.2701 122.45L29.3701 117.2C29.3801 116.43 30.0201 115.82 30.7901 115.83L32.9501 115.87C33.7201 115.88 34.3301 116.52 34.3201 117.29L34.2201 122.54C34.2101 123.31 33.5701 123.92 32.8001 123.91Z" fill="black" stroke="black" stroke-width="4" stroke-miterlimit="10"/>
<path d="M9.24011 101.64L9.28011 99.5803C9.29011 98.7803 9.95011 98.1503 10.7501 98.1603L15.9001 98.2503C16.7001 98.2603 17.3301 98.9203 17.3201 99.7203L17.2801 101.78C17.2701 102.58 16.6101 103.21 15.8101 103.2L10.6601 103.11C9.86011 103.1 9.23011 102.44 9.24011 101.64Z" fill="black" stroke="black" stroke-width="4" stroke-miterlimit="10"/>
<path d="M47.83 102.24L47.86 100.39C47.88 99.5296 48.58 98.8496 49.44 98.8696L54.38 98.9596C55.24 98.9796 55.92 99.6796 55.9 100.54L55.87 102.39C55.85 103.25 55.15 103.93 54.29 103.91L49.35 103.82C48.49 103.8 47.81 103.09 47.83 102.24Z" fill="black" stroke="black" stroke-width="4" stroke-miterlimit="10"/>
<path d="M14.6301 86.4705L15.9801 84.6805C16.4301 84.0805 17.2801 83.9705 17.8801 84.4205L22.1401 87.6405C22.7401 88.0905 22.8501 88.9405 22.4001 89.5405L21.0501 91.3305C20.6001 91.9305 19.7501 92.0405 19.1501 91.5905L14.8901 88.3705C14.3001 87.9205 14.1801 87.0705 14.6301 86.4705Z" fill="black" stroke="black" stroke-width="4" stroke-miterlimit="10"/>
<path d="M42.6302 112.65L43.8802 110.99C44.3602 110.36 45.2602 110.23 45.8902 110.71L50.0102 113.83C50.6402 114.31 50.7702 115.21 50.2902 115.84L49.0402 117.5C48.5602 118.13 47.6602 118.26 47.0302 117.78L42.9102 114.66C42.2802 114.18 42.1502 113.28 42.6302 112.65Z" fill="black" stroke="black" stroke-width="4" stroke-miterlimit="10"/>
<path d="M21.35 111.099L22.34 112.079C23.04 112.769 23.05 113.899 22.36 114.599L19.21 117.799C18.52 118.499 17.39 118.509 16.69 117.819L15.7 116.839C15 116.149 14.99 115.019 15.68 114.319L18.83 111.119C19.52 110.419 20.65 110.409 21.35 111.099Z" fill="black" stroke="black" stroke-width="4" stroke-miterlimit="10"/>
<path d="M48.9801 84.7606L50.6301 86.3806C50.9701 86.7106 50.9701 87.2506 50.6401 87.5806L46.8501 91.4406C46.1601 92.1406 45.0302 92.1506 44.3302 91.4606L43.3401 90.4906C42.6401 89.8006 42.6301 88.6706 43.3201 87.9706L46.4601 84.7706C47.1501 84.0806 48.2801 84.0706 48.9801 84.7606Z" fill="black" stroke="black" stroke-width="4" stroke-miterlimit="10"/>
</svg>
