<svg width="150" height="150" viewBox="0 0 150 150" fill="none" xmlns="http://www.w3.org/2000/svg">
<path d="M135.55 130.75H15.6C11.7 130.75 8.54004 127.59 8.54004 123.69V30.9702C8.54004 27.0702 11.7 23.9102 15.6 23.9102H135.56C139.46 23.9102 142.62 27.0702 142.62 30.9702V123.69C142.62 127.58 139.45 130.75 135.55 130.75Z" stroke="black" stroke-width="3" stroke-miterlimit="10"/>
<path d="M9.71997 48.7598H142.62" stroke="black" stroke-width="3" stroke-miterlimit="10"/>
<path d="M23.03 23.3799C24.97 19.4599 29.52 17.2299 33.84 17.2099C37.08 17.1999 39.01 19.4999 39.92 22.3599C40.95 25.5999 41.44 31.7099 36.58 32.2699C34.69 32.4899 34.66 35.4899 36.58 35.2699C45.31 34.2499 45.26 22.1599 40.43 16.7799C35 10.7299 23.5 15.6799 20.44 21.8699C19.59 23.5899 22.17 25.1099 23.03 23.3799Z" fill="black"/>
<path d="M53.6899 23.3799C55.6299 19.4599 60.1799 17.2299 64.4999 17.2099C67.7399 17.1999 69.6699 19.4999 70.5799 22.3599C71.6099 25.5999 72.0999 31.7099 67.2399 32.2699C65.3499 32.4899 65.3199 35.4899 67.2399 35.2699C75.9699 34.2499 75.9199 22.1599 71.0899 16.7799C65.6599 10.7299 54.1599 15.6799 51.0999 21.8699C50.2499 23.5899 52.8299 25.1099 53.6899 23.3799Z" fill="black"/>
<path d="M86.39 23.3799C88.33 19.4599 92.88 17.2299 97.2 17.2099C100.44 17.1999 102.37 19.4999 103.28 22.3599C104.31 25.5999 104.8 31.7099 99.94 32.2699C98.05 32.4899 98.02 35.4899 99.94 35.2699C108.67 34.2499 108.62 22.1599 103.79 16.7799C98.36 10.7299 86.86 15.6799 83.8 21.8699C82.94 23.5899 85.53 25.1099 86.39 23.3799Z" fill="black"/>
<path d="M117.09 23.251C119.03 19.331 123.58 17.101 127.9 17.081C131.14 17.071 133.07 19.371 133.98 22.231C135.01 25.471 135.5 31.581 130.64 32.141C128.75 32.361 128.72 35.361 130.64 35.141C139.37 34.121 139.32 22.031 134.49 16.651C129.06 10.601 117.56 15.551 114.5 21.741C113.65 23.461 116.24 24.981 117.09 23.251Z" fill="black"/>
<path d="M40.78 75.3508H28.63C25.94 75.3508 23.76 73.1708 23.76 70.4808V60.6708C23.76 57.9808 25.94 55.8008 28.63 55.8008H40.78C43.47 55.8008 45.65 57.9808 45.65 60.6708V70.4808C45.64 73.1708 43.47 75.3508 40.78 75.3508Z" stroke="black" stroke-width="2" stroke-miterlimit="10"/>
<path d="M119.73 75.3508H107.58C104.89 75.3508 102.71 73.1708 102.71 70.4808V60.6708C102.71 57.9808 104.89 55.8008 107.58 55.8008H119.73C122.42 55.8008 124.6 57.9808 124.6 60.6708V70.4808C124.6 73.1708 122.42 75.3508 119.73 75.3508Z" stroke="black" stroke-width="2" stroke-miterlimit="10"/>
<path d="M93.27 75.3508H81.11C78.42 75.3508 76.24 73.1708 76.24 70.4808V60.6708C76.24 57.9808 78.42 55.8008 81.11 55.8008H93.26C95.95 55.8008 98.13 57.9808 98.13 60.6708V70.4808C98.13 73.1708 95.95 75.3508 93.27 75.3508Z" stroke="black" stroke-width="2" stroke-miterlimit="10"/>
<path d="M67.02 75.3508H54.87C52.18 75.3508 50 73.1708 50 70.4808V60.6708C50 57.9808 52.18 55.8008 54.87 55.8008H67.02C69.71 55.8008 71.89 57.9808 71.89 60.6708V70.4808C71.89 73.1708 69.71 75.3508 67.02 75.3508Z" stroke="black" stroke-width="2" stroke-miterlimit="10"/>
<path d="M41.28 99.2805H29.13C26.44 99.2805 24.26 97.1005 24.26 94.4105V84.6005C24.26 81.9105 26.44 79.7305 29.13 79.7305H41.28C43.97 79.7305 46.15 81.9105 46.15 84.6005V94.4105C46.15 97.1105 43.97 99.2805 41.28 99.2805Z" stroke="black" stroke-width="2" stroke-miterlimit="10"/>
<path d="M120.24 99.2805H108.09C105.4 99.2805 103.22 97.1005 103.22 94.4105V84.6005C103.22 81.9105 105.4 79.7305 108.09 79.7305H120.24C122.93 79.7305 125.11 81.9105 125.11 84.6005V94.4105C125.1 97.1105 122.92 99.2805 120.24 99.2805Z" stroke="black" stroke-width="2" stroke-miterlimit="10"/>
<path d="M93.77 99.2805H81.62C78.93 99.2805 76.75 97.1005 76.75 94.4105V84.6005C76.75 81.9105 78.93 79.7305 81.62 79.7305H93.77C96.46 79.7305 98.64 81.9105 98.64 84.6005V94.4105C98.64 97.1105 96.46 99.2805 93.77 99.2805Z" stroke="black" stroke-width="2" stroke-miterlimit="10"/>
<path d="M67.52 99.2805H55.37C52.68 99.2805 50.5 97.1005 50.5 94.4105V84.6005C50.5 81.9105 52.68 79.7305 55.37 79.7305H67.52C70.21 79.7305 72.39 81.9105 72.39 84.6005V94.4105C72.39 97.1105 70.21 99.2805 67.52 99.2805Z" stroke="black" stroke-width="2" stroke-miterlimit="10"/>
<path d="M41.28 123.22H29.13C26.44 123.22 24.26 121.04 24.26 118.35V108.54C24.26 105.85 26.44 103.67 29.13 103.67H41.28C43.97 103.67 46.15 105.85 46.15 108.54V118.35C46.15 121.04 43.97 123.22 41.28 123.22Z" stroke="black" stroke-width="2" stroke-miterlimit="10"/>
<path d="M120.24 123.22H108.09C105.4 123.22 103.22 121.04 103.22 118.35V108.54C103.22 105.85 105.4 103.67 108.09 103.67H120.24C122.93 103.67 125.11 105.85 125.11 108.54V118.35C125.1 121.04 122.92 123.22 120.24 123.22Z" stroke="black" stroke-width="2" stroke-miterlimit="10"/>
<path d="M93.77 123.22H81.62C78.93 123.22 76.75 121.04 76.75 118.35V108.54C76.75 105.85 78.93 103.67 81.62 103.67H93.77C96.46 103.67 98.64 105.85 98.64 108.54V118.35C98.64 121.04 96.46 123.22 93.77 123.22Z" stroke="black" stroke-width="2" stroke-miterlimit="10"/>
<path d="M67.52 123.22H55.37C52.68 123.22 50.5 121.04 50.5 118.35V108.54C50.5 105.85 52.68 103.67 55.37 103.67H67.52C70.21 103.67 72.39 105.85 72.39 108.54V118.35C72.39 121.04 70.21 123.22 67.52 123.22Z" stroke="black" stroke-width="2" stroke-miterlimit="10"/>
<path d="M106.06 65.6999C108.12 67.9899 111.28 74.1099 114.94 72.0399C117.32 70.6999 119.6 68.3799 121.74 66.6799C124.34 64.6299 126.94 62.5799 129.54 60.5299C131.56 58.9399 128.71 56.1199 126.71 57.6999C124.31 59.5899 121.91 61.4799 119.51 63.3699C117.33 65.0899 114.86 67.7699 112.31 68.9099C112.98 68.9099 113.66 68.9099 114.33 68.9099C112.32 67.5699 110.51 64.6799 108.88 62.8599C107.17 60.9499 104.35 63.7899 106.06 65.6999Z" fill="black"/>
</svg>
